<svg width="240" height="245" viewBox="0 0 240 245" fill="none" xmlns="http://www.w3.org/2000/svg">
<path d="M84.4643 78.6446C84.4643 78.6446 87.3286 68.6636 88.8285 67.6903C90.3284 66.7169 75.6083 71.6236 75.6083 71.6236C75.6083 71.6236 72.8957 75.9559 72.5606 80.0169L84.4643 78.6446Z" fill="white"/>
<path d="M213.69 94.6176H232.04C232.04 94.6176 233.237 92.7825 228.641 91.7055L126.614 67.4512V12.3207C126.614 12.3207 101.083 8.33154 93.1049 37.8515C93.6714 36.8063 103.253 19.5571 121.827 20.2991V47.4255C121.475 48.4674 120.841 49.3915 119.996 50.0956C119.152 50.7996 118.128 51.2562 117.04 51.4147C113.051 52.2125 80.2917 50.6169 75.4967 54.6061C70.7017 58.5952 69.9118 64.1801 67.9172 78.9321C68.1646 78.0864 72.2096 64.5232 81.4804 62.1775C91.0545 59.784 95.8415 61.3797 98.235 62.9754C102.735 65.6515 106.248 69.7129 108.248 74.552L136.97 79.0039L136.172 82.6021L108.982 79.8017C108.982 79.8017 110.578 90.5885 106.588 94.5856C106.588 94.5856 109.844 71.959 100.206 69.2942C90.5678 66.6295 86.5946 79.4028 86.5946 81.8043L67.9013 83.7989C67.9013 83.7989 65.9067 88.2269 65.1088 89.8226H37.9824C37.9824 89.8226 35.5889 85.8334 35.5889 83.4399V82.9133C35.5889 81.8442 27.6105 81.0464 27.6105 81.0464V93.9553L2.07977 104.208H238C238 104.208 222.474 97.0111 213.69 94.6176ZM34.7512 88.6258H31.5598C31.5598 88.6258 28.7036 86.6232 29.3259 85.0276L34.7512 85.594V88.6258ZM70.7017 86.6232H79.5736C79.3073 87.5748 78.8004 88.4417 78.1016 89.1404C77.4029 89.8391 76.536 90.3461 75.5844 90.6124H69.098C69.3294 89.0167 69.6086 87.461 70.7017 86.6232ZM70.7017 97.7929C69.9038 97.7929 64.319 95.3994 64.319 95.3994L41.5487 95.7904L42.0035 93.8038H66.7364C67.5343 93.8038 70.6618 95.3994 70.6618 95.3994H81.5682C82.031 95.3994 83.4352 97.7929 83.4352 97.7929H70.7017ZM100.222 96.1973C97.5808 96.1973 95.4346 91.1869 95.4346 85.0276C95.4346 78.8683 97.5808 73.8578 100.222 73.8578C102.862 73.8578 105.009 78.8683 105.009 85.0276C105.009 91.1869 102.926 96.2132 100.254 96.2132L100.222 96.1973ZM149.751 96.9951C147.549 96.9951 145.762 93.4208 145.762 89.0167C145.762 84.6127 147.557 81.0384 149.751 81.0384C151.945 81.0384 153.74 84.6127 153.74 89.0167C153.74 93.4208 151.985 97.0111 149.783 97.0111L149.751 96.9951ZM160.123 96.1973C158.352 96.1973 156.932 93.0059 156.932 89.0167C156.932 85.0276 158.36 81.8362 160.123 81.8362C161.886 81.8362 163.315 85.0276 163.315 89.0167C163.315 93.0059 161.966 96.2132 160.171 96.2132L160.123 96.1973ZM197.981 89.7747L164.91 86.5833V83.3282L197.981 89.0646V89.7747ZM204.06 96.9951C203.174 96.9951 202.464 95.2079 202.464 93.0059C202.464 90.8039 203.182 89.0167 204.06 89.0167C204.938 89.0167 205.656 90.8039 205.656 93.0059C205.656 95.2079 204.986 97.0111 204.108 97.0111L204.06 96.9951ZM208.847 96.9951C207.969 96.9951 207.251 95.2079 207.251 93.0059C207.251 90.8039 207.969 89.0167 208.847 89.0167C209.725 89.0167 210.443 90.8039 210.443 93.0059C210.443 95.2079 209.781 97.0111 208.895 97.0111L208.847 96.9951Z" fill="white"/>
<path d="M65.9067 53.8721H39.5781C39.0734 53.9017 38.5857 54.0651 38.1651 54.3455C37.7444 54.626 37.406 55.0133 37.1846 55.4677L37.759 84.9877C37.759 84.9877 38.7882 87.3812 41.1817 87.3812H62.4042C62.4042 87.3812 64.3509 88.179 65.1487 83.392C65.9466 78.605 68.3401 54.6699 68.3401 54.6699C68.3401 54.6699 68.3002 53.8721 65.9067 53.8721ZM63.1143 85.0276H41.5727V81.8362H63.1143V85.0276ZM63.9121 77.0492H40.7748V73.8579H63.9121V77.0492ZM65.1088 69.0709H40.7429V65.8795H65.1088V69.0709ZM65.9067 61.0925H41.1737V57.9011H65.9067V61.0925Z" fill="white"/>
<path d="M41.1419 52.4758L84.2809 50.6807H43.8785L41.1419 52.4758Z" fill="white"/>
<path d="M56.8911 30.671C47.0777 37.7877 46.7346 49.0851 46.7346 49.0851H88.2221C88.9721 43.5002 93.073 29.937 93.073 29.937L56.8911 30.671ZM85.0787 45.1039L57.7927 32.905H87.7035L85.0787 45.1039Z" fill="white"/>
<path d="M94.6607 25.8838C94.6607 25.8838 103.437 9.92706 117.798 9.12923C117.798 9.12923 93.0651 7.53356 89.0759 9.92706V7.03092C89.3694 6.68383 89.7364 6.40639 90.1504 6.21872C90.5644 6.03105 91.0149 5.93784 91.4694 5.94586V0.353027C91.4694 0.353027 84.2889 1.9487 84.2889 5.14005V10.7249C84.2889 10.7249 66.7365 13.1184 61.1516 27.4795C61.1516 27.4795 84.2889 26.6816 85.0867 26.6816L63.5451 25.8838C63.5451 25.8838 68.3321 13.1184 100.285 13.1184L94.6607 25.8838Z" fill="white"/>
<path d="M35.1102 79.0357V67.9937C35.1102 67.9937 30.2593 69.5893 28.3046 73.5147V77.7432L35.1102 79.0357Z" fill="white"/>
<path d="M130.212 19.1263V12.5361L214.887 49.4839L130.212 19.1263Z" fill="white"/>
<path d="M130.212 26.6577V33.4633L214.089 63.8608L130.212 26.6577Z" fill="white"/>
<path d="M130.212 46.6834V41.29L178.944 61.4673L130.212 46.6834Z" fill="white"/>
<path d="M130.212 63.2465V56.4409L216.49 83.8306L130.212 63.2465Z" fill="white"/>
<path d="M237.657 106.202H2V152.134H237.657V106.202Z" stroke="white" stroke-width="3" stroke-miterlimit="10"/>
<path d="M234.067 109.394H5.59825V148.535H234.067V109.394Z" stroke="white" stroke-width="2" stroke-miterlimit="10"/>
<path d="M66.3594 134.275C65.8646 137.725 64.5039 140.401 62.2773 142.302C60.0638 144.203 57.1992 145.154 53.6836 145.154C49.4779 145.154 46.0859 143.78 43.5078 141.033C40.9297 138.285 39.6406 134.672 39.6406 130.193C39.6406 125.531 40.9492 121.814 43.5664 119.041C46.1966 116.267 49.7122 114.88 54.1133 114.88C57.6029 114.88 60.4479 115.798 62.6484 117.634C64.862 119.47 66.125 121.977 66.4375 125.154H59.5234C59.1849 123.774 58.5404 122.738 57.5898 122.048C56.6523 121.345 55.4154 120.994 53.8789 120.994C51.8216 120.994 50.194 121.807 48.9961 123.435C47.7982 125.063 47.1992 127.289 47.1992 130.115C47.1992 132.927 47.7656 135.115 48.8984 136.677C50.0312 138.227 51.6263 139.001 53.6836 139.001C55.3372 139.001 56.6589 138.598 57.6484 137.791C58.651 136.983 59.276 135.811 59.5234 134.275H66.3594ZM70.4414 115.583H77.6875V133.552C77.6875 135.531 78.0586 136.944 78.8008 137.791C79.556 138.624 80.7995 139.041 82.5312 139.041C84.237 139.041 85.4609 138.624 86.2031 137.791C86.9453 136.944 87.3164 135.531 87.3164 133.552V115.583H94.6406V132.673C94.6406 135.082 94.4062 137.003 93.9375 138.435C93.4688 139.867 92.694 141.078 91.6133 142.068C90.4805 143.097 89.1589 143.865 87.6484 144.373C86.151 144.893 84.4583 145.154 82.5703 145.154C80.6823 145.154 78.9831 144.893 77.4727 144.373C75.9753 143.865 74.6602 143.097 73.5273 142.068C72.4336 141.065 71.6458 139.848 71.1641 138.416C70.6823 136.97 70.4414 135.056 70.4414 132.673V115.583ZM98.7422 134.802H105.812C105.865 136.443 106.346 137.68 107.258 138.513C108.169 139.333 109.504 139.744 111.262 139.744C112.759 139.744 113.918 139.496 114.738 139.001C115.559 138.507 115.969 137.81 115.969 136.912C115.969 136.456 115.871 136.052 115.676 135.701C115.48 135.336 115.207 135.063 114.855 134.88C114.322 134.594 113.013 134.145 110.93 133.533C108.846 132.921 107.089 132.328 105.656 131.755C103.586 130.935 102.01 129.854 100.93 128.513C99.862 127.159 99.3281 125.583 99.3281 123.787C99.3281 121.039 100.357 118.858 102.414 117.244C104.484 115.616 107.284 114.802 110.812 114.802C114.276 114.802 117.023 115.655 119.055 117.361C121.086 119.067 122.102 121.371 122.102 124.275H115.168C115.012 122.934 114.536 121.944 113.742 121.306C112.961 120.668 111.828 120.349 110.344 120.349C109.159 120.349 108.195 120.597 107.453 121.091C106.711 121.573 106.34 122.192 106.34 122.947C106.34 124.223 108.104 125.427 111.633 126.56C112.271 126.768 112.759 126.925 113.098 127.029L113.391 127.126C117.036 128.311 119.315 129.268 120.227 129.998C121.151 130.753 121.854 131.645 122.336 132.673C122.818 133.689 123.059 134.822 123.059 136.072C123.059 138.936 121.958 141.169 119.758 142.771C117.57 144.36 114.497 145.154 110.539 145.154C106.802 145.154 103.957 144.301 102.004 142.595C100.051 140.876 98.9635 138.279 98.7422 134.802ZM127.434 144.353V115.583H137.57L141.359 129.587C141.698 130.824 142.004 132.029 142.277 133.201C142.551 134.36 142.792 135.492 143 136.599C143.247 135.427 143.527 134.203 143.84 132.927C144.152 131.638 144.51 130.258 144.914 128.787L148.488 115.583H158.605V144.353H151.887V131.599C151.887 130.701 151.906 129.444 151.945 127.83C151.997 126.202 152.069 124.327 152.16 122.205L146.633 144.353H139.328L133.918 122.205C134.009 124.757 134.081 127.055 134.133 129.099C134.185 131.13 134.211 132.719 134.211 133.865V144.353H127.434ZM164.484 144.353V115.583H171.828V144.353H164.484ZM184.953 127.908H190.441C191.926 127.908 193.013 127.634 193.703 127.087C194.406 126.541 194.758 125.668 194.758 124.47C194.758 123.416 194.419 122.634 193.742 122.126C193.065 121.606 192.03 121.345 190.637 121.345H184.953V127.908ZM177.629 144.353V115.583H191.398C195.044 115.583 197.727 116.235 199.445 117.537C201.177 118.839 202.043 120.857 202.043 123.591C202.043 125.206 201.672 126.593 200.93 127.751C200.201 128.897 199.061 129.861 197.512 130.642C198.775 131.124 199.667 131.781 200.188 132.615C200.708 133.435 201.008 134.887 201.086 136.97C201.125 137.556 201.164 138.344 201.203 139.333C201.294 141.651 201.691 142.992 202.395 143.357V144.353H194.68C194.302 143.337 194.087 141.944 194.035 140.173C193.983 138.403 193.931 137.289 193.879 136.833C193.762 135.714 193.384 134.893 192.746 134.373C192.108 133.852 191.151 133.591 189.875 133.591H184.953V144.353H177.629Z" fill="white"/>
<path d="M211.065 152.277C210.674 201.958 169.689 242.632 120 242.632C70.0395 242.632 28.935 201.52 28.935 151.559" stroke="white" stroke-width="3" stroke-miterlimit="10"/>
<path d="M207.443 152.644C207.076 200.371 167.703 239.433 119.976 239.433C72.0181 239.433 32.5252 199.948 32.5252 151.942" stroke="white" stroke-width="2" stroke-miterlimit="10"/>
<path d="M175.92 152.397C175.681 182.906 150.509 207.878 120 207.878C89.3232 207.878 64.0797 182.635 64.0797 151.958" stroke="white" stroke-width="2" stroke-miterlimit="10"/>
<path d="M173.71 152.628C173.654 166.873 167.942 180.512 157.829 190.545C147.717 200.578 134.033 206.183 119.789 206.127C105.544 206.071 91.9045 200.358 81.8715 190.246C71.8385 180.134 66.2336 166.45 66.2896 152.205" stroke="white" stroke-miterlimit="10"/>
<path d="M128.361 195.639L120.215 191.563L112.245 195.959L113.609 186.959L106.963 180.736L115.947 179.252L119.809 171.01L123.997 179.092L133.029 180.217L126.638 186.704L128.361 195.639Z" fill="white"/>
<path d="M161.352 174.848L155.312 171.824L149.392 175.079L150.406 168.401L145.475 163.782L152.137 162.681L155.009 156.562L158.121 162.561L164.822 163.399L160.075 168.21L161.352 174.848Z" fill="white"/>
<path d="M91.0545 174.848L85.0149 171.824L79.0949 175.079L80.1082 168.401L75.1775 163.782L81.8395 162.681L84.7117 156.562L87.8232 162.561L94.5251 163.399L89.7779 168.21L91.0545 174.848Z" fill="white"/>
<path d="M40.2324 155.931H58.8539C59.3964 164.5 60.0027 172.574 63.4574 180.576L59.9309 182.108C57.4417 176.084 56.5322 172.766 55.6226 165.521L52.3674 166.008C52.9066 171.525 54.2506 176.933 56.3566 182.06L52.8781 183.488C50.6593 178.088 49.2428 172.393 48.6735 166.582L44.6843 167.173C45.7853 175.949 46.9023 179.938 49.958 187.119L46.4475 188.714C42.0195 178.047 40.7988 167.372 40.2324 155.931Z" fill="white"/>
<path d="M47.1975 190.318C51.5849 192.81 56.3246 194.623 61.2553 195.695C61.7861 191.275 62.8579 186.937 64.4467 182.778C65.5969 185.392 66.9941 187.89 68.6194 190.238C68.0193 192.413 67.5636 194.625 67.2551 196.86C69.519 197.084 71.7959 197.145 74.0686 197.044C75.9142 199.06 77.9383 200.905 80.1162 202.557C75.7458 203.206 71.3092 203.278 66.92 202.772C66.8186 207.608 67.3551 212.437 68.5156 217.133C65.6305 214.985 62.9443 212.582 60.4894 209.953C60.3805 207.291 60.4552 204.625 60.7128 201.974C57.9877 201.589 55.2964 200.994 52.6626 200.195C50.5304 197.084 48.7003 193.777 47.1975 190.318Z" fill="white"/>
<path d="M71.0926 219.096L82.5097 204.352C85.9559 206.871 89.7094 208.941 93.6794 210.511C96.6633 211.771 98.8254 212.968 100.174 214.388C100.825 214.979 101.295 215.743 101.528 216.59C101.761 217.438 101.748 218.335 101.49 219.175C101.232 220.102 100.706 220.932 99.9777 221.561C99.2495 222.19 98.3518 222.589 97.3973 222.71C95.1873 223.141 92.2273 222.758 88.7727 221.314C86.6281 220.437 84.5344 219.441 82.5017 218.33L79.0869 224.002C76.3065 222.563 73.6347 220.923 71.0926 219.096ZM84.3846 215.106C86.2834 216.12 87.2488 216.582 89.1716 217.452C90.1603 217.951 91.2554 218.203 92.3629 218.186C92.7133 218.16 93.0492 218.035 93.3316 217.826C93.614 217.617 93.8314 217.333 93.9586 217.005C94.1005 216.698 94.1467 216.354 94.0913 216.02C94.0358 215.686 93.8812 215.376 93.6475 215.13C92.9046 214.394 92.0121 213.825 91.0305 213.463C89.2195 212.665 88.3339 212.234 86.5946 211.301L84.3846 215.106Z" fill="white"/>
<path d="M103.03 232.364L107.019 214.532C111.411 215.457 115.896 215.872 120.383 215.769C123.949 215.769 126.59 215.897 128.417 216.511C129.231 216.71 129.97 217.139 130.546 217.748C131.122 218.356 131.51 219.118 131.664 219.942C131.761 220.428 131.745 220.931 131.617 221.411C131.49 221.89 131.255 222.335 130.93 222.71C129.95 223.746 128.727 224.522 127.372 224.968C128.489 225.033 129.578 225.34 130.563 225.869C131.349 226.531 131.875 227.45 132.047 228.462C132.135 228.813 132.279 229.308 132.43 229.915C132.789 231.351 133.428 232.125 134.345 232.204L134.465 232.827C131.228 233.384 127.957 233.73 124.675 233.864C124.108 233.107 123.778 232.199 123.726 231.255C123.665 230.551 123.567 229.85 123.431 229.157C123.342 228.808 123.168 228.487 122.924 228.222C122.68 227.958 122.375 227.758 122.034 227.641C120.949 227.286 119.809 227.124 118.668 227.162C116.378 227.122 115.229 227.066 112.947 226.875L112.269 233.656C109.165 233.418 106.08 232.986 103.03 232.364ZM113.298 223.269C115.692 223.468 116.936 223.524 119.362 223.548C120.589 223.622 121.817 223.426 122.96 222.973C123.294 222.838 123.576 222.599 123.764 222.292C123.952 221.985 124.037 221.625 124.005 221.266C123.985 220.937 123.864 220.623 123.658 220.366C123.453 220.109 123.173 219.921 122.856 219.83C121.81 219.488 120.709 219.339 119.609 219.391C117.216 219.391 116.067 219.327 113.713 219.128C113.553 220.787 113.474 221.609 113.298 223.269Z" fill="white"/>
<path d="M140.249 231.678C138.358 224.609 137.417 221.075 135.526 213.998C143.831 212.091 147.892 210.487 155.057 206.02C155.927 207.272 156.365 207.894 157.243 209.139C153.081 211.889 148.56 214.052 143.807 215.57C144.294 216.774 144.533 217.373 145.012 218.577C149.57 217.1 153.926 215.057 157.977 212.498L160.051 215.586C155.778 218.272 151.187 220.417 146.384 221.968C146.967 223.428 147.254 224.162 147.844 225.622C153.58 223.792 159.027 221.16 164.025 217.804L166.227 220.907C158.249 225.96 149.462 229.604 140.249 231.678Z" fill="white"/>
<path d="M165.548 213.894C167.802 212.321 169.936 210.582 171.931 208.692C172.325 209.052 172.814 209.293 173.339 209.385C173.865 209.476 174.406 209.416 174.899 209.211C176.46 208.566 177.832 207.537 178.888 206.219C179.892 205.17 180.703 203.952 181.282 202.621C181.649 201.623 181.577 200.945 181.106 200.602C180.983 200.514 180.843 200.452 180.695 200.42C180.547 200.387 180.394 200.384 180.245 200.411C179.872 200.484 179.522 200.645 179.223 200.881C178.681 201.264 177.492 202.333 175.553 203.881C173.931 205.181 172.214 206.357 170.415 207.4C168.762 208.437 166.886 209.069 164.942 209.243C164.321 209.311 163.693 209.227 163.111 208.998C162.53 208.768 162.014 208.401 161.607 207.926C160.498 206.53 160.49 204.815 161.376 202.74C162.261 200.666 163.905 198.528 166.219 195.975C168.031 193.807 170.187 191.953 172.601 190.485C174.684 189.361 176.519 189.145 178.186 190.102C176.942 192.316 175.525 194.429 173.95 196.421C173.564 196.23 173.139 196.131 172.709 196.131C172.279 196.131 171.854 196.23 171.468 196.421C170.399 196.999 169.449 197.773 168.668 198.703C167.956 199.422 167.371 200.255 166.937 201.168C166.618 201.966 166.618 202.469 166.937 202.82C167.519 203.402 169.498 202.764 172.625 200.331C173.192 199.892 173.623 199.533 173.918 199.294L174.173 199.086C177.364 196.445 179.279 194.515 180.245 193.876C181.085 193.289 182.03 192.869 183.029 192.64C183.841 192.454 184.693 192.573 185.423 192.975C187.018 193.9 187.68 195.863 187.018 198.823C186.356 201.783 184.441 205.445 180.987 209.195C177.731 212.745 174.548 214.716 171.915 215.402C169.282 216.088 167.152 215.522 165.548 213.894Z" fill="white"/>
<path d="M186.795 188.459C188.108 185.733 189.204 182.908 190.074 180.01C190.605 180.144 191.165 180.11 191.675 179.911C192.186 179.712 192.622 179.359 192.922 178.901C194.019 177.345 194.74 175.556 195.028 173.675C195.421 172.019 195.556 170.313 195.427 168.617C195.276 167.372 194.901 166.71 194.318 166.63C194.171 166.615 194.022 166.635 193.884 166.688C193.745 166.74 193.621 166.824 193.521 166.933C193.215 167.236 192.983 167.604 192.842 168.01C192.555 168.728 192.045 170.523 191.039 173.188C190.251 175.388 189.29 177.522 188.167 179.571C187.231 181.435 185.864 183.049 184.178 184.278C183.678 184.662 183.085 184.907 182.459 184.985C181.834 185.064 181.199 184.974 180.62 184.725C179.024 183.927 178.226 182.331 178.043 179.818C177.859 177.305 178.338 174.345 179.175 170.46C179.758 167.214 180.759 164.058 182.151 161.069C183.42 158.628 184.904 157.263 186.779 157.295C186.774 160.379 186.547 163.459 186.101 166.51C185.651 166.552 185.218 166.705 184.842 166.956C184.466 167.206 184.158 167.547 183.947 167.946C183.27 169.166 182.801 170.49 182.558 171.864C182.267 172.983 182.14 174.139 182.183 175.294C182.255 176.22 182.502 176.763 182.981 176.89C183.779 177.153 185.215 175.478 186.819 171.226C187.114 170.428 187.321 169.853 187.465 169.438L187.585 169.071C189.125 164.54 189.874 161.308 190.409 160.04C190.833 158.937 191.446 157.916 192.22 157.024C192.493 156.697 192.831 156.432 193.213 156.245C193.596 156.058 194.013 155.954 194.438 155.939C196.289 155.939 197.781 157.702 198.619 161.253C199.456 164.803 199.528 169.773 198.26 175.518C197.063 180.943 195.156 184.557 193.146 186.608C191.135 188.658 188.949 189.201 186.795 188.459Z" fill="white"/>
</svg>
