<svg width="18" height="25" viewBox="0 0 18 25" fill="none" xmlns="http://www.w3.org/2000/svg">
<path d="M8.897 0.353027C3.99122 0.353027 0 4.34417 0 9.25003C0 13.9997 8.11093 23.8086 8.45619 24.2238C8.56511 24.3548 8.72663 24.4306 8.897 24.4306C9.0673 24.4306 9.22889 24.3548 9.33781 24.2238C9.68316 23.8085 17.794 13.9997 17.794 9.25003C17.794 4.34417 13.8029 0.353027 8.897 0.353027ZM8.897 22.9476C8.17781 22.0495 6.68355 20.1361 5.20488 17.9488C2.54993 14.0216 1.14655 11.0136 1.14655 9.25003C1.14655 4.97638 4.62343 1.49958 8.897 1.49958C13.1706 1.49958 16.6475 4.97638 16.6475 9.25003C16.6475 11.0135 15.2442 14.0215 12.5891 17.9488C11.1104 20.1361 9.6162 22.0495 8.897 22.9476Z" fill="white"/>
<path d="M11.8136 16.7072C11.5513 16.5299 11.1948 16.599 11.0177 16.8613C10.244 18.0065 9.3774 19.2067 8.44181 20.4286C8.24934 20.68 8.29704 21.0398 8.54844 21.2323C8.6524 21.3119 8.77492 21.3505 8.89653 21.3505C9.06882 21.3505 9.23928 21.273 9.3521 21.1257C10.3014 19.8859 11.1815 18.6671 11.9677 17.5032C12.1449 17.2409 12.076 16.8844 11.8136 16.7072Z" fill="white"/>
<path d="M8.89702 4.74805C6.30498 4.74805 4.19617 6.85686 4.19617 9.4489C4.19617 12.0409 6.30498 14.1498 8.89702 14.1498C11.4891 14.1498 13.5979 12.0409 13.5979 9.4489C13.5979 6.85686 11.4891 4.74805 8.89702 4.74805ZM8.89702 13.0032C6.93719 13.0032 5.34272 11.4087 5.34272 9.4489C5.34272 7.48907 6.93719 5.8946 8.89702 5.8946C10.8569 5.8946 12.4513 7.48907 12.4513 9.4489C12.4513 11.4087 10.8569 13.0032 8.89702 13.0032Z" fill="white"/>
</svg>
