<svg width="92" height="89" viewBox="0 0 92 89" fill="none" xmlns="http://www.w3.org/2000/svg">
<path d="M67.4286 64.5079H84.0952C90.1167 64.5079 91.2381 63.2484 91.2381 57.365V7.36503C91.2381 1.62693 89.8333 0.222168 84.0952 0.222168H7.90476C2.02381 0.222168 0.761905 1.48407 0.761905 7.36503V57.296C0.761905 63.1745 1.7381 64.5079 7.90476 64.5079H38.8571C38.8571 64.5079 61.6238 85.3555 64.4524 87.8698C65.4571 88.7626 67.5024 88.2793 67.4286 85.9365V64.5079ZM15.0476 43.0793H65.0476V50.2222H15.0476V43.0793ZM15.0476 28.7936H46V35.9365H15.0476V28.7936ZM15.0476 14.5079H76.9524V21.6507H15.0476V14.5079Z" fill="#052941"/>
</svg>
