<svg width="52" height="78" viewBox="0 0 52 78" fill="none" xmlns="http://www.w3.org/2000/svg">
<path d="M51.354 45.385C49.539 43.5701 49.3053 38.062 49.5864 34.5883C49.6292 34.3692 49.6533 34.1433 49.6533 33.9118V20.0676C49.6533 9.00232 40.651 0 29.5856 0H22.1618C11.0966 0 2.0943 9.00232 2.0943 20.0676V33.9118C2.0943 34.1444 2.11821 34.3712 2.16148 34.5914C2.44306 38.0651 2.21005 43.5704 0.395726 45.385C0.0203332 45.7604 -0.100561 46.3211 0.0873619 46.818C0.275134 47.3149 0.73662 47.6555 1.26665 47.6888C1.319 47.692 1.66565 47.7123 2.25136 47.7123C3.76443 47.7123 6.87152 47.5773 10.6085 46.6688C4.87457 49.5962 1.1108 55.543 1.1108 62.1945V76.1185C1.1108 76.8646 1.71573 77.4695 2.46182 77.4695H49.2871C50.0335 77.4695 50.6381 76.8646 50.6381 76.1185V62.1945C50.6381 55.5424 46.873 49.595 41.1373 46.6679C44.8765 47.5776 47.9854 47.7126 49.4988 47.7124C50.084 47.7121 50.431 47.6918 50.4833 47.6887C51.0134 47.6554 51.4749 47.3146 51.6626 46.818C51.8501 46.3213 51.7294 45.7604 51.354 45.385ZM4.79619 20.0676H4.79634C4.79634 10.4922 12.5864 2.70219 22.1617 2.70219H29.5856C39.1609 2.70219 46.9509 10.4922 46.9509 20.0676V22.358C46.6902 22.296 46.4197 22.2598 46.1402 22.2598H45.0672C44.7877 22.2598 44.5173 22.296 44.2568 22.358V20.6451C44.2568 12.051 37.2649 5.0591 28.6708 5.0591H23.0762C14.482 5.0591 7.49021 12.051 7.49021 20.6451V22.358C7.22951 22.296 6.95912 22.2598 6.67981 22.2598H5.60674C5.32728 22.2598 5.05689 22.296 4.79604 22.358V20.0676H4.79619ZM46.1405 34.7225H45.0675C44.6207 34.7225 44.2571 34.3588 44.2571 33.9118V25.7724C44.2571 25.3255 44.6208 24.9617 45.0675 24.9617H46.1405C46.5875 24.9617 46.9512 25.3255 46.9512 25.7724V33.7387C46.9414 33.8354 46.9278 33.973 46.9131 34.145C46.812 34.4779 46.5058 34.7225 46.1405 34.7225ZM46.7818 37.531C46.3487 38.9461 45.1194 39.9567 43.6605 40.1219C43.9327 39.2161 44.116 38.2758 44.2008 37.312C44.4786 37.3828 44.7677 37.4246 45.0673 37.4246H46.1404C46.3595 37.4246 46.573 37.4019 46.7809 37.3633C46.781 37.4187 46.7815 37.4748 46.7818 37.531ZM7.49066 25.7723V33.9117C7.49066 34.3587 7.12707 34.7224 6.68026 34.7224H5.60719C5.24194 34.7224 4.936 34.4779 4.83492 34.1452C4.81994 33.9731 4.80663 33.8357 4.79649 33.7389V26.309V25.7723C4.79649 25.3253 5.16023 24.9616 5.60719 24.9616H6.68026C7.12707 24.9617 7.49066 25.3253 7.49066 25.7723ZM3.78394 44.9604C4.72901 42.6565 4.96202 39.6913 4.96716 37.3635C5.17491 37.4019 5.3881 37.4247 5.60674 37.4247H6.67981C6.9794 37.4247 7.26855 37.383 7.54635 37.3122C7.76256 39.7714 8.61699 42.0788 9.96862 44.0414C7.50504 44.6378 5.3238 44.8736 3.78394 44.9604ZM10.1926 33.9118V25.7724V20.6448C10.1926 13.5406 15.9723 7.76099 23.0763 7.76099H28.6709C35.7751 7.76099 41.5547 13.5405 41.5547 20.6448V24.7911L35.5734 16.4176C35.3144 16.0549 34.8992 15.8412 34.4475 15.8521C34.0019 15.8609 33.5893 16.0888 33.3446 16.4615C27.8377 24.8495 20.0738 31.4227 10.8923 35.4706L10.1926 35.7791V33.9118ZM47.9359 62.1942V74.767H3.81284V62.1942C3.81284 56.4103 7.18064 51.258 12.2639 48.867V59.5319C12.2639 63.5191 15.5078 66.763 19.4951 66.763H32.253C36.2392 66.763 39.4823 63.5191 39.4823 59.5319V48.8664C44.5669 51.2572 47.9359 56.4098 47.9359 62.1942ZM25.8742 59.9109C25.1281 59.9109 24.5231 60.5159 24.5231 61.262V64.061H19.4948C16.9974 64.061 14.9658 62.0294 14.9658 59.5321V48.4897C15.6296 48.8404 16.3276 49.142 17.0561 49.3871L23.2809 51.4825C24.1167 51.764 24.9952 51.9045 25.8734 51.9045C26.7517 51.9045 27.6299 51.7638 28.4661 51.4825L34.6908 49.3871C35.4192 49.142 36.1164 48.8407 36.7799 48.4901V59.5318C36.7799 62.0291 34.7492 64.0607 32.2528 64.0607H27.2253V61.2617C27.2255 60.5157 26.6206 59.9109 25.8742 59.9109ZM40.7977 40.1486H31.0779C30.3315 40.1486 29.7269 40.7535 29.7269 41.4996C29.7269 42.2457 30.3317 42.8506 31.0779 42.8506H39.3081C37.9609 44.6595 36.0747 46.07 33.8288 46.826L27.6041 48.9215C26.488 49.2969 25.259 49.297 24.1432 48.9215L17.9184 46.826C14.1179 45.5466 11.3451 42.3964 10.4793 38.6057L11.9825 37.943C21.0434 33.9482 28.7918 27.616 34.4991 19.5626L41.5546 29.4401V36.0737H41.5547C41.5547 37.4978 41.2881 38.8741 40.7977 40.1486ZM41.7787 44.0411C42.0433 43.6566 42.2901 43.26 42.5157 42.8505H43.2394C44.6656 42.8505 46.0001 42.3823 47.0791 41.5763C47.2607 42.7603 47.5416 43.9282 47.9665 44.9626C46.4291 44.8769 44.2498 44.641 41.7787 44.0411Z" fill="black"/>
</svg>
