<svg width="70" height="37" viewBox="0 0 70 37" fill="none" xmlns="http://www.w3.org/2000/svg">
<path d="M69.5223 17.3391C69.2953 16.9385 68.8702 16.6907 68.4097 16.6907H62.8744V14.0996C62.8744 13.3933 62.3018 12.8207 61.5955 12.8207H57.7055V7.71835C57.7055 7.01208 57.1329 6.43945 56.4266 6.43945H51.3643V1.2789C51.3643 0.57263 50.7916 0 50.0854 0H37.3495C36.6433 0 36.0706 0.57263 36.0706 1.2789V6.43945H31.0083C30.302 6.43945 29.7294 7.01208 29.7294 7.71835V12.8207H25.8394C25.1331 12.8207 24.5605 13.3933 24.5605 14.0996V19.1486H19.3916V5.16054C19.3916 4.45427 18.819 3.88164 18.1127 3.88164H2.76588C2.05961 3.88164 1.48698 4.45427 1.48698 5.16054V19.1486H1.27899C0.819388 19.1486 0.395112 19.3951 0.167626 19.7946C-0.0598589 20.1939 -0.0555426 20.6847 0.178977 21.0799L7.95312 34.1862C8.91597 35.7903 11.053 37 12.9237 37H55.2168C57.0877 37 59.2247 35.7903 60.1882 34.1853L69.507 18.6269C69.7436 18.2318 69.7495 17.7399 69.5223 17.3391ZM60.3166 16.6907H51.3643V15.3785H60.3166V16.6907ZM48.8064 15.3785V16.7076C46.663 16.8776 45.1354 18.3197 44.4256 19.1487H38.6286V15.3787H48.8064V15.3785ZM55.1477 12.8207H44.9165V8.99726H55.1477V12.8207ZM38.6286 2.55781H48.8066V6.43945H38.6286V2.55781ZM32.2873 8.99726H42.3587V12.8207H32.2873V8.99726ZM27.1185 15.3785H36.0708V19.1486H27.1185V15.3785ZM4.04479 6.43945H16.8338V8.90406H14.276C13.5697 8.90406 12.9971 9.47669 12.9971 10.183C12.9971 10.8892 13.5697 11.4619 14.276 11.4619H16.8338V14.0596H14.276C13.5697 14.0596 12.9971 14.6323 12.9971 15.3385C12.9971 16.0448 13.5697 16.6175 14.276 16.6175H16.8338V19.1486H4.04479V6.43945ZM57.9944 32.8699C57.5004 33.6927 56.1766 34.4422 55.2168 34.4422H12.9239C11.9642 34.4422 10.6403 33.6927 10.1496 32.8755L3.52459 21.7064H18.1127H45.0497C45.4754 21.7064 45.8771 21.4888 46.1147 21.1355C46.1275 21.1166 47.4048 19.2485 49.2235 19.2485H61.3821C61.4516 19.2601 61.5226 19.2677 61.5953 19.2677C61.6681 19.2677 61.7391 19.2601 61.8086 19.2485H66.1527L57.9944 32.8699Z" fill="black"/>
<path d="M10.4392 8.90454C10.1019 8.90454 9.77255 9.04042 9.53436 9.27862C9.29616 9.51682 9.16028 9.84613 9.16028 10.1834C9.16028 10.5192 9.29616 10.8485 9.53436 11.0867C9.77255 11.3249 10.1019 11.4624 10.4392 11.4624C10.7765 11.4624 11.1058 11.3249 11.344 11.0867C11.5822 10.8485 11.7181 10.5192 11.7181 10.1834C11.7181 9.84613 11.5822 9.51682 11.344 9.27862C11.1058 9.04042 10.7765 8.90454 10.4392 8.90454Z" fill="black"/>
<path d="M6.65537 8.90454C6.31966 8.90454 5.98874 9.04042 5.75214 9.27862C5.51395 9.51682 5.37646 9.84613 5.37646 10.1834C5.37646 10.5192 5.51395 10.8485 5.75214 11.0867C5.99034 11.3249 6.31966 11.4624 6.65537 11.4624C6.99268 11.4624 7.322 11.3249 7.5602 11.0867C7.79839 10.8485 7.93427 10.5192 7.93427 10.1834C7.93427 9.84613 7.79839 9.51682 7.5602 9.27862C7.322 9.04042 6.99268 8.90454 6.65537 8.90454Z" fill="black"/>
<path d="M10.4392 14.0601C10.1019 14.0601 9.77255 14.1959 9.53436 14.4341C9.29616 14.6723 9.16028 15.0017 9.16028 15.339C9.16028 15.6747 9.29616 16.004 9.53436 16.2422C9.77255 16.4804 10.1019 16.6179 10.4392 16.6179C10.7765 16.6179 11.1058 16.4804 11.344 16.2422C11.5822 16.004 11.7181 15.6747 11.7181 15.339C11.7181 15.0017 11.5822 14.6723 11.344 14.4341C11.1058 14.1959 10.7765 14.0601 10.4392 14.0601Z" fill="black"/>
<path d="M6.65537 14.0601C6.31966 14.0601 5.99034 14.1959 5.75214 14.4341C5.51395 14.6723 5.37646 15.0017 5.37646 15.339C5.37646 15.6747 5.51395 16.004 5.75214 16.2422C5.99034 16.4804 6.31966 16.6179 6.65537 16.6179C6.99268 16.6179 7.322 16.4804 7.5602 16.2422C7.79839 16.004 7.93427 15.6747 7.93427 15.339C7.93427 15.0017 7.79839 14.6723 7.5602 14.4341C7.322 14.1959 6.99268 14.0601 6.65537 14.0601Z" fill="black"/>
<path d="M19.4205 24.3044C19.0848 24.3044 18.7555 24.4403 18.5173 24.6785C18.2791 24.9167 18.1416 25.246 18.1416 25.5833C18.1416 25.9191 18.2791 26.25 18.5173 26.4882C18.7539 26.7264 19.0848 26.8623 19.4205 26.8623C19.7578 26.8623 20.0871 26.7264 20.3253 26.4882C20.5635 26.25 20.6994 25.9207 20.6994 25.5833C20.6994 25.246 20.5635 24.9167 20.3253 24.6785C20.0871 24.4405 19.7578 24.3044 19.4205 24.3044Z" fill="black"/>
<path d="M24.5473 24.3044C24.21 24.3044 23.8807 24.4403 23.6425 24.6785C23.4043 24.9167 23.2684 25.246 23.2684 25.5833C23.2684 25.9207 23.4043 26.25 23.6425 26.4882C23.8807 26.7264 24.2116 26.8623 24.5473 26.8623C24.8846 26.8623 25.214 26.7264 25.4522 26.4882C25.6904 26.25 25.8262 25.9207 25.8262 25.5833C25.8262 25.246 25.6904 24.9167 25.4522 24.6785C25.214 24.4405 24.8846 24.3044 24.5473 24.3044Z" fill="black"/>
<path d="M29.6742 24.3044C29.3369 24.3044 29.0075 24.4403 28.7693 24.6785C28.5311 24.9167 28.3953 25.2476 28.3953 25.5833C28.3953 25.9191 28.5311 26.25 28.7693 26.4882C29.0075 26.7264 29.3369 26.8623 29.6742 26.8623C30.0099 26.8623 30.3392 26.7264 30.5774 26.4882C30.8156 26.25 30.9531 25.9191 30.9531 25.5833C30.9531 25.2476 30.8156 24.9167 30.5774 24.6785C30.3392 24.4405 30.0099 24.3044 29.6742 24.3044Z" fill="black"/>
<path d="M34.7993 24.3044C34.4636 24.3044 34.1327 24.4403 33.8961 24.6785C33.6579 24.9167 33.5204 25.246 33.5204 25.5833C33.5204 25.9207 33.6579 26.25 33.8961 26.4882C34.1327 26.7264 34.4636 26.8623 34.7993 26.8623C35.1366 26.8623 35.4659 26.7264 35.7041 26.4882C35.9423 26.25 36.0782 25.9207 36.0782 25.5833C36.0782 25.246 35.9423 24.9167 35.7041 24.6785C35.4659 24.4405 35.1366 24.3044 34.7993 24.3044Z" fill="black"/>
<path d="M39.9261 24.3044C39.5904 24.3044 39.2595 24.4403 39.0213 24.6785C38.7831 24.9167 38.6472 25.246 38.6472 25.5833C38.6472 25.9207 38.7831 26.25 39.0213 26.4882C39.2595 26.7264 39.5904 26.8623 39.9261 26.8623C40.2634 26.8623 40.5927 26.7264 40.8309 26.4882C41.0691 26.25 41.205 25.9207 41.205 25.5833C41.205 25.246 41.0691 24.9167 40.8309 24.6785C40.5927 24.4405 40.2634 24.3044 39.9261 24.3044Z" fill="black"/>
<path d="M45.053 24.3044C44.7156 24.3044 44.3863 24.4403 44.1481 24.6785C43.9099 24.9167 43.774 25.246 43.774 25.5833C43.774 25.9207 43.9099 26.25 44.1481 26.4882C44.3863 26.7264 44.7156 26.8623 45.053 26.8623C45.3887 26.8623 45.718 26.7264 45.9562 26.4882C46.1944 26.25 46.3319 25.9207 46.3319 25.5833C46.3319 25.246 46.1944 24.9167 45.9562 24.6785C45.718 24.4405 45.3887 24.3044 45.053 24.3044Z" fill="black"/>
</svg>
