<svg width="62" height="76" viewBox="0 0 62 76" fill="none" xmlns="http://www.w3.org/2000/svg">
<path d="M9.78068 63.1666C9.78068 66.5373 12.5228 69.2794 15.8935 69.2794C19.2643 69.2794 22.0064 66.5373 22.0064 63.1666C22.0064 59.7958 19.2643 57.0537 15.8935 57.0537C12.5228 57.0536 9.78068 59.7958 9.78068 63.1666ZM19.5612 63.1666C19.5612 65.1889 17.916 66.8343 15.8935 66.8343C13.8711 66.8343 12.2258 65.1889 12.2258 63.1666C12.2258 61.1442 13.8711 59.4988 15.8935 59.4988C17.916 59.4987 19.5612 61.1441 19.5612 63.1666Z" fill="black"/>
<path d="M59.9063 30.972H41.5676V7.74299C41.5676 7.0676 41.0205 6.52042 40.3451 6.52042H17.5237C16.8484 6.52042 16.3011 7.0676 16.3011 7.74299V9.68166L6.97741 0.357977C6.49996 -0.119326 5.72582 -0.119326 5.24852 0.357977L0.358088 5.24826C-0.119363 5.72585 -0.119363 6.49984 0.358088 6.97729L9.78052 16.3997V46.8654C9.78052 47.5408 10.3279 48.0879 11.0031 48.0879C11.6783 48.0879 12.2257 47.5408 12.2257 46.8654V15.8936C12.2257 15.5693 12.0969 15.2584 11.8675 15.029L2.95142 6.11285L6.11281 2.95146L16.3009 13.1396V50.5434C16.1653 50.539 16.03 50.5332 15.8934 50.5332C8.92733 50.5332 3.2601 56.2005 3.2601 63.1665C3.2601 70.1325 8.92748 75.7999 15.8935 75.7999C21.2814 75.7999 25.8895 72.4085 27.7023 67.6494H53.3859C54.0613 67.6494 54.6085 67.1022 54.6085 66.4268V59.9064C54.6085 59.231 54.0613 58.6838 53.3859 58.6838H27.7023C26.2198 54.7915 22.8665 51.8171 18.7462 50.862V33.4171H34.2322V43.6052C34.2322 44.2806 34.7794 44.8278 35.4548 44.8278H41.9752C42.6506 44.8278 43.1978 44.2806 43.1978 43.6052V33.4171H58.6838V59.9064C58.6838 60.5818 59.2309 61.1289 59.9063 61.1289C60.5817 61.1289 61.1289 60.5818 61.1289 59.9064V32.1945C61.1289 31.5193 60.5816 30.972 59.9063 30.972ZM28.3601 61.1289H52.1633V65.2042H28.3601C28.4682 64.5404 28.5266 63.8604 28.5266 63.1666C28.5266 62.4728 28.4682 61.7928 28.3601 61.1289ZM26.0817 63.1666C26.0817 68.7844 21.5112 73.3548 15.8935 73.3548C10.2759 73.3548 5.70539 68.7843 5.70539 63.1666C5.70539 57.549 10.2759 52.9785 15.8935 52.9785C21.5112 52.9784 26.0817 57.5487 26.0817 63.1666ZM26.8968 8.96556H30.9721V17.9311H26.8968V8.96556ZM18.7462 30.972V12.6333V8.96556H24.4517V19.1537C24.4517 19.8291 24.999 20.3763 25.6742 20.3763H32.1946C32.87 20.3763 33.4172 19.8291 33.4172 19.1537V8.96556H39.1226V30.972H18.7462ZM40.7526 42.3828H36.6774V33.4171H40.3451H40.7526V42.3828Z" fill="black"/>
</svg>
