<svg width="69" height="52" viewBox="0 0 69 52" fill="none" xmlns="http://www.w3.org/2000/svg">
<path d="M67.9649 26.3391L58.9214 16.1652C58.8084 15.9391 58.4692 15.8261 58.1301 15.8261H50.2171V1.13044C50.2171 0.452174 49.7649 0 49.0866 0H23.0866V2.26087H47.9562V16.9565V33.9131H21.9562V36.1739H47.9562V40.6957H25.3475V42.9565H49.0866C49.7649 42.9565 50.2171 42.5044 50.2171 41.8261V35.0435V18.087H57.6779L64.6866 26H56.9997V28.2609H66.0432V41.8261H68.304V27.1305C68.304 26.7913 68.191 26.5652 67.9649 26.3391Z" fill="black"/>
<path d="M16.3042 38.4348C12.5738 38.4348 9.52161 41.487 9.52161 45.2174C9.52161 48.9479 12.5738 52 16.3042 52C20.0347 52 23.0868 48.9479 23.0868 45.2174C23.0868 41.487 20.0347 38.4348 16.3042 38.4348ZM16.3042 49.7392C13.8173 49.7392 11.7825 47.7044 11.7825 45.2174C11.7825 42.7305 13.8173 40.6957 16.3042 40.6957C18.7912 40.6957 20.826 42.7305 20.826 45.2174C20.826 47.7044 18.7912 49.7392 16.3042 49.7392Z" fill="black"/>
<path d="M58.1303 38.4348C54.3998 38.4348 51.3477 41.487 51.3477 45.2174C51.3477 48.9479 54.3998 52 58.1303 52C61.8607 52 64.9129 48.9479 64.9129 45.2174C64.9129 41.487 61.8607 38.4348 58.1303 38.4348ZM58.1303 49.7392C55.6433 49.7392 53.6085 47.7044 53.6085 45.2174C53.6085 42.7305 55.6433 40.6957 58.1303 40.6957C60.6172 40.6957 62.652 42.7305 62.652 45.2174C62.652 47.7044 60.6172 49.7392 58.1303 49.7392Z" fill="black"/>
<path d="M60.3911 31.6521H56.9998V33.913H60.3911V31.6521Z" fill="black"/>
<path d="M16.3041 47.4783C17.5527 47.4783 18.565 46.4661 18.565 45.2174C18.565 43.9688 17.5527 42.9565 16.3041 42.9565C15.0554 42.9565 14.0432 43.9688 14.0432 45.2174C14.0432 46.4661 15.0554 47.4783 16.3041 47.4783Z" fill="black"/>
<path d="M58.1301 47.4783C59.3788 47.4783 60.391 46.4661 60.391 45.2174C60.391 43.9688 59.3788 42.9565 58.1301 42.9565C56.8815 42.9565 55.8693 43.9688 55.8693 45.2174C55.8693 46.4661 56.8815 47.4783 58.1301 47.4783Z" fill="black"/>
<path d="M7.26064 40.6956H0.478027V42.9564H7.26064V40.6956Z" fill="black"/>
<path d="M19.6954 0H0.478027V2.26087H19.6954V0Z" fill="black"/>
<path d="M25.3477 9.04346H3.86938V11.3043H25.3477V9.04346Z" fill="black"/>
<path d="M34.3911 18.0869H12.9128V20.3478H34.3911V18.0869Z" fill="black"/>
<path d="M16.3041 28.261H0.478027V30.5219H16.3041V28.261Z" fill="black"/>
<path d="M9.52138 18.0869H4.99963V20.3478H9.52138V18.0869Z" fill="black"/>
</svg>
