<svg width="63" height="63" viewBox="0 0 63 63" fill="none" xmlns="http://www.w3.org/2000/svg">
<path d="M59.8492 50.6093C59.6391 50.5044 59.3241 50.2944 59.1142 50.1894C57.2848 49.2581 55.3916 48.4222 53.4425 47.6772C53.3334 47.5306 53.1949 47.4113 53.0244 47.3544C50.6093 46.5144 47.9844 45.6745 45.3595 45.0445C45.1982 45.0041 45.0215 45.0107 44.853 45.0573C43.5708 44.7557 42.2708 44.487 40.9548 44.2496C41.0108 43.8566 41.0464 43.4566 41.0545 43.0495V40.274C45.483 36.367 48.2207 30.0534 48.0894 24.1497V18.9539C48.1606 18.9026 48.2308 18.8497 48.2994 18.7948C49.6644 17.6398 50.3994 15.9598 50.3994 14.2799C50.3993 6.40487 43.9944 0 36.2245 0H26.8796C19.0047 0 12.5998 6.40487 12.4947 14.1748C12.4947 15.9598 13.2297 17.5348 14.5948 18.6897C14.6291 18.7162 14.6649 18.7408 14.6997 18.7665V24.1496C14.6997 30.1042 17.5354 36.4749 22.0496 40.3736V43.0493C22.0496 43.4161 22.0722 43.777 22.1121 44.1324C15.5784 45.3051 9.43966 47.2562 3.88478 50.0842L3.14983 50.5041C1.15503 51.4493 0 53.4443 0 55.6493V61.9492C0 62.5792 0.419953 62.9991 1.04994 62.9991H11.5498H51.4493H61.9491C62.5791 62.9991 62.999 62.5792 62.999 62.0542V55.7542C62.9991 53.6542 61.7392 51.6593 59.8492 50.6093ZM45.7793 54.5992H41.6844L45.7451 47.3106C47.5047 47.7565 49.2258 48.2708 50.9019 48.8493L45.7793 54.5992ZM46.9344 17.1147C46.9068 17.1388 46.878 17.1612 46.8498 17.1845C46.7318 17.2119 46.6173 17.2561 46.5144 17.3248C46.0601 17.6655 45.5751 17.8822 45.0761 17.9773C44.6804 18.0379 44.2778 18.0325 43.8895 17.9548C36.3587 16.5248 28.7415 16.3933 21.4305 17.5598C20.6192 17.677 19.8104 17.8082 19.0048 17.9548C18.8755 17.9692 18.7462 17.977 18.6171 17.9796C17.773 17.9645 16.955 17.73 16.2748 17.2198C15.6448 16.7999 15.2249 16.1699 15.0148 15.5399L19.5297 14.6998C27.4046 13.2298 35.4896 13.2298 43.5744 14.6998L48.0541 15.5332C47.8216 16.1277 47.4344 16.6772 46.9344 17.1147ZM26.7746 2.10001H36.1195C42.5601 2.10001 47.8423 7.11558 48.2705 13.4488L43.8895 12.7049C35.5946 11.2349 27.1947 11.2349 19.1098 12.7049L14.7288 13.4488C15.1566 7.11558 20.4347 2.10001 26.7746 2.10001ZM16.7997 24.1497V19.8447C17.6398 20.0548 18.5847 20.1597 19.5297 19.9497C23.4501 19.2179 27.4223 18.8506 31.4208 18.8474C35.4198 18.8506 39.4446 19.2178 43.4694 19.9497C43.7562 20.0214 43.9937 20.0437 44.216 20.051C44.877 20.101 45.5678 20.0026 46.1993 19.8447V24.1497C46.1993 33.9414 39.0178 41.4026 32.3054 41.9642C32.2296 41.9702 32.1537 41.9766 32.0779 41.9809C32.0251 41.9841 31.9723 41.9867 31.9195 41.989C31.7792 41.995 31.6392 41.9995 31.4994 41.9995C31.3595 41.9995 31.2191 41.995 31.0786 41.989C31.0269 41.9867 30.9753 41.9842 30.9235 41.981C30.8423 41.9764 30.7608 41.9696 30.6795 41.963C29.327 41.8479 27.9559 41.4538 26.6283 40.8162C26.6171 40.8106 26.6057 40.8058 26.5945 40.8002C26.5865 40.7962 26.5785 40.7921 26.5705 40.7882C25.6183 40.3123 24.6971 39.6994 23.8346 38.9545C23.7422 38.8929 23.6314 38.8407 23.5134 38.8024C19.6882 35.6323 16.7997 30.3594 16.7997 24.1497ZM30.9943 44.0889C31.0065 44.0894 31.0187 44.0904 31.0309 44.0908C31.1864 44.0963 31.3426 44.0993 31.4994 44.0993C31.6563 44.0993 31.8125 44.0962 31.968 44.0908C31.9802 44.0903 31.9925 44.0894 32.0047 44.0889C34.4902 43.9943 36.7997 43.2047 38.8493 41.9232V43.0493C38.8493 47.1443 35.5944 50.3992 31.4994 50.3992C27.4045 50.3992 24.1496 47.1443 24.1496 43.0493V41.9259C26.2024 43.206 28.5106 43.9944 30.9943 44.0889ZM22.8272 46.8282C22.8472 46.8736 22.8675 46.9186 22.8881 46.9635C23.3194 47.9191 23.9039 48.7878 24.612 49.5395C24.6491 49.5792 24.6867 49.6185 24.7245 49.6575C24.7699 49.7041 24.8154 49.7505 24.8618 49.7961C24.9429 49.8764 25.0254 49.955 25.1093 50.032C25.1194 50.0412 25.1291 50.0508 25.1394 50.0601C26.5883 51.3808 28.4373 52.2327 30.4862 52.4453C30.5189 52.4487 30.5519 52.4517 30.5847 52.4549C30.7005 52.4657 30.8169 52.4745 30.9339 52.4811C30.9729 52.4833 31.0118 52.486 31.0509 52.4879C31.1997 52.4946 31.3491 52.4991 31.4997 52.4991C31.6503 52.4991 31.8 52.4946 31.9492 52.4879C31.9873 52.4862 32.0251 52.4834 32.0631 52.4814C32.1834 52.4745 32.3032 52.4655 32.4223 52.4544C32.4503 52.4517 32.4785 52.4492 32.5064 52.4463C35.5046 52.139 38.1228 50.4725 39.6089 47.9775C39.6181 47.9625 39.6271 47.9473 39.6362 47.9323C39.6549 47.9004 39.6737 47.8686 39.692 47.8365C39.9981 47.3226 40.2579 46.7776 40.466 46.2064C41.4998 46.3766 42.5216 46.5736 43.5326 46.7916L39.2428 54.5991H23.6985L19.4151 46.8032C20.4564 46.5772 21.5092 46.3739 22.5747 46.1993C22.6337 46.3624 22.6979 46.5224 22.7646 46.6809C22.7849 46.7304 22.8061 46.7792 22.8272 46.8282ZM12.1896 48.8355C13.8658 48.2502 15.5874 47.7349 17.3467 47.2896L21.3147 54.5992H17.2198L12.1896 48.8355ZM2.10001 55.6493C2.10001 54.2843 2.83496 53.0244 4.09494 52.3944L4.82989 51.9744C6.49715 51.1244 8.22569 50.3458 10.0087 49.6447L14.5762 54.7278C12.218 55.2489 10.4997 57.3141 10.4997 59.8493V60.8992H2.10001V55.6493ZM12.5998 60.8991V59.8492C12.5998 58.0642 13.9648 56.6992 15.7498 56.6992H16.7997H23.0996H39.8994H46.1993H47.2494C49.0344 56.6992 50.3993 58.0642 50.3993 59.8492V60.8991H12.5998ZM60.8991 60.8991H52.4992V59.8492C52.4992 57.2858 50.743 55.202 48.3443 54.71L52.9429 49.5921C54.7427 50.2825 56.4871 51.0447 58.1691 51.8692C58.3792 52.0792 58.6942 52.1842 58.9041 52.2892C60.1641 53.0241 60.899 54.2841 60.899 55.6492V60.8991H60.8991Z" fill="black"/>
<path d="M26.2496 9.44982H36.7494C37.3794 9.44982 37.7994 9.02986 37.7994 8.39987V4.19985C37.7994 3.56986 37.3794 3.1499 36.7494 3.1499H26.2496C25.6196 3.1499 25.1997 3.56986 25.1997 4.19985V8.39975C25.1997 9.02986 25.6196 9.44982 26.2496 9.44982ZM27.2997 5.24991H35.6996V7.34993H27.2997V5.24991Z" fill="black"/>
<path d="M19.9497 57.7493C19.3197 57.7493 18.8997 58.1692 18.8997 58.7992C18.8997 59.4292 19.3197 59.8492 19.9497 59.8492C20.5797 59.8492 20.9996 59.4292 20.9996 58.7992C20.9996 58.1692 20.5797 57.7493 19.9497 57.7493Z" fill="black"/>
<path d="M43.0495 57.7493C42.4195 57.7493 41.9995 58.1692 41.9995 58.7992C41.9995 59.4292 42.4195 59.8492 43.0495 59.8492C43.6794 59.8492 44.0994 59.4292 44.0994 58.7992C44.0994 58.1692 43.6794 57.7493 43.0495 57.7493Z" fill="black"/>
</svg>
