<svg width="213" height="83" viewBox="0 0 213 83" fill="none" xmlns="http://www.w3.org/2000/svg">
<path d="M81.4979 74.2504L74.2248 66.9756C79.7161 59.9381 83 51.0986 83 41.5C83 18.6175 64.3825 0 41.5 0C18.6175 0 0 18.6175 0 41.5C0 64.3825 18.6175 83 41.5 83C51.0986 83 59.9381 79.7161 66.9756 74.2248L74.2501 81.4993C75.2195 82.4673 76.5059 83 77.8742 83C80.7015 83 83 80.7015 83 77.8742C83 76.5059 82.4673 75.2181 81.4979 74.2504ZM73.3576 63.649C72.3092 62.8779 70.5434 61.768 67.882 60.6342L62.4416 55.1938C63.5206 51.2552 64.1095 47.1094 64.2127 42.8387H80.2894C80.0257 50.5563 77.5034 57.7051 73.3576 63.649ZM80.2891 40.1615H64.2259V40.1613C64.0825 34.2575 63.0131 29.0539 61.4025 24.5265C67.8913 22.8465 71.6235 20.6349 73.3612 19.3566C77.5045 25.2991 80.0254 32.4465 80.2891 40.1615ZM53.1146 45.8668C53.6996 44.9017 54.2202 43.8949 54.6487 42.8387H61.5349C61.4467 46.3315 61.0129 49.7303 60.2364 52.9889L53.1146 45.8668ZM54.3327 50.8712L50.8709 54.333L48.1051 51.5672C49.3876 50.5484 50.547 49.3879 51.567 48.1054L54.3327 50.8712ZM55.5202 40.1613C55.9647 38.4464 56.2258 36.6578 56.2258 34.8063C56.2258 31.6349 55.5149 28.6336 54.2725 25.9226C55.8831 25.6949 57.3849 25.4326 58.7759 25.1408C60.3477 29.4744 61.4025 34.4704 61.5484 40.1613H55.5202ZM71.7509 17.2065C70.2395 18.3068 66.7226 20.41 60.4228 22.0085C56.4012 12.454 50.1214 6.22504 46.0689 2.95467C56.4187 4.17533 65.5312 9.47686 71.7509 17.2065ZM42.8387 3.83685C46.2778 6.33749 53.3704 12.4273 57.776 22.6135C56.2874 22.9174 54.6622 23.1825 52.9071 23.406C50.5257 19.6374 47.0141 16.6603 42.8387 14.9628V3.83685ZM36.8614 2.96394C33.8398 5.38165 29.6136 9.42598 25.9735 15.3148C23.1288 16.6094 20.6186 18.5022 18.5998 20.8395C14.7458 19.4997 12.4085 18.0578 11.2452 17.209C17.4528 9.49542 26.54 4.19951 36.8614 2.96394ZM40.1613 3.83151V14.0927C38.4464 13.6483 36.6578 13.3871 34.8063 13.3871C33.1999 13.3871 31.6416 13.5785 30.1356 13.9159C33.833 8.82745 37.8332 5.51154 40.1613 3.83151ZM9.6402 19.3541C10.9092 20.2857 13.2333 21.7169 16.9054 23.077C14.6884 26.4489 13.3871 30.4772 13.3871 34.8066C13.3871 36.6581 13.6483 38.4467 14.0927 40.1615H2.71093C2.97463 32.4465 5.49692 25.298 9.6402 19.3541ZM2.71093 42.8387H14.9642C15.9923 45.3703 17.493 47.6567 19.3538 49.5993C19.8452 52.807 20.6054 55.7561 21.5533 58.4642C15.0699 60.1428 11.3736 62.3598 9.63739 63.6409C5.49551 57.6984 2.97463 50.5524 2.71093 42.8387ZM11.2412 65.7828C12.7405 64.6811 16.2133 62.5765 22.5078 60.9837C26.4945 70.6011 32.7515 76.7792 36.8333 80.0321C26.5198 78.7898 17.4421 73.4939 11.2412 65.7828ZM40.1613 79.1631C36.7169 76.665 29.6015 70.5713 25.1984 60.373C29.1933 59.5659 34.1358 58.9916 40.1613 58.9165V79.1631ZM40.1615 56.239C33.7237 56.318 28.4545 56.9525 24.1962 57.8468C23.5746 56.1322 23.0366 54.3113 22.6028 52.3864C26.0688 54.8002 30.2723 56.2258 34.8066 56.2258C36.6581 56.2258 38.4467 55.9647 40.1615 55.5202V56.239ZM34.8066 53.5486C24.4717 53.5486 16.0646 45.1415 16.0646 34.8066C16.0646 24.4717 24.4717 16.0646 34.8066 16.0646C45.1415 16.0646 53.5486 24.4717 53.5486 34.8066C53.5486 45.1415 45.1415 53.5486 34.8066 53.5486ZM42.8387 54.6487C43.8949 54.2188 44.9017 53.6996 45.8668 53.1146L49.2845 56.5323C47.2013 56.3675 45.0487 56.2725 42.8385 56.2444C42.8387 56.2447 42.8387 54.6487 42.8387 54.6487ZM42.8387 58.9219C46.1279 58.9646 49.2912 59.1588 52.2619 59.5094L56.2981 63.5456C51.9285 71.8496 45.9177 76.9419 42.8387 79.1657V58.9219ZM46.1454 80.0347C49.5257 77.3319 54.4066 72.5887 58.2767 65.5245L65.0707 72.3185C59.6919 76.4429 53.2085 79.1887 46.1454 80.0347ZM67.1471 70.609L52.764 56.2258L56.2258 52.764L70.609 67.1471C69.5286 68.372 68.372 69.5286 67.1471 70.609ZM77.8742 80.3225C77.2208 80.3225 76.6063 80.0681 76.1433 79.6051L69.0428 72.5046C70.2637 71.4189 71.4189 70.2637 72.5046 69.0428L79.6051 76.1433C80.0684 76.6066 80.3225 77.2208 80.3225 77.8742C80.3225 79.225 79.225 80.3225 77.8742 80.3225Z" fill="#DAD7D7"/>
<path d="M34.8066 18.7418C25.9482 18.7418 18.742 25.9482 18.742 34.8066C18.742 43.665 25.9482 50.8709 34.8066 50.8709C43.6649 50.8709 50.8711 43.6647 50.8711 34.8063C50.8711 25.9479 43.6649 18.7418 34.8066 18.7418ZM40.1615 47.0678C38.5203 47.788 36.7104 48.1937 34.8066 48.1937C32.9028 48.1937 31.0929 47.788 29.4516 47.0678V44.1775C29.4516 41.2242 31.8533 38.8225 34.8066 38.8225C37.7598 38.8225 40.1615 41.2242 40.1615 44.1775V47.0678ZM30.7904 30.7904C30.7904 28.5762 32.5924 26.7742 34.8066 26.7742C37.0207 26.7742 38.8228 28.5762 38.8228 30.7904C38.8228 33.0046 37.0207 34.8066 34.8066 34.8066C32.5924 34.8066 30.7904 33.0046 30.7904 30.7904ZM42.8387 45.4906V44.1775C42.8387 40.8132 40.7569 37.9297 37.8158 36.7357C39.9912 35.6286 41.5 33.3931 41.5 30.7904C41.5 27.0994 38.4972 24.0967 34.8063 24.0967C31.1153 24.0967 28.1129 27.0994 28.1129 30.7904C28.1129 33.3928 29.6217 35.6286 31.7971 36.7357C28.8559 37.9299 26.7741 40.8135 26.7741 44.1775V45.4906C23.5305 43.0448 21.4192 39.1734 21.4192 34.8063C21.4192 27.4247 27.4247 21.4192 34.8066 21.4192C42.1882 21.4192 48.1937 27.4247 48.1937 34.8063C48.1937 39.1731 46.0824 43.0448 42.8387 45.4906Z" fill="#DAD7D7"/>
<path d="M120.598 45.4531H125.27C125.176 46.9844 124.754 48.3438 124.004 49.5312C123.265 50.7188 122.228 51.6458 120.895 52.3125C119.572 52.9792 117.978 53.3125 116.114 53.3125C114.655 53.3125 113.348 53.0625 112.192 52.5625C111.036 52.0521 110.046 51.3229 109.223 50.375C108.411 49.4271 107.791 48.2812 107.364 46.9375C106.937 45.5938 106.723 44.0885 106.723 42.4219V40.8438C106.723 39.1771 106.942 37.6719 107.379 36.3281C107.827 34.974 108.463 33.8229 109.286 32.875C110.119 31.9271 111.114 31.1979 112.27 30.6875C113.426 30.1771 114.718 29.9219 116.145 29.9219C118.041 29.9219 119.64 30.2656 120.942 30.9531C122.254 31.6406 123.27 32.5885 123.989 33.7969C124.718 35.0052 125.155 36.3802 125.301 37.9219H120.614C120.562 37.0052 120.379 36.2292 120.067 35.5938C119.754 34.9479 119.28 34.4635 118.645 34.1406C118.02 33.8073 117.187 33.6406 116.145 33.6406C115.364 33.6406 114.681 33.7865 114.098 34.0781C113.515 34.3698 113.025 34.8125 112.629 35.4062C112.234 36 111.937 36.75 111.739 37.6562C111.551 38.5521 111.458 39.6042 111.458 40.8125V42.4219C111.458 43.599 111.546 44.6354 111.723 45.5312C111.9 46.4167 112.171 47.1667 112.536 47.7812C112.911 48.3854 113.39 48.8438 113.973 49.1562C114.567 49.4583 115.28 49.6094 116.114 49.6094C117.093 49.6094 117.9 49.4531 118.536 49.1406C119.171 48.8281 119.655 48.3646 119.989 47.75C120.333 47.1354 120.536 46.3698 120.598 45.4531ZM137.192 49.1875V41.6562C137.192 41.1146 137.103 40.651 136.926 40.2656C136.749 39.8698 136.473 39.5625 136.098 39.3438C135.734 39.125 135.26 39.0156 134.676 39.0156C134.176 39.0156 133.744 39.1042 133.379 39.2812C133.015 39.4479 132.734 39.6927 132.536 40.0156C132.338 40.3281 132.239 40.6979 132.239 41.125H127.739C127.739 40.4062 127.905 39.724 128.239 39.0781C128.572 38.4323 129.056 37.8646 129.692 37.375C130.327 36.875 131.083 36.4844 131.958 36.2031C132.843 35.9219 133.833 35.7812 134.926 35.7812C136.239 35.7812 137.405 36 138.426 36.4375C139.447 36.875 140.249 37.5312 140.833 38.4062C141.426 39.2812 141.723 40.375 141.723 41.6875V48.9219C141.723 49.849 141.78 50.6094 141.895 51.2031C142.01 51.7865 142.176 52.2969 142.395 52.7344V53H137.848C137.629 52.5417 137.463 51.9688 137.348 51.2812C137.244 50.5833 137.192 49.8854 137.192 49.1875ZM137.786 42.7031L137.817 45.25H135.301C134.708 45.25 134.192 45.3177 133.754 45.4531C133.317 45.5885 132.958 45.7812 132.676 46.0312C132.395 46.2708 132.187 46.5521 132.051 46.875C131.926 47.1979 131.864 47.5521 131.864 47.9375C131.864 48.3229 131.952 48.6719 132.129 48.9844C132.306 49.2865 132.562 49.526 132.895 49.7031C133.228 49.8698 133.619 49.9531 134.067 49.9531C134.744 49.9531 135.333 49.8177 135.833 49.5469C136.333 49.276 136.718 48.9427 136.989 48.5469C137.27 48.151 137.416 47.776 137.426 47.4219L138.614 49.3281C138.447 49.7552 138.218 50.1979 137.926 50.6562C137.645 51.1146 137.286 51.5469 136.848 51.9531C136.411 52.349 135.885 52.6771 135.27 52.9375C134.655 53.1875 133.926 53.3125 133.083 53.3125C132.01 53.3125 131.036 53.099 130.161 52.6719C129.296 52.2344 128.609 51.6354 128.098 50.875C127.598 50.1042 127.348 49.2292 127.348 48.25C127.348 47.3646 127.515 46.5781 127.848 45.8906C128.181 45.2031 128.671 44.625 129.317 44.1562C129.973 43.6771 130.791 43.3177 131.77 43.0781C132.749 42.8281 133.885 42.7031 135.176 42.7031H137.786ZM149.692 39.7812V53H145.192V36.0938H149.426L149.692 39.7812ZM154.786 35.9844L154.708 40.1562C154.489 40.125 154.223 40.099 153.911 40.0781C153.609 40.0469 153.333 40.0312 153.083 40.0312C152.447 40.0312 151.895 40.1146 151.426 40.2812C150.968 40.4375 150.583 40.6719 150.27 40.9844C149.968 41.2969 149.739 41.6771 149.583 42.125C149.437 42.5729 149.353 43.0833 149.333 43.6562L148.426 43.375C148.426 42.2812 148.536 41.276 148.754 40.3594C148.973 39.4323 149.291 38.625 149.708 37.9375C150.135 37.25 150.655 36.7188 151.27 36.3438C151.885 35.9688 152.588 35.7812 153.379 35.7812C153.629 35.7812 153.885 35.8021 154.145 35.8438C154.405 35.875 154.619 35.9219 154.786 35.9844ZM161.411 39.7812V53H156.911V36.0938H161.145L161.411 39.7812ZM166.504 35.9844L166.426 40.1562C166.208 40.125 165.942 40.099 165.629 40.0781C165.327 40.0469 165.051 40.0312 164.801 40.0312C164.166 40.0312 163.614 40.1146 163.145 40.2812C162.687 40.4375 162.301 40.6719 161.989 40.9844C161.687 41.2969 161.458 41.6771 161.301 42.125C161.155 42.5729 161.072 43.0833 161.051 43.6562L160.145 43.375C160.145 42.2812 160.254 41.276 160.473 40.3594C160.692 39.4323 161.01 38.625 161.426 37.9375C161.853 37.25 162.374 36.7188 162.989 36.3438C163.603 35.9688 164.306 35.7812 165.098 35.7812C165.348 35.7812 165.603 35.8021 165.864 35.8438C166.124 35.875 166.338 35.9219 166.504 35.9844ZM176.098 53.3125C174.786 53.3125 173.609 53.1042 172.567 52.6875C171.525 52.2604 170.64 51.6719 169.911 50.9219C169.192 50.1719 168.64 49.3021 168.254 48.3125C167.869 47.3125 167.676 46.25 167.676 45.125V44.5C167.676 43.2188 167.859 42.0469 168.223 40.9844C168.588 39.9219 169.109 39 169.786 38.2188C170.473 37.4375 171.306 36.8385 172.286 36.4219C173.265 35.9948 174.369 35.7812 175.598 35.7812C176.796 35.7812 177.859 35.9792 178.786 36.375C179.713 36.7708 180.489 37.3333 181.114 38.0625C181.749 38.7917 182.228 39.6667 182.551 40.6875C182.874 41.6979 183.036 42.8229 183.036 44.0625V45.9375H169.598V42.9375H178.614V42.5938C178.614 41.9688 178.499 41.4115 178.27 40.9219C178.051 40.4219 177.718 40.026 177.27 39.7344C176.822 39.4427 176.249 39.2969 175.551 39.2969C174.958 39.2969 174.447 39.4271 174.02 39.6875C173.593 39.9479 173.244 40.3125 172.973 40.7812C172.713 41.25 172.515 41.8021 172.379 42.4375C172.254 43.0625 172.192 43.75 172.192 44.5V45.125C172.192 45.8021 172.286 46.4271 172.473 47C172.671 47.5729 172.947 48.0677 173.301 48.4844C173.666 48.901 174.103 49.224 174.614 49.4531C175.135 49.6823 175.723 49.7969 176.379 49.7969C177.192 49.7969 177.947 49.6406 178.645 49.3281C179.353 49.0052 179.963 48.5208 180.473 47.875L182.661 50.25C182.306 50.7604 181.822 51.25 181.208 51.7188C180.603 52.1875 179.874 52.5729 179.02 52.875C178.166 53.1667 177.192 53.3125 176.098 53.3125ZM190.098 39.7812V53H185.598V36.0938H189.833L190.098 39.7812ZM195.192 35.9844L195.114 40.1562C194.895 40.125 194.629 40.099 194.317 40.0781C194.015 40.0469 193.739 40.0312 193.489 40.0312C192.853 40.0312 192.301 40.1146 191.833 40.2812C191.374 40.4375 190.989 40.6719 190.676 40.9844C190.374 41.2969 190.145 41.6771 189.989 42.125C189.843 42.5729 189.76 43.0833 189.739 43.6562L188.833 43.375C188.833 42.2812 188.942 41.276 189.161 40.3594C189.379 39.4323 189.697 38.625 190.114 37.9375C190.541 37.25 191.062 36.7188 191.676 36.3438C192.291 35.9688 192.994 35.7812 193.786 35.7812C194.036 35.7812 194.291 35.8021 194.551 35.8438C194.812 35.875 195.025 35.9219 195.192 35.9844ZM206.458 48.3281C206.458 48.0052 206.364 47.7135 206.176 47.4531C205.989 47.1927 205.64 46.9531 205.129 46.7344C204.629 46.5052 203.905 46.2969 202.958 46.1094C202.103 45.9219 201.306 45.6875 200.567 45.4062C199.838 45.1146 199.202 44.7656 198.661 44.3594C198.129 43.9531 197.713 43.474 197.411 42.9219C197.109 42.3594 196.958 41.7188 196.958 41C196.958 40.2917 197.109 39.625 197.411 39C197.723 38.375 198.166 37.8229 198.739 37.3438C199.322 36.8542 200.03 36.474 200.864 36.2031C201.708 35.9219 202.655 35.7812 203.708 35.7812C205.176 35.7812 206.437 36.0156 207.489 36.4844C208.551 36.9531 209.364 37.599 209.926 38.4219C210.499 39.2344 210.786 40.1615 210.786 41.2031H206.286C206.286 40.7656 206.192 40.375 206.004 40.0312C205.827 39.6771 205.546 39.401 205.161 39.2031C204.786 38.9948 204.296 38.8906 203.692 38.8906C203.192 38.8906 202.76 38.9792 202.395 39.1562C202.03 39.3229 201.749 39.5521 201.551 39.8438C201.364 40.125 201.27 40.4375 201.27 40.7812C201.27 41.0417 201.322 41.276 201.426 41.4844C201.541 41.6823 201.723 41.8646 201.973 42.0312C202.223 42.1979 202.546 42.3542 202.942 42.5C203.348 42.6354 203.848 42.7604 204.442 42.875C205.661 43.125 206.749 43.4531 207.708 43.8594C208.666 44.2552 209.426 44.7969 209.989 45.4844C210.551 46.1615 210.833 47.0521 210.833 48.1562C210.833 48.9062 210.666 49.5938 210.333 50.2188C209.999 50.8438 209.52 51.3906 208.895 51.8594C208.27 52.3177 207.52 52.6771 206.645 52.9375C205.78 53.1875 204.806 53.3125 203.723 53.3125C202.15 53.3125 200.817 53.0312 199.723 52.4688C198.64 51.9062 197.817 51.1927 197.254 50.3281C196.702 49.4531 196.426 48.5573 196.426 47.6406H200.692C200.713 48.2552 200.869 48.75 201.161 49.125C201.463 49.5 201.843 49.7708 202.301 49.9375C202.77 50.1042 203.275 50.1875 203.817 50.1875C204.4 50.1875 204.885 50.1094 205.27 49.9531C205.655 49.7865 205.947 49.5677 206.145 49.2969C206.353 49.0156 206.458 48.6927 206.458 48.3281Z" fill="#DAD7D7"/>
</svg>
