<svg width="220" height="91" viewBox="0 0 220 91" fill="none" xmlns="http://www.w3.org/2000/svg">
<path d="M39.4041 0L0 22.75V68.25L39.4041 91L78.8081 68.25V22.75L39.4041 0ZM39.4041 6.27082L52.3175 13.7266L21.0597 31.7732L8.14628 24.3174L39.4041 6.27082ZM36.6886 83.1614L5.43085 65.1146V29.021L36.6886 47.0676V83.1614ZM26.4906 34.9086L57.7484 16.8618L70.6619 24.3176L39.4041 42.3644L26.4906 34.9086ZM73.3773 65.1146L42.1195 83.1614V47.0676L73.3775 29.0208V65.1146H73.3773Z" fill="#DAD7D7"/>
<path d="M48.2888 47.6067V62.929L67.2078 52.0061V36.6838L48.2888 47.6067ZM61.7769 48.8707L53.7197 53.5226V50.7423L61.7769 46.0904V48.8707Z" fill="#DAD7D7"/>
<path d="M106.094 51.0469C106.094 50.6406 106.031 50.276 105.906 49.9531C105.792 49.6198 105.573 49.3177 105.25 49.0469C104.927 48.7656 104.474 48.4896 103.891 48.2188C103.307 47.9479 102.552 47.6667 101.625 47.375C100.594 47.0417 99.6146 46.6667 98.6875 46.25C97.7708 45.8333 96.9583 45.349 96.25 44.7969C95.5521 44.2344 95 43.5833 94.5938 42.8438C94.1979 42.1042 94 41.2448 94 40.2656C94 39.3177 94.2083 38.4583 94.625 37.6875C95.0417 36.9062 95.625 36.2396 96.375 35.6875C97.125 35.125 98.0104 34.6927 99.0312 34.3906C100.062 34.0885 101.193 33.9375 102.422 33.9375C104.099 33.9375 105.562 34.2396 106.812 34.8438C108.062 35.4479 109.031 36.276 109.719 37.3281C110.417 38.3802 110.766 39.5833 110.766 40.9375H106.109C106.109 40.2708 105.969 39.6875 105.688 39.1875C105.417 38.6771 105 38.276 104.438 37.9844C103.885 37.6927 103.188 37.5469 102.344 37.5469C101.531 37.5469 100.854 37.6719 100.312 37.9219C99.7708 38.1615 99.3646 38.4896 99.0938 38.9062C98.8229 39.3125 98.6875 39.7708 98.6875 40.2812C98.6875 40.6667 98.7812 41.0156 98.9688 41.3281C99.1667 41.6406 99.4583 41.9323 99.8438 42.2031C100.229 42.474 100.703 42.7292 101.266 42.9688C101.828 43.2083 102.479 43.4427 103.219 43.6719C104.458 44.0469 105.547 44.4688 106.484 44.9375C107.432 45.4062 108.224 45.9323 108.859 46.5156C109.495 47.099 109.974 47.7604 110.297 48.5C110.62 49.2396 110.781 50.0781 110.781 51.0156C110.781 52.0052 110.589 52.8906 110.203 53.6719C109.818 54.4531 109.26 55.1146 108.531 55.6562C107.802 56.1979 106.932 56.6094 105.922 56.8906C104.911 57.1719 103.781 57.3125 102.531 57.3125C101.406 57.3125 100.297 57.1667 99.2031 56.875C98.1094 56.5729 97.1146 56.1198 96.2188 55.5156C95.3333 54.9115 94.625 54.1406 94.0938 53.2031C93.5625 52.2656 93.2969 51.1562 93.2969 49.875H98C98 50.5833 98.1094 51.1823 98.3281 51.6719C98.5469 52.1615 98.8542 52.5573 99.25 52.8594C99.6562 53.1615 100.135 53.3802 100.688 53.5156C101.25 53.651 101.865 53.7188 102.531 53.7188C103.344 53.7188 104.01 53.6042 104.531 53.375C105.062 53.1458 105.453 52.8281 105.703 52.4219C105.964 52.0156 106.094 51.5573 106.094 51.0469ZM118.078 33V57H113.578V33H118.078ZM117.438 47.9531H116.203C116.214 46.776 116.37 45.6927 116.672 44.7031C116.974 43.7031 117.406 42.8385 117.969 42.1094C118.531 41.3698 119.203 40.7969 119.984 40.3906C120.776 39.9844 121.651 39.7812 122.609 39.7812C123.443 39.7812 124.198 39.901 124.875 40.1406C125.562 40.3698 126.151 40.7448 126.641 41.2656C127.141 41.776 127.526 42.4479 127.797 43.2812C128.068 44.1146 128.203 45.125 128.203 46.3125V57H123.672V46.2812C123.672 45.5312 123.562 44.9427 123.344 44.5156C123.135 44.0781 122.828 43.7708 122.422 43.5938C122.026 43.4062 121.536 43.3125 120.953 43.3125C120.307 43.3125 119.755 43.4323 119.297 43.6719C118.849 43.9115 118.49 44.2448 118.219 44.6719C117.948 45.0885 117.75 45.5781 117.625 46.1406C117.5 46.7031 117.438 47.3073 117.438 47.9531ZM136.375 40.0938V57H131.859V40.0938H136.375ZM131.578 35.6875C131.578 35.0312 131.807 34.4896 132.266 34.0625C132.724 33.6354 133.339 33.4219 134.109 33.4219C134.87 33.4219 135.479 33.6354 135.938 34.0625C136.406 34.4896 136.641 35.0312 136.641 35.6875C136.641 36.3438 136.406 36.8854 135.938 37.3125C135.479 37.7396 134.87 37.9531 134.109 37.9531C133.339 37.9531 132.724 37.7396 132.266 37.3125C131.807 36.8854 131.578 36.3438 131.578 35.6875ZM144.594 43.3438V63.5H140.094V40.0938H144.266L144.594 43.3438ZM155.297 48.3594V48.6875C155.297 49.9167 155.151 51.0573 154.859 52.1094C154.578 53.1615 154.161 54.0781 153.609 54.8594C153.057 55.6302 152.37 56.2344 151.547 56.6719C150.734 57.099 149.797 57.3125 148.734 57.3125C147.703 57.3125 146.807 57.1042 146.047 56.6875C145.286 56.2708 144.646 55.6875 144.125 54.9375C143.615 54.1771 143.203 53.2969 142.891 52.2969C142.578 51.2969 142.339 50.224 142.172 49.0781V48.2188C142.339 46.9896 142.578 45.8646 142.891 44.8438C143.203 43.8125 143.615 42.9219 144.125 42.1719C144.646 41.4115 145.281 40.8229 146.031 40.4062C146.792 39.9896 147.682 39.7812 148.703 39.7812C149.776 39.7812 150.719 39.9844 151.531 40.3906C152.354 40.7969 153.042 41.3802 153.594 42.1406C154.156 42.901 154.578 43.8073 154.859 44.8594C155.151 45.9115 155.297 47.0781 155.297 48.3594ZM150.781 48.6875V48.3594C150.781 47.6406 150.719 46.9792 150.594 46.375C150.479 45.7604 150.292 45.224 150.031 44.7656C149.781 44.3073 149.448 43.9531 149.031 43.7031C148.625 43.4427 148.13 43.3125 147.547 43.3125C146.932 43.3125 146.406 43.4115 145.969 43.6094C145.542 43.8073 145.193 44.0938 144.922 44.4688C144.651 44.8438 144.448 45.2917 144.312 45.8125C144.177 46.3333 144.094 46.9219 144.062 47.5781V49.75C144.115 50.5208 144.26 51.2135 144.5 51.8281C144.74 52.4323 145.109 52.9115 145.609 53.2656C146.109 53.6198 146.766 53.7969 147.578 53.7969C148.172 53.7969 148.672 53.6667 149.078 53.4062C149.484 53.1354 149.812 52.7656 150.062 52.2969C150.323 51.8281 150.505 51.2865 150.609 50.6719C150.724 50.0573 150.781 49.3958 150.781 48.6875ZM162.594 43.3438V63.5H158.094V40.0938H162.266L162.594 43.3438ZM173.297 48.3594V48.6875C173.297 49.9167 173.151 51.0573 172.859 52.1094C172.578 53.1615 172.161 54.0781 171.609 54.8594C171.057 55.6302 170.37 56.2344 169.547 56.6719C168.734 57.099 167.797 57.3125 166.734 57.3125C165.703 57.3125 164.807 57.1042 164.047 56.6875C163.286 56.2708 162.646 55.6875 162.125 54.9375C161.615 54.1771 161.203 53.2969 160.891 52.2969C160.578 51.2969 160.339 50.224 160.172 49.0781V48.2188C160.339 46.9896 160.578 45.8646 160.891 44.8438C161.203 43.8125 161.615 42.9219 162.125 42.1719C162.646 41.4115 163.281 40.8229 164.031 40.4062C164.792 39.9896 165.682 39.7812 166.703 39.7812C167.776 39.7812 168.719 39.9844 169.531 40.3906C170.354 40.7969 171.042 41.3802 171.594 42.1406C172.156 42.901 172.578 43.8073 172.859 44.8594C173.151 45.9115 173.297 47.0781 173.297 48.3594ZM168.781 48.6875V48.3594C168.781 47.6406 168.719 46.9792 168.594 46.375C168.479 45.7604 168.292 45.224 168.031 44.7656C167.781 44.3073 167.448 43.9531 167.031 43.7031C166.625 43.4427 166.13 43.3125 165.547 43.3125C164.932 43.3125 164.406 43.4115 163.969 43.6094C163.542 43.8073 163.193 44.0938 162.922 44.4688C162.651 44.8438 162.448 45.2917 162.312 45.8125C162.177 46.3333 162.094 46.9219 162.062 47.5781V49.75C162.115 50.5208 162.26 51.2135 162.5 51.8281C162.74 52.4323 163.109 52.9115 163.609 53.2656C164.109 53.6198 164.766 53.7969 165.578 53.7969C166.172 53.7969 166.672 53.6667 167.078 53.4062C167.484 53.1354 167.812 52.7656 168.062 52.2969C168.323 51.8281 168.505 51.2865 168.609 50.6719C168.724 50.0573 168.781 49.3958 168.781 48.6875ZM183.875 57.3125C182.562 57.3125 181.385 57.1042 180.344 56.6875C179.302 56.2604 178.417 55.6719 177.688 54.9219C176.969 54.1719 176.417 53.3021 176.031 52.3125C175.646 51.3125 175.453 50.25 175.453 49.125V48.5C175.453 47.2188 175.635 46.0469 176 44.9844C176.365 43.9219 176.885 43 177.562 42.2188C178.25 41.4375 179.083 40.8385 180.062 40.4219C181.042 39.9948 182.146 39.7812 183.375 39.7812C184.573 39.7812 185.635 39.9792 186.562 40.375C187.49 40.7708 188.266 41.3333 188.891 42.0625C189.526 42.7917 190.005 43.6667 190.328 44.6875C190.651 45.6979 190.812 46.8229 190.812 48.0625V49.9375H177.375V46.9375H186.391V46.5938C186.391 45.9688 186.276 45.4115 186.047 44.9219C185.828 44.4219 185.495 44.026 185.047 43.7344C184.599 43.4427 184.026 43.2969 183.328 43.2969C182.734 43.2969 182.224 43.4271 181.797 43.6875C181.37 43.9479 181.021 44.3125 180.75 44.7812C180.49 45.25 180.292 45.8021 180.156 46.4375C180.031 47.0625 179.969 47.75 179.969 48.5V49.125C179.969 49.8021 180.062 50.4271 180.25 51C180.448 51.5729 180.724 52.0677 181.078 52.4844C181.443 52.901 181.88 53.224 182.391 53.4531C182.911 53.6823 183.5 53.7969 184.156 53.7969C184.969 53.7969 185.724 53.6406 186.422 53.3281C187.13 53.0052 187.74 52.5208 188.25 51.875L190.438 54.25C190.083 54.7604 189.599 55.25 188.984 55.7188C188.38 56.1875 187.651 56.5729 186.797 56.875C185.943 57.1667 184.969 57.3125 183.875 57.3125ZM197.875 43.7812V57H193.375V40.0938H197.609L197.875 43.7812ZM202.969 39.9844L202.891 44.1562C202.672 44.125 202.406 44.099 202.094 44.0781C201.792 44.0469 201.516 44.0312 201.266 44.0312C200.63 44.0312 200.078 44.1146 199.609 44.2812C199.151 44.4375 198.766 44.6719 198.453 44.9844C198.151 45.2969 197.922 45.6771 197.766 46.125C197.62 46.5729 197.536 47.0833 197.516 47.6562L196.609 47.375C196.609 46.2812 196.719 45.276 196.938 44.3594C197.156 43.4323 197.474 42.625 197.891 41.9375C198.318 41.25 198.839 40.7188 199.453 40.3438C200.068 39.9688 200.771 39.7812 201.562 39.7812C201.812 39.7812 202.068 39.8021 202.328 39.8438C202.589 39.875 202.802 39.9219 202.969 39.9844ZM214.234 52.3281C214.234 52.0052 214.141 51.7135 213.953 51.4531C213.766 51.1927 213.417 50.9531 212.906 50.7344C212.406 50.5052 211.682 50.2969 210.734 50.1094C209.88 49.9219 209.083 49.6875 208.344 49.4062C207.615 49.1146 206.979 48.7656 206.438 48.3594C205.906 47.9531 205.49 47.474 205.188 46.9219C204.885 46.3594 204.734 45.7188 204.734 45C204.734 44.2917 204.885 43.625 205.188 43C205.5 42.375 205.943 41.8229 206.516 41.3438C207.099 40.8542 207.807 40.474 208.641 40.2031C209.484 39.9219 210.432 39.7812 211.484 39.7812C212.953 39.7812 214.214 40.0156 215.266 40.4844C216.328 40.9531 217.141 41.599 217.703 42.4219C218.276 43.2344 218.562 44.1615 218.562 45.2031H214.062C214.062 44.7656 213.969 44.375 213.781 44.0312C213.604 43.6771 213.323 43.401 212.938 43.2031C212.562 42.9948 212.073 42.8906 211.469 42.8906C210.969 42.8906 210.536 42.9792 210.172 43.1562C209.807 43.3229 209.526 43.5521 209.328 43.8438C209.141 44.125 209.047 44.4375 209.047 44.7812C209.047 45.0417 209.099 45.276 209.203 45.4844C209.318 45.6823 209.5 45.8646 209.75 46.0312C210 46.1979 210.323 46.3542 210.719 46.5C211.125 46.6354 211.625 46.7604 212.219 46.875C213.438 47.125 214.526 47.4531 215.484 47.8594C216.443 48.2552 217.203 48.7969 217.766 49.4844C218.328 50.1615 218.609 51.0521 218.609 52.1562C218.609 52.9062 218.443 53.5938 218.109 54.2188C217.776 54.8438 217.297 55.3906 216.672 55.8594C216.047 56.3177 215.297 56.6771 214.422 56.9375C213.557 57.1875 212.583 57.3125 211.5 57.3125C209.927 57.3125 208.594 57.0312 207.5 56.4688C206.417 55.9062 205.594 55.1927 205.031 54.3281C204.479 53.4531 204.203 52.5573 204.203 51.6406H208.469C208.49 52.2552 208.646 52.75 208.938 53.125C209.24 53.5 209.62 53.7708 210.078 53.9375C210.547 54.1042 211.052 54.1875 211.594 54.1875C212.177 54.1875 212.661 54.1094 213.047 53.9531C213.432 53.7865 213.724 53.5677 213.922 53.2969C214.13 53.0156 214.234 52.6927 214.234 52.3281Z" fill="#DAD7D7"/>
</svg>
