<svg width="239" height="65" viewBox="0 0 239 65" fill="none" xmlns="http://www.w3.org/2000/svg">
<path d="M104.283 48.2133H104.168V38.293C104.168 35.873 103.228 33.5976 101.52 31.8864L100.325 30.6887L96.0545 15C95.2013 11.8652 92.3402 9.67563 89.097 9.67563H76.6955V4.05556C76.6955 2.09495 75.1036 0.5 73.1469 0.5H3.5486C1.59183 0.5 0 2.09495 0 4.05556V48.0986C0 50.0592 1.59183 51.6541 3.5486 51.6541H9.98758C9.68767 52.3047 9.46239 52.9963 9.32319 53.7186H5.38013C4.43162 53.7186 3.66307 54.4887 3.66307 55.4391C3.66307 56.3894 4.43162 57.1595 5.38013 57.1595H9.32319C10.1279 61.3356 13.8015 64.5 18.2009 64.5C22.6002 64.5 26.2738 61.3356 27.0785 57.1595H53.5598C54.1658 58.2525 55.329 58.9946 56.6631 58.9946H71.3153C72.6494 58.9946 73.8126 58.2525 74.4186 57.1595H78.9215C79.7262 61.3356 83.3998 64.5 87.7991 64.5C92.1985 64.5 95.8721 61.3356 96.6768 57.1595H104.283C105.231 57.1595 106 56.3894 106 55.4391V49.9337C106 48.9833 105.231 48.2133 104.283 48.2133ZM96.5404 29.8618L84.1361 29.862C84.0731 29.862 84.0216 29.8104 84.0216 29.7473V18.6219H93.2937C93.356 18.6219 93.4174 18.6182 93.478 18.6115L96.5404 29.8618ZM89.097 13.1165C90.532 13.1165 91.8216 13.9368 92.4579 15.181H82.3045C81.356 15.181 80.5875 15.9511 80.5875 16.9014V29.7473C80.5875 31.7079 82.1793 33.3029 84.1361 33.3029L98.077 33.3026L99.0915 34.3195C100.151 35.3809 100.734 36.7919 100.734 38.293V42.7079H98.7883C97.8398 42.7079 97.0713 43.478 97.0713 44.4283C97.0713 45.3787 97.8398 46.1487 98.7883 46.1487H100.734V48.2133H93.2937C93.2793 48.2133 93.2651 48.2151 93.2507 48.2156C91.7337 47.0633 89.8452 46.3781 87.7991 46.3781C85.7531 46.3781 83.8645 47.0633 82.3476 48.2156C82.3331 48.2151 82.319 48.2133 82.3045 48.2133H76.6955V13.1165H89.097ZM78.9215 53.7186H74.8639V51.7688C74.8639 51.73 74.8594 51.6924 74.8582 51.6541H74.9784H79.5859C79.2859 52.3047 79.0607 52.9963 78.9215 53.7186ZM3.43413 48.0986V36.9731H61.6753L59.1121 39.5414C58.4415 40.2135 58.4415 41.3026 59.1121 41.9745C59.4475 42.3104 59.887 42.4783 60.3264 42.4783C60.7657 42.4783 61.2053 42.3104 61.5407 41.9745L67.0353 36.4691C67.0417 36.4627 67.0472 36.4556 67.0534 36.449C67.0863 36.415 67.1186 36.3801 67.1486 36.3434C67.1662 36.3219 67.1816 36.2994 67.198 36.2771C67.215 36.2542 67.2328 36.232 67.2486 36.2081C67.2656 36.1826 67.2805 36.1563 67.296 36.1301C67.3091 36.1081 67.323 36.0865 67.3352 36.0638C67.3494 36.0374 67.3613 36.0101 67.3739 35.9833C67.3851 35.9594 67.397 35.9358 67.4073 35.9113C67.4183 35.8849 67.427 35.8581 67.4366 35.8312C67.446 35.8051 67.4561 35.7791 67.4641 35.7525C67.4723 35.7255 67.4783 35.6979 67.4851 35.6704C67.4918 35.6433 67.4996 35.6167 67.5048 35.5894C67.5112 35.5571 67.5151 35.5245 67.5197 35.4919C67.5229 35.469 67.5273 35.4463 67.5295 35.4231C67.5408 35.3098 67.5408 35.1958 67.5295 35.0825C67.5273 35.0591 67.5229 35.0366 67.5197 35.0137C67.5151 34.9811 67.5112 34.9485 67.5048 34.9162C67.4993 34.8886 67.4918 34.862 67.4851 34.8352C67.4783 34.8077 67.4723 34.7801 67.4641 34.7531C67.4558 34.7262 67.446 34.7003 67.4366 34.6742C67.427 34.6476 67.4183 34.6205 67.4075 34.5943C67.3975 34.5698 67.3853 34.5462 67.3741 34.5221C67.3615 34.4952 67.3496 34.4682 67.3354 34.4418C67.3233 34.4191 67.3093 34.3975 67.2963 34.3755C67.2807 34.3493 67.266 34.323 67.2489 34.2975C67.2331 34.2736 67.2152 34.2514 67.1983 34.2285C67.1818 34.2064 67.1665 34.1837 67.1488 34.1622C67.1188 34.1255 67.0866 34.0906 67.0536 34.0566C67.0472 34.05 67.0419 34.0429 67.0355 34.0365L61.5409 28.5311C60.8701 27.8594 59.7831 27.8594 59.1125 28.5311C58.4419 29.2032 58.4419 30.2923 59.1125 30.9642L61.6753 33.5323H3.43413V4.05556C3.43413 3.99247 3.48564 3.94086 3.5486 3.94086H73.1469C73.2098 3.94086 73.2613 3.99247 73.2613 4.05556V48.2133H48.4781H23.6948C23.6804 48.2133 23.6666 48.2151 23.6522 48.2153C22.1355 47.0633 20.2467 46.3781 18.2009 46.3781C16.155 46.3781 14.2663 47.0633 12.7493 48.2156C12.7347 48.2151 12.7205 48.2133 12.7058 48.2133H3.5486C3.48564 48.2133 3.43413 48.1616 3.43413 48.0986ZM53.1145 51.7688V53.7186H27.0785C26.9393 52.9963 26.7141 52.3047 26.4141 51.6541H53.1202C53.119 51.6924 53.1145 51.73 53.1145 51.7688ZM18.2009 61.0591C15.1079 61.0591 12.5918 58.5381 12.5918 55.4391C12.5918 52.34 15.1079 49.819 18.2009 49.819C21.2939 49.819 23.8099 52.34 23.8099 55.4391C23.8099 58.5381 21.2939 61.0591 18.2009 61.0591ZM71.3153 55.5538H56.6631C56.6001 55.5538 56.5486 55.5022 56.5486 55.4391V51.7688C56.5486 51.7057 56.6001 51.6541 56.6631 51.6541H71.3153C71.3783 51.6541 71.4298 51.7057 71.4298 51.7688V55.4301C71.4298 55.4331 71.4293 55.4361 71.4293 55.4391C71.4293 55.4398 71.4293 55.4402 71.4293 55.4409C71.4284 55.5031 71.3778 55.5538 71.3153 55.5538ZM87.7991 61.0591C84.7061 61.0591 82.1901 58.5381 82.1901 55.4391C82.1901 52.34 84.7061 49.819 87.7991 49.819C90.8921 49.819 93.4082 52.34 93.4082 55.4391C93.4082 58.5381 90.8921 61.0591 87.7991 61.0591ZM102.566 53.7186H96.6768C96.5376 52.9963 96.3123 52.3047 96.0124 51.6541H102.566V53.7186Z" fill="#DAD7D7"/>
<path d="M138.516 35.9531H143.188C143.094 37.4844 142.672 38.8438 141.922 40.0312C141.182 41.2188 140.146 42.1458 138.812 42.8125C137.49 43.4792 135.896 43.8125 134.031 43.8125C132.573 43.8125 131.266 43.5625 130.109 43.0625C128.953 42.5521 127.964 41.8229 127.141 40.875C126.328 39.9271 125.708 38.7812 125.281 37.4375C124.854 36.0938 124.641 34.5885 124.641 32.9219V31.3438C124.641 29.6771 124.859 28.1719 125.297 26.8281C125.745 25.474 126.38 24.3229 127.203 23.375C128.036 22.4271 129.031 21.6979 130.188 21.1875C131.344 20.6771 132.635 20.4219 134.062 20.4219C135.958 20.4219 137.557 20.7656 138.859 21.4531C140.172 22.1406 141.188 23.0885 141.906 24.2969C142.635 25.5052 143.073 26.8802 143.219 28.4219H138.531C138.479 27.5052 138.297 26.7292 137.984 26.0938C137.672 25.4479 137.198 24.9635 136.562 24.6406C135.938 24.3073 135.104 24.1406 134.062 24.1406C133.281 24.1406 132.599 24.2865 132.016 24.5781C131.432 24.8698 130.943 25.3125 130.547 25.9062C130.151 26.5 129.854 27.25 129.656 28.1562C129.469 29.0521 129.375 30.1042 129.375 31.3125V32.9219C129.375 34.099 129.464 35.1354 129.641 36.0312C129.818 36.9167 130.089 37.6667 130.453 38.2812C130.828 38.8854 131.307 39.3438 131.891 39.6562C132.484 39.9583 133.198 40.1094 134.031 40.1094C135.01 40.1094 135.818 39.9531 136.453 39.6406C137.089 39.3281 137.573 38.8646 137.906 38.25C138.25 37.6354 138.453 36.8698 138.516 35.9531ZM155.109 39.6875V32.1562C155.109 31.6146 155.021 31.151 154.844 30.7656C154.667 30.3698 154.391 30.0625 154.016 29.8438C153.651 29.625 153.177 29.5156 152.594 29.5156C152.094 29.5156 151.661 29.6042 151.297 29.7812C150.932 29.9479 150.651 30.1927 150.453 30.5156C150.255 30.8281 150.156 31.1979 150.156 31.625H145.656C145.656 30.9062 145.823 30.224 146.156 29.5781C146.49 28.9323 146.974 28.3646 147.609 27.875C148.245 27.375 149 26.9844 149.875 26.7031C150.76 26.4219 151.75 26.2812 152.844 26.2812C154.156 26.2812 155.323 26.5 156.344 26.9375C157.365 27.375 158.167 28.0312 158.75 28.9062C159.344 29.7812 159.641 30.875 159.641 32.1875V39.4219C159.641 40.349 159.698 41.1094 159.812 41.7031C159.927 42.2865 160.094 42.7969 160.312 43.2344V43.5H155.766C155.547 43.0417 155.38 42.4688 155.266 41.7812C155.161 41.0833 155.109 40.3854 155.109 39.6875ZM155.703 33.2031L155.734 35.75H153.219C152.625 35.75 152.109 35.8177 151.672 35.9531C151.234 36.0885 150.875 36.2812 150.594 36.5312C150.312 36.7708 150.104 37.0521 149.969 37.375C149.844 37.6979 149.781 38.0521 149.781 38.4375C149.781 38.8229 149.87 39.1719 150.047 39.4844C150.224 39.7865 150.479 40.026 150.812 40.2031C151.146 40.3698 151.536 40.4531 151.984 40.4531C152.661 40.4531 153.25 40.3177 153.75 40.0469C154.25 39.776 154.635 39.4427 154.906 39.0469C155.188 38.651 155.333 38.276 155.344 37.9219L156.531 39.8281C156.365 40.2552 156.135 40.6979 155.844 41.1562C155.562 41.6146 155.203 42.0469 154.766 42.4531C154.328 42.849 153.802 43.1771 153.188 43.4375C152.573 43.6875 151.844 43.8125 151 43.8125C149.927 43.8125 148.953 43.599 148.078 43.1719C147.214 42.7344 146.526 42.1354 146.016 41.375C145.516 40.6042 145.266 39.7292 145.266 38.75C145.266 37.8646 145.432 37.0781 145.766 36.3906C146.099 35.7031 146.589 35.125 147.234 34.6562C147.891 34.1771 148.708 33.8177 149.688 33.5781C150.667 33.3281 151.802 33.2031 153.094 33.2031H155.703ZM167.609 30.2812V43.5H163.109V26.5938H167.344L167.609 30.2812ZM172.703 26.4844L172.625 30.6562C172.406 30.625 172.141 30.599 171.828 30.5781C171.526 30.5469 171.25 30.5312 171 30.5312C170.365 30.5312 169.812 30.6146 169.344 30.7812C168.885 30.9375 168.5 31.1719 168.188 31.4844C167.885 31.7969 167.656 32.1771 167.5 32.625C167.354 33.0729 167.271 33.5833 167.25 34.1562L166.344 33.875C166.344 32.7812 166.453 31.776 166.672 30.8594C166.891 29.9323 167.208 29.125 167.625 28.4375C168.052 27.75 168.573 27.2188 169.188 26.8438C169.802 26.4688 170.505 26.2812 171.297 26.2812C171.547 26.2812 171.802 26.3021 172.062 26.3438C172.323 26.375 172.536 26.4219 172.703 26.4844ZM179.328 30.2812V43.5H174.828V26.5938H179.062L179.328 30.2812ZM184.422 26.4844L184.344 30.6562C184.125 30.625 183.859 30.599 183.547 30.5781C183.245 30.5469 182.969 30.5312 182.719 30.5312C182.083 30.5312 181.531 30.6146 181.062 30.7812C180.604 30.9375 180.219 31.1719 179.906 31.4844C179.604 31.7969 179.375 32.1771 179.219 32.625C179.073 33.0729 178.99 33.5833 178.969 34.1562L178.062 33.875C178.062 32.7812 178.172 31.776 178.391 30.8594C178.609 29.9323 178.927 29.125 179.344 28.4375C179.771 27.75 180.292 27.2188 180.906 26.8438C181.521 26.4688 182.224 26.2812 183.016 26.2812C183.266 26.2812 183.521 26.3021 183.781 26.3438C184.042 26.375 184.255 26.4219 184.422 26.4844ZM191.297 26.5938V43.5H186.781V26.5938H191.297ZM186.5 22.1875C186.5 21.5312 186.729 20.9896 187.188 20.5625C187.646 20.1354 188.26 19.9219 189.031 19.9219C189.792 19.9219 190.401 20.1354 190.859 20.5625C191.328 20.9896 191.562 21.5312 191.562 22.1875C191.562 22.8438 191.328 23.3854 190.859 23.8125C190.401 24.2396 189.792 24.4531 189.031 24.4531C188.26 24.4531 187.646 24.2396 187.188 23.8125C186.729 23.3854 186.5 22.8438 186.5 22.1875ZM202.797 43.8125C201.484 43.8125 200.307 43.6042 199.266 43.1875C198.224 42.7604 197.339 42.1719 196.609 41.4219C195.891 40.6719 195.339 39.8021 194.953 38.8125C194.568 37.8125 194.375 36.75 194.375 35.625V35C194.375 33.7188 194.557 32.5469 194.922 31.4844C195.286 30.4219 195.807 29.5 196.484 28.7188C197.172 27.9375 198.005 27.3385 198.984 26.9219C199.964 26.4948 201.068 26.2812 202.297 26.2812C203.495 26.2812 204.557 26.4792 205.484 26.875C206.411 27.2708 207.188 27.8333 207.812 28.5625C208.448 29.2917 208.927 30.1667 209.25 31.1875C209.573 32.1979 209.734 33.3229 209.734 34.5625V36.4375H196.297V33.4375H205.312V33.0938C205.312 32.4688 205.198 31.9115 204.969 31.4219C204.75 30.9219 204.417 30.526 203.969 30.2344C203.521 29.9427 202.948 29.7969 202.25 29.7969C201.656 29.7969 201.146 29.9271 200.719 30.1875C200.292 30.4479 199.943 30.8125 199.672 31.2812C199.411 31.75 199.214 32.3021 199.078 32.9375C198.953 33.5625 198.891 34.25 198.891 35V35.625C198.891 36.3021 198.984 36.9271 199.172 37.5C199.37 38.0729 199.646 38.5677 200 38.9844C200.365 39.401 200.802 39.724 201.312 39.9531C201.833 40.1823 202.422 40.2969 203.078 40.2969C203.891 40.2969 204.646 40.1406 205.344 39.8281C206.052 39.5052 206.661 39.0208 207.172 38.375L209.359 40.75C209.005 41.2604 208.521 41.75 207.906 42.2188C207.302 42.6875 206.573 43.0729 205.719 43.375C204.865 43.6667 203.891 43.8125 202.797 43.8125ZM216.797 30.2812V43.5H212.297V26.5938H216.531L216.797 30.2812ZM221.891 26.4844L221.812 30.6562C221.594 30.625 221.328 30.599 221.016 30.5781C220.714 30.5469 220.438 30.5312 220.188 30.5312C219.552 30.5312 219 30.6146 218.531 30.7812C218.073 30.9375 217.688 31.1719 217.375 31.4844C217.073 31.7969 216.844 32.1771 216.688 32.625C216.542 33.0729 216.458 33.5833 216.438 34.1562L215.531 33.875C215.531 32.7812 215.641 31.776 215.859 30.8594C216.078 29.9323 216.396 29.125 216.812 28.4375C217.24 27.75 217.76 27.2188 218.375 26.8438C218.99 26.4688 219.693 26.2812 220.484 26.2812C220.734 26.2812 220.99 26.3021 221.25 26.3438C221.51 26.375 221.724 26.4219 221.891 26.4844ZM233.156 38.8281C233.156 38.5052 233.062 38.2135 232.875 37.9531C232.688 37.6927 232.339 37.4531 231.828 37.2344C231.328 37.0052 230.604 36.7969 229.656 36.6094C228.802 36.4219 228.005 36.1875 227.266 35.9062C226.536 35.6146 225.901 35.2656 225.359 34.8594C224.828 34.4531 224.411 33.974 224.109 33.4219C223.807 32.8594 223.656 32.2188 223.656 31.5C223.656 30.7917 223.807 30.125 224.109 29.5C224.422 28.875 224.865 28.3229 225.438 27.8438C226.021 27.3542 226.729 26.974 227.562 26.7031C228.406 26.4219 229.354 26.2812 230.406 26.2812C231.875 26.2812 233.135 26.5156 234.188 26.9844C235.25 27.4531 236.062 28.099 236.625 28.9219C237.198 29.7344 237.484 30.6615 237.484 31.7031H232.984C232.984 31.2656 232.891 30.875 232.703 30.5312C232.526 30.1771 232.245 29.901 231.859 29.7031C231.484 29.4948 230.995 29.3906 230.391 29.3906C229.891 29.3906 229.458 29.4792 229.094 29.6562C228.729 29.8229 228.448 30.0521 228.25 30.3438C228.062 30.625 227.969 30.9375 227.969 31.2812C227.969 31.5417 228.021 31.776 228.125 31.9844C228.24 32.1823 228.422 32.3646 228.672 32.5312C228.922 32.6979 229.245 32.8542 229.641 33C230.047 33.1354 230.547 33.2604 231.141 33.375C232.359 33.625 233.448 33.9531 234.406 34.3594C235.365 34.7552 236.125 35.2969 236.688 35.9844C237.25 36.6615 237.531 37.5521 237.531 38.6562C237.531 39.4062 237.365 40.0938 237.031 40.7188C236.698 41.3438 236.219 41.8906 235.594 42.3594C234.969 42.8177 234.219 43.1771 233.344 43.4375C232.479 43.6875 231.505 43.8125 230.422 43.8125C228.849 43.8125 227.516 43.5312 226.422 42.9688C225.339 42.4062 224.516 41.6927 223.953 40.8281C223.401 39.9531 223.125 39.0573 223.125 38.1406H227.391C227.411 38.7552 227.568 39.25 227.859 39.625C228.161 40 228.542 40.2708 229 40.4375C229.469 40.6042 229.974 40.6875 230.516 40.6875C231.099 40.6875 231.583 40.6094 231.969 40.4531C232.354 40.2865 232.646 40.0677 232.844 39.7969C233.052 39.5156 233.156 39.1927 233.156 38.8281Z" fill="#DAD7D7"/>
</svg>
