<svg width="67" height="59" viewBox="0 0 67 59" fill="none" xmlns="http://www.w3.org/2000/svg">
<path d="M35.8007 35.826C32.7043 35.1613 29.878 33.62 27.6272 31.3694C24.5154 28.2576 22.8017 24.1204 22.8017 19.7197C22.8017 15.3191 24.5154 11.1819 27.6272 8.07013C34.0511 1.64665 44.5029 1.64665 50.9266 8.07013C55.5235 12.6672 56.9888 19.5607 54.6593 25.6323C54.3385 26.4688 54.7564 27.4072 55.5929 27.7282C56.4296 28.0486 57.3678 27.6311 57.6889 26.7946C60.4768 19.5281 58.7229 11.2778 53.2209 5.77581C49.4963 2.05117 44.5442 0 39.277 0C34.0096 0 29.0575 2.05117 25.3329 5.77581C21.6082 9.50045 19.5571 14.4525 19.5571 19.7197C19.5571 24.4423 21.2104 28.9083 24.2357 32.4665L19.946 36.7564L17.3683 34.1787C16.7347 33.5451 15.7074 33.5451 15.074 34.1787L1.99947 47.253C-0.666489 49.919 -0.666489 54.2567 1.99947 56.9229L2.07388 56.9973C3.36533 58.2887 5.0825 59 6.90891 59C8.73532 59 10.4523 58.2887 11.7437 56.9973L19.2562 49.4848C19.8898 48.8512 19.8898 47.8239 19.2562 47.1905C18.6225 46.5569 17.5952 46.5569 16.9618 47.1905L9.44918 54.7028C8.77058 55.3814 7.8683 55.755 6.90869 55.755C5.94887 55.755 5.0468 55.3811 4.3682 54.7028L4.29378 54.6283C2.8931 53.2274 2.8931 50.9483 4.29378 49.5474L16.2209 37.6202L22.5235 43.9228C23.1571 44.5564 24.1844 44.5564 24.8178 43.9228C25.4514 43.2892 25.4514 42.2618 24.8178 41.6284L22.2401 39.0507L26.5285 34.7624C29.0002 36.8605 31.9398 38.3159 35.1193 38.9986C35.2342 39.0233 35.3488 39.035 35.4615 39.035C36.2098 39.035 36.8828 38.514 37.0463 37.7528C37.2345 36.8769 36.6768 36.0142 35.8007 35.826Z" fill="black"/>
<path d="M52.4117 29.7478C44.7392 29.7478 38.4972 35.9898 38.4972 43.6623C38.4972 51.3348 44.7392 57.5768 52.4117 57.5768C60.0842 57.5768 66.3262 51.3348 66.3262 43.6623C66.3262 35.9898 60.0842 29.7478 52.4117 29.7478ZM52.4117 54.332C46.5284 54.332 41.742 49.5456 41.742 43.6623C41.742 37.779 46.5284 32.9926 52.4117 32.9926C58.295 32.9926 63.0814 37.779 63.0814 43.6623C63.0814 49.5456 58.295 54.332 52.4117 54.332Z" fill="black"/>
<path d="M56.3552 39.1L50.6718 44.7834L48.4681 42.5798C47.8345 41.9461 46.8072 41.9461 46.1738 42.5798C45.5402 43.2134 45.5402 44.2407 46.1738 44.8741L49.5246 48.2249C49.8413 48.5416 50.2567 48.7002 50.6718 48.7002C51.0869 48.7002 51.5023 48.5418 51.819 48.2249L58.6498 41.3941C59.2834 40.7605 59.2834 39.7332 58.6498 39.0998C58.0162 38.4664 56.9889 38.4664 56.3552 39.1Z" fill="black"/>
</svg>
