<svg width="448" height="378" viewBox="0 0 448 378" fill="none" xmlns="http://www.w3.org/2000/svg">
<path d="M447.032 80.4L252.695 192.716V270L447.032 157.684V80.4Z" fill="#33A9C4"/>
<path d="M122 117.032V194.316L135.853 202.274L137.326 201.432L175.895 223.726V225.516L252.695 270V192.716L182.526 129.747L122 117.032Z" fill="#40B8CC"/>
<path d="M122 112.337L183.284 129.074L377.705 16.7579L316.442 0L122 112.337Z" fill="#A8A8A8"/>
<path d="M183.284 129.074L377.705 16.7579L447.074 75.6211L252.695 187.895L183.284 129.074Z" fill="#999999"/>
<path d="M122 112.337V117.2L183.2 135.074L252.695 192.716V187.895L183.284 129.074L122 112.337Z" fill="#E2E2E2"/>
<path d="M447.032 75.6421L252.695 187.895V192.716L447.032 80.4V75.6421Z" fill="#C1C1C1"/>
<path d="M187.495 126.653L126.211 109.916L128 108.884L189.263 125.621L187.495 126.653Z" fill="#999999"/>
<path d="M193.789 123.01L132.505 106.274L134.295 105.242L195.558 122L193.789 123.01Z" fill="#999999"/>
<path d="M200.084 119.368L138.8 102.632L140.589 101.6L201.853 118.358L200.084 119.368Z" fill="#999999"/>
<path d="M206.337 115.768L145.053 99.0105L146.842 97.9789L208.105 114.737L206.337 115.768Z" fill="#999999"/>
<path d="M212.632 112.126L151.347 95.3895L153.137 94.3579L214.4 111.116L212.632 112.126Z" fill="#999999"/>
<path d="M218.905 108.505L157.621 91.7474L159.411 90.7158L220.674 107.474L218.905 108.505Z" fill="#999999"/>
<path d="M225.2 104.863L163.916 88.1263L165.684 87.0947L226.968 103.853L225.2 104.863Z" fill="#999999"/>
<path d="M231.474 101.242L170.19 84.5053L171.979 83.4738L233.242 100.211L231.474 101.242Z" fill="#999999"/>
<path d="M237.747 97.6L176.463 80.8631L178.253 79.8315L239.516 96.5894L237.747 97.6Z" fill="#999999"/>
<path d="M244.042 93.979L182.758 77.2421L184.526 76.2106L245.81 92.9685L244.042 93.979Z" fill="#999999"/>
<path d="M250.316 90.3578L189.032 73.621L190.821 72.5684L252.084 89.3262L250.316 90.3578Z" fill="#999999"/>
<path d="M256.611 86.7369L195.326 69.979L197.095 68.9474L258.379 85.7053L256.611 86.7369Z" fill="#999999"/>
<path d="M262.884 83.0948L201.6 66.3579L203.389 65.3264L264.653 82.0842L262.884 83.0948Z" fill="#999999"/>
<path d="M269.179 79.4526L207.895 62.7157L209.684 61.6841L270.947 78.442L269.179 79.4526Z" fill="#999999"/>
<path d="M275.453 75.8316L214.147 59.0947L215.958 58.0632L277.221 74.8211L275.453 75.8316Z" fill="#999999"/>
<path d="M281.726 72.2105L220.442 55.4737L222.232 54.4421L283.495 71.2L281.726 72.2105Z" fill="#999999"/>
<path d="M288.021 68.5895L226.716 51.8526L228.505 50.8L289.768 67.5579L288.021 68.5895Z" fill="#999999"/>
<path d="M294.295 64.9473L233.01 48.2105L234.8 47.1789L296.063 63.9368L294.295 64.9473Z" fill="#999999"/>
<path d="M300.568 61.3263L239.284 44.5895L241.074 43.5579L302.337 60.2948L300.568 61.3263Z" fill="#999999"/>
<path d="M306.863 57.6842L245.558 40.9474L247.347 39.9158L308.61 56.6737L306.863 57.6842Z" fill="#999999"/>
<path d="M313.116 54.0631L251.832 37.3263L253.621 36.2736L314.884 53.0315L313.116 54.0631Z" fill="#999999"/>
<path d="M319.411 50.4211L258.126 33.6842L259.916 32.6526L321.179 49.3895L319.411 50.4211Z" fill="#999999"/>
<path d="M325.663 46.7999L264.379 30.0631L266.168 29.0315L327.432 45.7894L325.663 46.7999Z" fill="#999999"/>
<path d="M331.958 43.1789L270.674 26.4421L272.463 25.4105L333.726 42.1474L331.958 43.1789Z" fill="#999999"/>
<path d="M338.231 39.5369L276.947 22.8001L278.737 21.7685L340 38.5264L338.231 39.5369Z" fill="#999999"/>
<path d="M344.526 35.9158L283.221 19.1789L285.011 18.1473L346.295 34.9052L344.526 35.9158Z" fill="#999999"/>
<path d="M350.8 32.2948L289.516 15.5369L291.305 14.5053L352.568 31.2632L350.8 32.2948Z" fill="#999999"/>
<path d="M357.095 28.6526L295.789 11.9157L297.579 10.8842L358.842 27.642L357.095 28.6526Z" fill="#999999"/>
<path d="M363.368 25.0316L302.063 8.29476L303.853 7.26318L365.137 24L363.368 25.0316Z" fill="#999999"/>
<path d="M369.642 21.3894L308.358 4.65255L310.147 3.62097L371.411 20.3789L369.642 21.3894Z" fill="#999999"/>
<path d="M375.937 17.7684L314.632 1.03158L316.442 0L377.705 16.7579L375.937 17.7684Z" fill="#999999"/>
<path d="M187.495 126.653L256.905 185.474L258.653 184.463L189.263 125.621L187.495 126.653Z" fill="#8C8C8C"/>
<path d="M193.789 123.011L263.179 181.853L264.947 180.821L195.558 122L193.789 123.011Z" fill="#8C8C8C"/>
<path d="M200.063 119.389L269.474 178.21L271.221 177.2L201.832 118.379L200.063 119.389Z" fill="#8C8C8C"/>
<path d="M206.337 115.768L275.747 174.589L277.495 173.579L208.105 114.737L206.337 115.768Z" fill="#8C8C8C"/>
<path d="M212.632 112.126L282.021 170.947L283.789 169.937L214.4 111.116L212.632 112.126Z" fill="#8C8C8C"/>
<path d="M218.905 108.505L288.316 167.326L290.063 166.316L220.674 107.474L218.905 108.505Z" fill="#8C8C8C"/>
<path d="M225.2 104.884L294.589 163.705L296.358 162.695L226.968 103.853L225.2 104.884Z" fill="#8C8C8C"/>
<path d="M231.474 101.242L300.884 160.063L302.632 159.053L233.242 100.232L231.474 101.242Z" fill="#8C8C8C"/>
<path d="M237.768 97.621L307.158 156.442L308.926 155.432L239.516 96.5894L237.768 97.621Z" fill="#8C8C8C"/>
<path d="M244.042 94L313.452 152.821L315.2 151.81L245.81 92.9684L244.042 94Z" fill="#8C8C8C"/>
<path d="M250.316 90.3579L319.726 149.179L321.474 148.168L252.084 89.3474L250.316 90.3579Z" fill="#8C8C8C"/>
<path d="M256.611 86.7368L326 145.558L327.768 144.547L258.379 85.7053L256.611 86.7368Z" fill="#8C8C8C"/>
<path d="M262.884 83.1158L332.295 141.937L334.042 140.926L264.653 82.0842L262.884 83.1158Z" fill="#8C8C8C"/>
<path d="M269.179 79.4737L338.568 138.295L340.337 137.284L270.947 78.4631L269.179 79.4737Z" fill="#8C8C8C"/>
<path d="M275.453 75.8526L344.863 134.674L346.611 133.663L277.221 74.821L275.453 75.8526Z" fill="#8C8C8C"/>
<path d="M281.747 72.2105L351.137 131.053L352.905 130.042L283.495 71.2L281.747 72.2105Z" fill="#8C8C8C"/>
<path d="M288.021 68.5894L357.41 127.41L359.179 126.4L289.789 67.5789L288.021 68.5894Z" fill="#8C8C8C"/>
<path d="M294.295 64.9683L363.726 123.789L365.474 122.779L296.063 63.9368L294.295 64.9683Z" fill="#8C8C8C"/>
<path d="M300.589 61.3053L370.021 120.168L371.768 119.158L302.358 60.2947L300.589 61.3053Z" fill="#8C8C8C"/>
<path d="M306.863 57.6842L376.295 116.547L378.042 115.537L308.632 56.6736L306.863 57.6842Z" fill="#8C8C8C"/>
<path d="M313.095 54.0843L382.505 112.905L384.253 111.895L314.863 53.0737L313.095 54.0843Z" fill="#8C8C8C"/>
<path d="M319.368 50.4631L388.779 109.284L390.547 108.274L321.137 49.4315L319.368 50.4631Z" fill="#8C8C8C"/>
<path d="M325.663 46.8211L395.053 105.663L396.821 104.632L327.432 45.8105L325.663 46.8211Z" fill="#8C8C8C"/>
<path d="M331.937 43.1999L401.347 102.021L403.116 101.01L333.705 42.1894L331.937 43.1999Z" fill="#8C8C8C"/>
<path d="M338.232 39.5789L407.621 98.4L409.389 97.3895L340 38.5474L338.232 39.5789Z" fill="#8C8C8C"/>
<path d="M344.505 35.9369L413.916 94.7789L415.663 93.7474L346.274 34.9263L344.505 35.9369Z" fill="#8C8C8C"/>
<path d="M350.8 32.3158L420.189 91.1368L421.958 90.1263L352.568 31.3052L350.8 32.3158Z" fill="#8C8C8C"/>
<path d="M357.074 28.6947L426.484 87.5158L428.232 86.5052L358.842 27.6631L357.074 28.6947Z" fill="#8C8C8C"/>
<path d="M363.347 25.0526L432.758 83.8736L434.526 82.8631L365.116 24.0421L363.347 25.0526Z" fill="#8C8C8C"/>
<path d="M369.642 21.4316L439.031 80.2526L440.8 79.2421L371.41 20.4211L369.642 21.4316Z" fill="#8C8C8C"/>
<path d="M375.916 17.8105L445.326 76.6315L447.074 75.621L377.684 16.7789L375.916 17.8105Z" fill="#8C8C8C"/>
<path d="M447.074 152.821L252.632 265.074V270L447.074 157.726V152.821Z" fill="#C1C1C1"/>
<path d="M175.895 220.737V225.516L252.631 270V265.074L175.895 220.737Z" fill="#D3D3D3"/>
<path d="M135.853 197.663L122 189.642V194.316L135.853 202.274V197.663Z" fill="#D3D3D3"/>
<path opacity="0.5" d="M194.274 222.863V233.747L206.737 240.968V230.063L194.274 222.863Z" fill="#777777"/>
<path d="M187.495 217.326V228.21L199.958 235.431V224.526L187.495 217.326Z" fill="#EAEAEA"/>
<path d="M199.958 224.526V235.431L206.737 231.579V220.716L199.958 224.526Z" fill="#C1C1C1"/>
<path d="M187.495 217.326L199.958 224.526L206.737 220.716L194.168 213.432L187.495 217.326Z" fill="white"/>
<path d="M192.589 226.568C192.6 227.628 192.892 228.667 193.436 229.577C193.98 230.487 194.756 231.236 195.684 231.747C197.326 232.4 198.611 231.179 198.568 228.989C198.549 227.931 198.254 226.896 197.711 225.988C197.168 225.079 196.397 224.328 195.474 223.81C193.811 223.158 192.526 224.379 192.589 226.568Z" fill="#999999"/>
<path d="M193.579 226.989C193.598 227.688 193.803 228.368 194.173 228.96C194.543 229.553 195.065 230.035 195.684 230.358C196.758 230.8 197.6 230 197.579 228.568C197.557 227.868 197.352 227.186 196.982 226.591C196.612 225.995 196.092 225.508 195.474 225.179C194.421 224.758 193.579 225.558 193.579 226.989Z" fill="#777777"/>
<path opacity="0.5" d="M208.442 231.095V241.979L220.905 249.2V238.295L208.442 231.095Z" fill="#777777"/>
<path d="M201.663 225.558V236.442L214.126 243.663V232.758L201.663 225.558Z" fill="#EAEAEA"/>
<path d="M214.126 232.758V243.663L220.905 239.789V228.926L214.126 232.758Z" fill="#C1C1C1"/>
<path d="M201.663 225.558L214.126 232.758L220.905 228.926L208.337 221.663L201.663 225.558Z" fill="white"/>
<path d="M206.737 234.8C206.746 235.863 207.037 236.905 207.581 237.819C208.124 238.732 208.901 239.485 209.832 240C211.495 240.674 212.779 239.432 212.716 237.242C212.708 236.187 212.419 235.152 211.879 234.246C211.339 233.339 210.567 232.593 209.642 232.084C207.979 231.368 206.695 232.61 206.737 234.8Z" fill="#999999"/>
<path d="M207.789 235.221C207.799 235.921 208 236.605 208.371 237.199C208.743 237.793 209.269 238.274 209.895 238.589C210.968 239.032 211.81 238.21 211.768 236.779C211.745 236.082 211.539 235.403 211.169 234.811C210.799 234.22 210.28 233.737 209.663 233.41C208.589 232.968 207.747 233.789 207.789 235.221Z" fill="#777777"/>
<path opacity="0.5" d="M222.526 239.41V250.316L234.989 257.537V246.631L222.526 239.41Z" fill="#777777"/>
<path d="M215.747 233.874V244.758L228.211 252V241.074L215.747 233.874Z" fill="#EAEAEA"/>
<path d="M228.211 241.074V252L234.989 248.126V237.263L228.211 241.074Z" fill="#C1C1C1"/>
<path d="M215.747 233.874L228.211 241.074L234.99 237.263L222.421 230L215.747 233.874Z" fill="white"/>
<path d="M220.821 243.137C220.837 244.193 221.132 245.226 221.675 246.131C222.219 247.037 222.992 247.783 223.916 248.295C225.579 248.968 226.863 247.726 226.8 245.537C226.792 244.479 226.501 243.442 225.957 242.535C225.413 241.628 224.635 240.883 223.705 240.379C222.063 239.705 220.758 240.947 220.821 243.137Z" fill="#999999"/>
<path d="M221.853 243.558C221.876 244.255 222.082 244.934 222.452 245.525C222.822 246.117 223.341 246.6 223.958 246.926C225.053 247.368 225.895 246.547 225.853 245.116C225.832 244.418 225.626 243.738 225.256 243.147C224.886 242.555 224.365 242.072 223.747 241.747C222.674 241.305 221.832 242.105 221.853 243.558Z" fill="#777777"/>
<path opacity="0.5" d="M236.695 247.642V258.526L249.158 265.768V254.842L236.695 247.642Z" fill="#777777"/>
<path d="M229.916 242.105V252.989L242.358 260.21V249.305L229.916 242.105Z" fill="#EAEAEA"/>
<path d="M242.358 249.305V260.21L249.158 256.358V245.495L242.358 249.305Z" fill="#C1C1C1"/>
<path d="M229.916 242.105L242.358 249.305L249.158 245.495L236.589 238.232L229.916 242.105Z" fill="white"/>
<path d="M234.989 251.347C235.004 252.407 235.298 253.443 235.841 254.352C236.385 255.262 237.158 256.012 238.084 256.526C239.726 257.179 241.031 255.958 240.968 253.768C240.945 252.701 240.639 251.659 240.08 250.748C239.522 249.838 238.731 249.093 237.789 248.589C236.231 247.937 234.926 249.179 234.989 251.347Z" fill="#999999"/>
<path d="M236.021 251.768C236.042 252.469 236.248 253.151 236.618 253.746C236.988 254.341 237.508 254.828 238.126 255.158C239.2 255.579 240.063 254.779 240.021 253.347C240.002 252.649 239.797 251.969 239.427 251.376C239.057 250.784 238.535 250.302 237.916 249.979C236.842 249.537 235.979 250.337 236.021 251.768Z" fill="#777777"/>
<path d="M237.558 196.632L201.116 175.579V188.358L237.558 209.389V196.632Z" fill="white"/>
<path d="M218.295 186.884L202.168 177.558V186.547L218.295 195.853V186.884Z" fill="#999999"/>
<path d="M218.295 194.758L204.295 186.758L202.168 187.684L218.295 197.032V194.758Z" fill="#E2E2E2"/>
<path d="M204.295 178.8L202.168 177.558V187.684L204.295 186.758V178.8Z" fill="#C1C1C1"/>
<path d="M236.274 197.221L220.147 187.895V196.884L236.274 206.189V197.221Z" fill="#999999"/>
<path d="M236.274 205.095L222.274 197.095L220.147 198.021L236.274 207.368V205.095Z" fill="#E2E2E2"/>
<path d="M222.274 189.137L220.147 187.895V198.021L222.274 197.095V189.137Z" fill="#C1C1C1"/>
<path d="M267.684 196.632L304.126 175.579V188.358L267.684 209.389V196.632Z" fill="white"/>
<path d="M286.947 186.884L303.074 177.558V186.547L286.947 195.853V186.884Z" fill="#999999"/>
<path d="M286.947 194.758L300.947 186.758L303.074 187.684L286.947 197.032V194.758Z" fill="#E2E2E2"/>
<path d="M300.947 178.8L303.074 177.558V187.684L300.947 186.758V178.8Z" fill="#C1C1C1"/>
<path d="M268.968 197.221L285.116 187.895V196.884L268.968 206.189V197.221Z" fill="#999999"/>
<path d="M268.968 205.095L282.968 197.095L285.116 198.021L268.968 207.368V205.095Z" fill="#E2E2E2"/>
<path d="M282.968 189.137L285.116 187.895V198.021L282.968 197.095V189.137Z" fill="#C1C1C1"/>
<path d="M400.653 119.768L437.095 98.7369V111.495L400.653 132.547V119.768Z" fill="white"/>
<path d="M419.895 110.021L436.042 100.716V109.684L419.895 119.011V110.021Z" fill="#999999"/>
<path d="M419.895 117.916L433.895 109.895L436.042 110.821L419.895 120.19V117.916Z" fill="#E2E2E2"/>
<path d="M433.895 101.937L436.042 100.716V110.821L433.895 109.895V101.937Z" fill="#C1C1C1"/>
<path d="M401.937 120.358L418.063 111.053V120.021L401.937 129.347V120.358Z" fill="#999999"/>
<path d="M401.937 128.253L415.937 120.253L418.063 121.158L401.937 130.526V128.253Z" fill="#E2E2E2"/>
<path d="M415.937 112.295L418.063 111.053V121.158L415.937 120.253V112.295Z" fill="#C1C1C1"/>
<path d="M357.074 145.158L393.516 124.126V136.905L357.074 157.937V145.158Z" fill="white"/>
<path d="M376.337 135.432L392.463 126.105V135.074L376.337 144.4V135.432Z" fill="#999999"/>
<path d="M376.337 143.305L390.337 135.305L392.463 136.232L376.337 145.579V143.305Z" fill="#E2E2E2"/>
<path d="M390.337 127.347L392.463 126.105V136.232L390.337 135.305V127.347Z" fill="#C1C1C1"/>
<path d="M358.379 145.768L374.505 136.442V145.432L358.379 154.737V145.768Z" fill="#999999"/>
<path d="M358.379 153.642L372.358 145.642L374.505 146.568L358.379 155.916V153.642Z" fill="#E2E2E2"/>
<path d="M372.358 137.684L374.505 136.442V146.568L372.358 145.642V137.684Z" fill="#C1C1C1"/>
<path d="M137.032 201.242L175.895 223.726V178.905L137.032 156.442V201.242Z" fill="#D3D3D3"/>
<path d="M135.853 155.768V202.274L137.326 201.432V156.61L135.853 155.768Z" fill="#33A9C4"/>
<path d="M137.326 169.705V171.032L175.895 193.326V191.979L137.326 169.705Z" fill="#AAAAAA"/>
<path d="M137.326 174.063V175.41L175.895 197.684V196.358L137.326 174.063Z" fill="#AAAAAA"/>
<path d="M137.326 178.442V179.768L175.895 202.063V200.716L137.326 178.442Z" fill="#AAAAAA"/>
<path d="M137.326 160.968V162.295L175.895 184.589V183.242L137.326 160.968Z" fill="#AAAAAA"/>
<path d="M137.326 165.326V166.674L175.895 188.947V187.6L137.326 165.326Z" fill="#AAAAAA"/>
<path d="M137.326 182.821V184.147L175.895 206.442V205.095L137.326 182.821Z" fill="#AAAAAA"/>
<path d="M137.326 187.179V188.526L175.895 210.8V209.453L137.326 187.179Z" fill="#AAAAAA"/>
<path d="M137.326 191.558V192.884L175.895 215.179V213.831L137.326 191.558Z" fill="#AAAAAA"/>
<path d="M137.326 195.916V197.263L175.895 219.537V218.189L137.326 195.916Z" fill="#AAAAAA"/>
<path d="M160.274 167.074L154.905 163.979V161.179L160.274 164.274V167.074Z" fill="white"/>
<path d="M160.274 167.074L161.853 166.232V163.432L160.274 164.274V167.074Z" fill="#C1C1C1"/>
<path d="M154.905 161.179L160.274 164.274L161.853 163.432L156.4 160.316L154.905 161.179Z" fill="#D3D3D3"/>
<path d="M308.189 201.768L313.558 198.674V195.874L308.189 198.968V201.768Z" fill="white"/>
<path d="M308.189 201.768L306.61 200.926V198.126L308.189 198.968V201.768Z" fill="#C1C1C1"/>
<path d="M313.558 195.874L308.189 198.968L306.61 198.126L312.063 195.01L313.558 195.874Z" fill="#D3D3D3"/>
<path d="M354.232 175.221L359.6 172.105V169.305L354.232 172.421V175.221Z" fill="white"/>
<path d="M354.232 175.221L352.653 174.358V171.558L354.232 172.421V175.221Z" fill="#C1C1C1"/>
<path d="M359.6 169.305L354.232 172.421L352.653 171.558L358.105 168.463L359.6 169.305Z" fill="#D3D3D3"/>
<path d="M400.526 148.253L405.895 145.158V142.358L400.526 145.453V148.253Z" fill="white"/>
<path d="M400.526 148.253L398.968 147.411V144.611L400.526 145.453V148.253Z" fill="#C1C1C1"/>
<path d="M405.895 142.358L400.526 145.453L398.968 144.61L404.4 141.516L405.895 142.358Z" fill="#D3D3D3"/>
<path d="M175.412 239.565L144.899 221.408L137.195 226.01L166.56 242.402L175.412 239.565Z" fill="#FF618B"/>
<path d="M135.669 220.954L119.19 231.041V270.38L126.44 266.194C127.259 260.596 130.663 254.846 134.749 252.413C138.834 249.979 142.251 251.934 143.07 256.599L148.467 253.485V228.343C148.469 226.844 148.077 225.372 147.329 224.073C146.58 222.775 145.503 221.696 144.205 220.947C142.907 220.198 141.435 219.804 139.936 219.805C138.437 219.806 136.966 220.203 135.669 220.954Z" fill="#FF618B"/>
<path d="M174.214 276.042L169.41 273.129L164.883 270.822C164.883 270.822 168.754 269.561 168.994 269.435C169.233 269.309 175.462 271.515 174.214 276.042Z" fill="#262626"/>
<path d="M168.388 276.306C168.388 280.921 165.589 286.28 162.084 288.272C158.579 290.264 155.78 288.158 155.78 283.544C155.78 278.929 158.579 273.57 162.084 271.578C165.589 269.586 168.388 271.692 168.388 276.306Z" fill="#303030"/>
<path d="M162.778 291.248L158.239 288.688L166.333 271.313L170.671 273.734L162.778 291.248Z" fill="#303030"/>
<path d="M173.104 278.929C173.104 283.544 170.292 288.902 166.8 290.895C163.307 292.887 160.495 290.769 160.495 286.166C160.495 281.564 163.307 276.193 166.8 274.201C170.292 272.209 173.104 274.314 173.104 278.929Z" fill="#494949"/>
<path d="M170.898 280.354C170.874 281.874 170.495 283.367 169.79 284.714C169.085 286.06 168.074 287.223 166.838 288.108C164.593 289.369 162.778 288.032 162.778 285.044C162.799 283.522 163.178 282.026 163.883 280.677C164.588 279.328 165.6 278.163 166.838 277.277C169.082 275.991 170.898 277.365 170.898 280.354Z" fill="#969696"/>
<path d="M169.75 281.009C169.731 282.101 169.458 283.173 168.953 284.14C168.447 285.107 167.723 285.944 166.838 286.582C165.224 287.503 163.925 286.519 163.925 284.376C163.94 283.285 164.212 282.214 164.718 281.248C165.224 280.282 165.95 279.449 166.838 278.815C168.439 277.882 169.75 278.866 169.75 281.009Z" fill="white"/>
<path d="M168.25 281.879C168.239 282.406 168.106 282.923 167.861 283.389C167.616 283.855 167.265 284.258 166.838 284.565C166.056 285.006 165.426 284.565 165.426 283.493C165.429 282.962 165.559 282.439 165.805 281.968C166.05 281.496 166.404 281.09 166.838 280.782C167.619 280.366 168.25 280.845 168.25 281.879Z" fill="#383838"/>
<path d="M167.102 279.635C167.101 279.736 167.076 279.835 167.03 279.924C166.985 280.014 166.919 280.092 166.838 280.152C166.686 280.228 166.56 280.152 166.56 279.938C166.563 279.838 166.59 279.74 166.638 279.652C166.686 279.564 166.755 279.489 166.838 279.433C166.989 279.345 167.102 279.433 167.102 279.635Z" fill="#383838"/>
<path d="M168.956 279.635C168.955 279.736 168.93 279.835 168.884 279.924C168.838 280.014 168.772 280.092 168.691 280.152C168.54 280.228 168.414 280.152 168.414 279.938C168.417 279.838 168.443 279.74 168.492 279.652C168.54 279.564 168.608 279.489 168.691 279.433C168.817 279.345 168.956 279.433 168.956 279.635Z" fill="#383838"/>
<path d="M165.426 281.652C165.425 281.753 165.401 281.853 165.355 281.942C165.309 282.032 165.242 282.11 165.161 282.169C165.009 282.258 164.883 282.169 164.883 281.968C164.885 281.866 164.911 281.766 164.96 281.676C165.008 281.586 165.077 281.509 165.161 281.451C165.312 281.362 165.426 281.451 165.426 281.652Z" fill="#383838"/>
<path d="M168.956 283.418C168.958 283.519 168.934 283.619 168.888 283.709C168.842 283.799 168.774 283.877 168.691 283.935C168.54 284.023 168.414 283.935 168.414 283.733C168.416 283.631 168.442 283.531 168.49 283.441C168.538 283.351 168.607 283.274 168.691 283.216C168.817 283.128 168.956 283.229 168.956 283.418Z" fill="#383838"/>
<path d="M165.426 285.448C165.425 285.548 165.401 285.648 165.355 285.738C165.309 285.827 165.242 285.905 165.161 285.965C165.009 286.053 164.883 285.965 164.883 285.75C164.886 285.65 164.913 285.552 164.961 285.464C165.009 285.377 165.078 285.302 165.161 285.246C165.312 285.158 165.426 285.246 165.426 285.448Z" fill="#383838"/>
<path d="M169.372 281.375C169.37 281.477 169.344 281.577 169.296 281.667C169.248 281.757 169.179 281.834 169.095 281.892C168.943 281.98 168.83 281.892 168.83 281.69C168.83 281.589 168.855 281.49 168.901 281.4C168.947 281.31 169.013 281.233 169.095 281.173C169.246 281.085 169.372 281.186 169.372 281.375Z" fill="#383838"/>
<path d="M164.883 283.96C164.883 284.061 164.859 284.16 164.813 284.25C164.767 284.34 164.7 284.417 164.619 284.477C164.467 284.565 164.341 284.477 164.341 284.275C164.343 284.173 164.369 284.073 164.417 283.983C164.466 283.893 164.535 283.816 164.619 283.758C164.77 283.67 164.883 283.758 164.883 283.96Z" fill="#383838"/>
<path d="M167.102 285.448C167.102 285.548 167.078 285.648 167.032 285.738C166.986 285.827 166.919 285.905 166.838 285.965C166.686 286.053 166.56 285.965 166.56 285.75C166.563 285.65 166.59 285.552 166.638 285.464C166.686 285.377 166.755 285.302 166.838 285.246C166.989 285.158 167.102 285.246 167.102 285.448Z" fill="#383838"/>
<path d="M124.876 290.441L147.206 277.668L159.739 284.905L137.308 297.754L124.876 290.441Z" fill="#6B6B6B"/>
<path d="M159.739 284.906L137.195 297.792V303.907L159.739 291.021V284.906Z" fill="#5B5B5B"/>
<path d="M158.302 290.188L146.046 297.224V297.917L158.302 290.882V290.188Z" fill="#8C8C8C"/>
<path d="M158.302 288.675L146.046 295.711V296.405L158.302 289.369V288.675Z" fill="#8C8C8C"/>
<path d="M151.19 250.181L167.531 240.384L134.799 221.484L118.673 231.407L151.19 250.181Z" fill="#F2466B"/>
<path d="M124.662 231.987C124.662 231.987 134.358 226.061 137.838 224.044C139.184 223.279 140.568 222.585 141.986 221.963C141.986 221.963 141.62 219 137.207 219.996C132.927 221.145 128.734 222.598 124.662 224.346V231.987Z" fill="#F2466B"/>
<path d="M166.737 235.454L140.889 220.337L126.2 225.241L151.455 242.402L166.737 235.454Z" fill="#F2466B"/>
<path d="M151.19 289.369L137.195 281.93V241.91L151.19 249.992V289.369Z" fill="#ED3554"/>
<path d="M151.455 247.508L124.649 232.63V224.359L151.455 239.88V247.508Z" fill="#ED3554"/>
<path d="M81.9183 320.941L88.8153 324.925V331.986L81.9183 328.002V320.941Z" fill="#303030"/>
<path d="M140.46 292.496C140.46 297.111 137.661 302.469 134.156 304.461C130.651 306.454 127.852 304.335 127.852 299.721C127.852 295.106 130.651 289.76 134.156 287.755C137.661 285.75 140.46 287.881 140.46 292.496Z" fill="#303030"/>
<path d="M134.85 307.437L130.31 304.877L138.405 287.49L142.743 289.924L134.85 307.437Z" fill="#303030"/>
<path d="M145.163 295.118C145.163 299.733 142.364 305.092 138.859 307.084C135.354 309.076 132.555 306.958 132.555 302.343C132.555 297.728 135.354 292.382 138.859 290.378C142.364 288.373 145.163 290.504 145.163 295.118Z" fill="#494949"/>
<path d="M142.969 296.531C142.948 298.053 142.57 299.549 141.864 300.898C141.159 302.247 140.147 303.411 138.909 304.298C136.665 305.558 134.849 304.209 134.849 301.221C134.873 299.701 135.252 298.208 135.957 296.861C136.662 295.514 137.674 294.352 138.909 293.467C141.217 292.13 142.969 293.542 142.969 296.531Z" fill="#969696"/>
<path d="M141.822 297.174C141.805 298.264 141.533 299.334 141.027 300.3C140.521 301.266 139.796 302.099 138.909 302.734C137.296 303.667 135.997 302.734 135.997 300.54C136.013 299.448 136.285 298.375 136.791 297.407C137.296 296.44 138.022 295.604 138.909 294.967C140.511 294.072 141.822 295.055 141.822 297.174Z" fill="white"/>
<path d="M140.309 298.069C140.302 298.595 140.171 299.112 139.928 299.578C139.685 300.044 139.336 300.447 138.909 300.755C138.128 301.208 137.497 300.755 137.497 299.695C137.506 299.167 137.638 298.647 137.884 298.179C138.129 297.71 138.48 297.306 138.909 296.997C139.679 296.556 140.309 297.035 140.309 298.069Z" fill="#383838"/>
<path d="M139.174 295.812C139.176 295.913 139.153 296.013 139.106 296.103C139.06 296.194 138.993 296.271 138.91 296.329C138.758 296.417 138.632 296.329 138.632 296.127C138.634 296.025 138.66 295.925 138.708 295.835C138.757 295.745 138.826 295.668 138.91 295.61C139.061 295.522 139.174 295.623 139.174 295.812Z" fill="#383838"/>
<path d="M141.003 295.812C141.001 295.913 140.976 296.012 140.931 296.101C140.885 296.191 140.819 296.269 140.738 296.329C140.586 296.417 140.46 296.329 140.46 296.127C140.462 296.025 140.488 295.925 140.537 295.835C140.585 295.745 140.654 295.668 140.738 295.61C140.876 295.522 141.003 295.623 141.003 295.812Z" fill="#383838"/>
<path d="M137.497 297.842C137.493 297.942 137.467 298.04 137.422 298.129C137.376 298.219 137.311 298.297 137.233 298.359C137.081 298.434 136.955 298.359 136.955 298.144C136.958 298.044 136.985 297.946 137.033 297.859C137.081 297.771 137.15 297.696 137.233 297.64C137.434 297.552 137.497 297.64 137.497 297.842Z" fill="#383838"/>
<path d="M141.003 299.607C141 299.708 140.975 299.806 140.929 299.896C140.883 299.985 140.818 300.063 140.738 300.124C140.586 300.212 140.46 300.124 140.46 299.922C140.462 299.82 140.488 299.72 140.537 299.63C140.585 299.54 140.654 299.463 140.738 299.405C140.876 299.317 141.003 299.405 141.003 299.607Z" fill="#383838"/>
<path d="M137.497 301.637C137.495 301.736 137.47 301.833 137.424 301.92C137.378 302.008 137.312 302.083 137.233 302.142C137.081 302.23 136.955 302.142 136.955 301.94C136.957 301.838 136.983 301.738 137.031 301.648C137.08 301.558 137.149 301.481 137.233 301.423C137.434 301.347 137.497 301.435 137.497 301.637Z" fill="#383838"/>
<path d="M141.444 297.565C141.442 297.667 141.416 297.767 141.368 297.856C141.319 297.946 141.25 298.023 141.166 298.081C141.015 298.17 140.902 298.081 140.902 297.88C140.902 297.779 140.926 297.679 140.972 297.59C141.018 297.5 141.085 297.422 141.166 297.363C141.318 297.275 141.444 297.363 141.444 297.565Z" fill="#383838"/>
<path d="M136.955 300.149C136.955 300.25 136.93 300.349 136.884 300.439C136.838 300.529 136.772 300.607 136.69 300.666C136.539 300.754 136.413 300.666 136.413 300.464C136.415 300.362 136.441 300.262 136.489 300.172C136.538 300.083 136.606 300.005 136.69 299.947C136.842 299.859 136.955 299.947 136.955 300.149Z" fill="#383838"/>
<path d="M139.174 301.637C139.174 301.736 139.15 301.834 139.104 301.922C139.057 302.009 138.991 302.085 138.91 302.142C138.758 302.23 138.632 302.142 138.632 301.94C138.634 301.838 138.66 301.738 138.708 301.648C138.757 301.558 138.826 301.481 138.91 301.423C139.061 301.347 139.174 301.435 139.174 301.637Z" fill="#383838"/>
<path d="M125.759 301.107C125.759 305.71 122.96 311.068 119.454 313.073C115.949 315.078 113.15 312.947 113.15 308.332C113.15 303.717 115.949 298.371 119.454 296.367C122.96 294.362 125.759 296.493 125.759 301.107Z" fill="#303030"/>
<path d="M120.148 316.036L115.609 313.489L123.704 296.102L128.041 298.535L120.148 316.036Z" fill="#303030"/>
<path d="M130.462 303.73C130.462 308.332 127.663 313.691 124.157 315.696C120.652 317.701 117.853 315.57 117.853 310.955C117.853 306.34 120.652 300.981 124.157 298.989C127.663 296.997 130.462 299.115 130.462 303.73Z" fill="#494949"/>
<path d="M128.268 305.142C128.244 306.664 127.865 308.159 127.16 309.508C126.455 310.857 125.444 312.022 124.208 312.909C121.963 314.17 120.148 312.821 120.148 309.833C120.169 308.312 120.548 306.818 121.253 305.471C121.958 304.124 122.97 302.962 124.208 302.078C126.452 300.78 128.268 302.217 128.268 305.142Z" fill="#969696"/>
<path d="M127.12 305.81C127.103 306.9 126.831 307.971 126.325 308.937C125.819 309.903 125.094 310.736 124.208 311.371C122.594 312.304 121.295 311.371 121.295 309.177C121.309 308.085 121.58 307.011 122.086 306.043C122.592 305.075 123.319 304.239 124.208 303.604C125.809 302.671 127.12 303.667 127.12 305.81Z" fill="white"/>
<path d="M125.607 306.681C125.598 307.206 125.467 307.722 125.224 308.188C124.981 308.654 124.633 309.058 124.208 309.366C123.426 309.82 122.796 309.366 122.796 308.307C122.802 307.778 122.934 307.258 123.179 306.789C123.425 306.32 123.777 305.916 124.208 305.609C124.977 305.168 125.607 305.634 125.607 306.681Z" fill="#383838"/>
<path d="M124.473 304.424C124.472 304.524 124.448 304.624 124.402 304.714C124.356 304.803 124.289 304.881 124.208 304.94C124.057 305.029 123.93 304.94 123.93 304.739C123.932 304.637 123.958 304.537 124.007 304.447C124.055 304.357 124.124 304.28 124.208 304.222C124.359 304.134 124.473 304.222 124.473 304.424Z" fill="#383838"/>
<path d="M126.301 304.424C126.298 304.524 126.273 304.623 126.228 304.712C126.182 304.802 126.116 304.88 126.036 304.94C125.885 305.029 125.759 304.94 125.759 304.739C125.761 304.637 125.787 304.537 125.835 304.447C125.883 304.357 125.952 304.28 126.036 304.222C126.175 304.134 126.301 304.222 126.301 304.424Z" fill="#383838"/>
<path d="M122.796 306.454C122.793 306.552 122.768 306.649 122.722 306.737C122.676 306.824 122.611 306.9 122.531 306.958C122.38 307.046 122.253 306.958 122.253 306.756C122.255 306.654 122.282 306.554 122.33 306.464C122.378 306.374 122.447 306.297 122.531 306.239C122.67 306.151 122.796 306.252 122.796 306.454Z" fill="#383838"/>
<path d="M126.301 308.219C126.298 308.319 126.273 308.418 126.228 308.508C126.182 308.597 126.116 308.675 126.036 308.736C125.885 308.824 125.759 308.736 125.759 308.534C125.761 308.432 125.787 308.332 125.835 308.242C125.883 308.152 125.952 308.075 126.036 308.017C126.175 307.929 126.301 308.017 126.301 308.219Z" fill="#383838"/>
<path d="M122.796 310.236C122.793 310.337 122.768 310.435 122.722 310.525C122.677 310.614 122.611 310.692 122.531 310.753C122.38 310.841 122.253 310.753 122.253 310.551C122.255 310.449 122.282 310.349 122.33 310.259C122.378 310.169 122.447 310.092 122.531 310.034C122.67 309.946 122.796 310.047 122.796 310.236Z" fill="#383838"/>
<path d="M126.742 306.176C126.74 306.278 126.714 306.378 126.666 306.468C126.618 306.558 126.549 306.635 126.465 306.693C126.313 306.781 126.2 306.693 126.2 306.491C126.2 306.391 126.225 306.291 126.271 306.201C126.317 306.112 126.383 306.034 126.465 305.974C126.616 305.886 126.742 306 126.742 306.176Z" fill="#383838"/>
<path d="M122.304 308.761C122.302 308.862 122.278 308.961 122.232 309.05C122.186 309.14 122.12 309.218 122.039 309.278C121.888 309.354 121.762 309.278 121.762 309.064C121.766 308.962 121.793 308.863 121.841 308.773C121.889 308.683 121.957 308.606 122.039 308.547C122.14 308.521 122.304 308.521 122.304 308.761Z" fill="#383838"/>
<path d="M124.473 310.236C124.472 310.337 124.448 310.436 124.402 310.526C124.356 310.616 124.289 310.694 124.208 310.753C124.057 310.841 123.93 310.753 123.93 310.551C123.932 310.449 123.958 310.349 124.007 310.259C124.055 310.169 124.124 310.092 124.208 310.034C124.359 309.946 124.473 310.047 124.473 310.236Z" fill="#383838"/>
<path d="M76.2823 318.671L103.984 302.255L116.517 309.492L88.8154 325.909L76.2823 318.671Z" fill="#6B6B6B"/>
<path d="M88.8154 325.871V331.986L116.517 315.608V309.492L88.8154 325.871Z" fill="#5B5B5B"/>
<path d="M88.8154 330.208V330.902L115.357 315.343V314.649L88.8154 330.208Z" fill="#8C8C8C"/>
<path d="M88.8154 328.695V329.389L115.357 313.83V313.124L88.8154 328.695Z" fill="#8C8C8C"/>
<path d="M83.028 325.543C83.028 330.158 80.2288 335.504 76.7236 337.509C73.2184 339.513 70.4193 337.383 70.4193 332.768C70.4193 328.153 73.2184 322.807 76.7236 320.802C80.2288 318.797 83.028 320.928 83.028 325.543Z" fill="#303030"/>
<path d="M77.4171 340.472L72.878 337.925L80.9727 320.537L85.3101 322.971L77.4171 340.472Z" fill="#303030"/>
<path d="M87.7437 328.166C87.7437 332.768 84.9319 338.127 81.4393 340.131C77.9467 342.136 75.135 340.005 75.135 335.391C75.135 330.776 77.9467 325.43 81.4393 323.425C84.9319 321.42 87.7437 323.551 87.7437 328.166Z" fill="#494949"/>
<path d="M85.5371 329.578C85.5137 331.1 85.1344 332.595 84.4293 333.943C83.7243 335.292 82.7132 336.457 81.4771 337.345C79.2328 338.606 77.4171 337.257 77.4171 334.268C77.4385 332.748 77.8171 331.254 78.5223 329.907C79.2276 328.56 80.2398 327.398 81.4771 326.514C83.7214 325.215 85.5371 326.59 85.5371 329.578Z" fill="#969696"/>
<path d="M84.3897 330.246C84.3747 331.337 84.1032 332.408 83.5972 333.374C83.0912 334.34 82.3649 335.173 81.4771 335.807C79.8632 336.74 78.5645 335.807 78.5645 333.613C78.5786 332.52 78.8495 331.447 79.3555 330.479C79.8615 329.51 80.5883 328.675 81.4771 328.04C83.091 327.107 84.3897 328.103 84.3897 330.246Z" fill="white"/>
<path d="M82.8893 331.116C82.8815 331.643 82.7496 332.161 82.5043 332.628C82.2589 333.094 81.907 333.497 81.4771 333.802C80.6954 334.256 80.0649 333.802 80.0649 332.743C80.0717 332.214 80.2031 331.693 80.4485 331.225C80.6938 330.756 81.0462 330.351 81.4771 330.044C82.2589 329.603 82.8893 330.07 82.8893 331.116Z" fill="#383838"/>
<path d="M81.7419 328.859C81.7414 328.96 81.7172 329.06 81.6712 329.149C81.6252 329.239 81.5587 329.317 81.4771 329.376C81.3258 329.465 81.1997 329.376 81.1997 329.175C81.2016 329.073 81.2278 328.972 81.276 328.883C81.3242 328.793 81.3932 328.716 81.4771 328.658C81.6284 328.569 81.7419 328.695 81.7419 328.859Z" fill="#383838"/>
<path d="M83.5701 328.859C83.5696 328.96 83.5454 329.06 83.4994 329.149C83.4534 329.239 83.3869 329.317 83.3053 329.376C83.154 329.465 83.028 329.376 83.028 329.175C83.0299 329.073 83.056 328.972 83.1043 328.883C83.1525 328.793 83.2214 328.716 83.3053 328.658C83.4566 328.569 83.5701 328.695 83.5701 328.859Z" fill="#383838"/>
<path d="M80.0649 330.889C80.0645 330.988 80.0402 331.086 79.9941 331.174C79.9481 331.262 79.8815 331.337 79.8002 331.394C79.6489 331.482 79.5228 331.394 79.5228 331.192C79.5266 331.09 79.5536 330.991 79.6017 330.901C79.6498 330.812 79.7176 330.734 79.8002 330.675C79.9515 330.599 80.0649 330.688 80.0649 330.889Z" fill="#383838"/>
<path d="M83.5701 332.654C83.5696 332.755 83.5454 332.855 83.4994 332.944C83.4534 333.034 83.3869 333.112 83.3053 333.171C83.154 333.26 83.028 333.171 83.028 332.97C83.0299 332.868 83.056 332.767 83.1043 332.678C83.1525 332.588 83.2214 332.511 83.3053 332.453C83.4566 332.364 83.5701 332.478 83.5701 332.654Z" fill="#383838"/>
<path d="M80.0649 334.672C80.0645 334.773 80.0402 334.872 79.9942 334.962C79.9482 335.052 79.8818 335.129 79.8002 335.189C79.6489 335.277 79.5228 335.189 79.5228 334.987C79.5247 334.885 79.5508 334.785 79.5991 334.695C79.6473 334.605 79.7162 334.528 79.8002 334.47C79.9515 334.382 80.0649 334.483 80.0649 334.672Z" fill="#383838"/>
<path d="M84.0115 330.612C84.0096 330.714 83.9834 330.814 83.9352 330.904C83.8869 330.994 83.818 331.071 83.7341 331.129C83.5954 331.217 83.4693 331.129 83.4693 330.927C83.4717 330.826 83.4967 330.728 83.5426 330.638C83.5884 330.549 83.6539 330.471 83.7341 330.41C83.8854 330.322 84.0115 330.41 84.0115 330.612Z" fill="#383838"/>
<path d="M79.5228 333.197C79.5214 333.297 79.4967 333.396 79.4508 333.486C79.4049 333.576 79.3389 333.654 79.2581 333.714C79.1068 333.789 78.9933 333.714 78.9933 333.499C78.9937 333.4 79.018 333.302 79.0641 333.215C79.1102 333.127 79.1767 333.052 79.2581 332.995C79.4346 332.907 79.5228 332.995 79.5228 333.197Z" fill="#383838"/>
<path d="M81.7419 334.672C81.7414 334.773 81.7172 334.872 81.6712 334.962C81.6252 335.052 81.5587 335.129 81.4771 335.189C81.3258 335.277 81.1997 335.189 81.1997 334.987C81.2016 334.885 81.2278 334.785 81.276 334.695C81.3242 334.605 81.3932 334.528 81.4771 334.47C81.6284 334.382 81.7419 334.483 81.7419 334.672Z" fill="#383838"/>
<path d="M69.9907 333.083C69.9907 337.698 67.1916 343.057 63.6863 345.049C60.1811 347.041 57.382 344.923 57.382 340.321C57.382 335.718 60.1811 330.347 63.6863 328.342C67.1916 326.338 69.9907 328.468 69.9907 333.083Z" fill="#303030"/>
<path d="M64.3798 348.024L59.8407 345.465L67.9355 328.09L72.2728 330.511L64.3798 348.024Z" fill="#303030"/>
<path d="M74.7062 335.706C74.7062 340.32 71.8945 345.679 68.4019 347.671C64.9093 349.663 62.0976 347.545 62.0976 342.93C62.0976 338.316 64.8967 332.97 68.4019 330.965C71.9071 328.96 74.7062 331.091 74.7062 335.706Z" fill="#494949"/>
<path d="M72.4997 337.118C72.4784 338.64 72.0998 340.136 71.3947 341.485C70.6895 342.834 69.6773 343.998 68.4397 344.885C66.1954 346.146 64.3798 344.797 64.3798 341.808C64.4031 340.288 64.7825 338.795 65.4877 337.448C66.1928 336.102 67.2039 334.939 68.4397 334.054C70.6841 332.755 72.4997 334.13 72.4997 337.118Z" fill="#969696"/>
<path d="M71.3524 337.786C71.3353 338.876 71.063 339.947 70.5572 340.912C70.0513 341.878 69.3261 342.712 68.4398 343.346C66.8258 344.279 65.5272 343.346 65.5272 341.152C65.5432 340.061 65.8151 338.988 66.3209 338.02C66.8267 337.052 67.5524 336.216 68.4398 335.579C70.0411 334.659 71.3524 335.642 71.3524 337.786Z" fill="white"/>
<path d="M69.8393 338.656C69.8262 339.176 69.693 339.685 69.4502 340.144C69.2074 340.604 68.8615 341.001 68.4398 341.304C67.658 341.758 67.0276 341.304 67.0276 340.245C67.0363 339.716 67.1686 339.197 67.4138 338.728C67.659 338.26 68.0103 337.855 68.4398 337.547C69.2089 337.143 69.8393 337.622 69.8393 338.656Z" fill="#383838"/>
<path d="M68.7045 336.399C68.7061 336.501 68.6828 336.601 68.6367 336.691C68.5905 336.781 68.5229 336.858 68.4397 336.916C68.2884 337.004 68.1624 336.916 68.1624 336.714C68.1643 336.612 68.1904 336.512 68.2387 336.423C68.2869 336.333 68.3558 336.256 68.4397 336.198C68.591 336.109 68.7045 336.261 68.7045 336.399Z" fill="#383838"/>
<path d="M70.5328 336.399C70.5314 336.5 70.5067 336.599 70.4608 336.689C70.4149 336.778 70.3489 336.856 70.2681 336.916C70.1167 337.004 69.9907 336.916 69.9907 336.714C69.9926 336.612 70.0187 336.512 70.067 336.423C70.1152 336.333 70.1841 336.256 70.2681 336.198C70.4067 336.109 70.5328 336.261 70.5328 336.399Z" fill="#383838"/>
<path d="M67.0276 338.429C67.0252 338.53 67.0001 338.628 66.9543 338.718C66.9084 338.808 66.843 338.886 66.7628 338.946C66.6115 339.034 66.4854 338.946 66.4854 338.744C66.4863 338.642 66.512 338.542 66.5603 338.452C66.6086 338.362 66.6781 338.285 66.7628 338.228C66.9015 338.139 67.0276 338.228 67.0276 338.429Z" fill="#383838"/>
<path d="M70.5328 340.194C70.5304 340.295 70.5054 340.394 70.4595 340.483C70.4137 340.573 70.3482 340.651 70.2681 340.711C70.1167 340.8 69.9907 340.711 69.9907 340.51C69.9926 340.408 70.0187 340.308 70.067 340.218C70.1152 340.128 70.1841 340.051 70.2681 339.993C70.4067 339.904 70.5328 340.043 70.5328 340.194Z" fill="#383838"/>
<path d="M67.0276 342.224C67.0252 342.323 67 342.42 66.9541 342.507C66.9082 342.595 66.8427 342.671 66.7628 342.729C66.6115 342.817 66.4854 342.729 66.4854 342.527C66.4893 342.425 66.5163 342.326 66.5643 342.236C66.6124 342.147 66.6803 342.069 66.7628 342.01C66.9015 341.934 67.0276 342.023 67.0276 342.224Z" fill="#383838"/>
<path d="M70.9741 338.152C70.9722 338.254 70.946 338.354 70.8978 338.444C70.8496 338.534 70.7807 338.611 70.6967 338.669C70.5454 338.757 70.4319 338.669 70.4319 338.467C70.4324 338.366 70.4566 338.267 70.5026 338.177C70.5486 338.087 70.6151 338.009 70.6967 337.95C70.848 337.862 70.9741 337.95 70.9741 338.152Z" fill="#383838"/>
<path d="M66.4854 340.737C66.4849 340.838 66.4607 340.937 66.4147 341.027C66.3687 341.117 66.3022 341.194 66.2206 341.254C66.0693 341.342 65.9432 341.254 65.9432 341.052C65.9452 340.95 65.9713 340.85 66.0195 340.76C66.0678 340.67 66.1367 340.593 66.2206 340.535C66.3719 340.447 66.4854 340.535 66.4854 340.737Z" fill="#383838"/>
<path d="M68.7045 342.224C68.7041 342.323 68.6798 342.421 68.6337 342.509C68.5876 342.597 68.5211 342.672 68.4397 342.729C68.2884 342.817 68.1624 342.729 68.1624 342.527C68.1662 342.425 68.1932 342.326 68.2413 342.236C68.2894 342.147 68.3572 342.069 68.4397 342.01C68.591 341.934 68.7045 342.023 68.7045 342.224Z" fill="#383838"/>
<path d="M59.2607 342.691L54.7594 340.358L60.1181 337.912L59.2607 342.691Z" fill="#494949"/>
<path d="M67.8976 328.077L67.4059 328.38C64.9203 329.85 62.8614 331.944 61.4329 334.454C60.0043 336.964 59.2556 339.803 59.2607 342.691L60.7611 341.77L60.8746 341.14C61.5116 337.427 63.4738 334.072 66.3972 331.696L67.0529 331.154L67.8976 328.077Z" fill="#969696"/>
<path d="M50.7751 292.042L144.457 237.976L111.587 219L17.9043 273.066L50.7751 292.042Z" fill="#EDEDED"/>
<path d="M22.8216 274.024L113.15 221.95L111.297 220.992L20.9556 273.066L22.8216 274.024Z" fill="#CCCCCC"/>
<path d="M50.9389 290.176L141.28 238.102L139.414 237.144L49.0854 289.218L50.9389 290.176Z" fill="#CCCCCC"/>
<path d="M19.1903 323.854V329.225L52.0611 348.188V342.83L19.1903 323.854Z" fill="#303030"/>
<path d="M53.5741 341.922L51.998 342.83V348.188L53.5741 347.28V341.922Z" fill="#494949"/>
<path d="M50.4976 346.335L48.3668 345.099V342.25L50.4976 343.485V346.335Z" fill="#ED3554"/>
<path d="M51.0776 343.157L50.4976 343.485V346.335L51.0776 346.007V343.157Z" fill="#DD1D35"/>
<path d="M51.0776 343.157L48.9342 341.922L48.3668 342.262L50.4976 343.485L51.0776 343.157Z" fill="#F95377"/>
<path d="M22.2165 329.452L20.073 328.216V325.367L22.2165 326.602V329.452Z" fill="#ED3554"/>
<path d="M22.7838 326.274L22.2164 326.602V329.452L22.7838 329.124V326.274Z" fill="#DD1D35"/>
<path d="M22.7839 326.274L20.653 325.039L20.073 325.379L22.2165 326.602L22.7839 326.274Z" fill="#F95377"/>
<path d="M17.9043 273.066V314.12V317.348V324.724L50.7751 343.7V336.324V333.108V292.042L17.9043 273.066Z" fill="#CCCCCC"/>
<path d="M49.6024 292.874L19.0769 275.134V311.611V314.485V323.891L19.1147 323.929L49.6024 306.34V292.874Z" fill="#494949"/>
<path d="M49.6024 306.34L19.1147 323.929L49.6024 341.619V306.34Z" fill="#5B5B5B"/>
<path d="M104.248 269.498L78.8545 284.149L75.0467 289.142L104.248 272.297V269.498Z" fill="white"/>
<path d="M104.248 264.555L84.9949 275.878L81.1745 280.871L104.248 267.354V264.555Z" fill="white"/>
<path d="M50.7751 291.941V333.108V338.858V343.7L144.457 289.646V284.817V279.042V237.875L50.7751 291.941Z" fill="#A5A5A5"/>
<path d="M56.1589 291.903L54.9485 292.609V337.824L56.1589 337.118V291.903Z" fill="#8E8E8E"/>
<path d="M61.6059 288.764L60.3828 289.47V334.684L61.6059 333.978V288.764Z" fill="#8E8E8E"/>
<path d="M80.2288 277.983L79.0057 278.689V323.904L80.2288 323.198V277.983Z" fill="#8E8E8E"/>
<path d="M85.6632 274.844L84.4528 275.55V320.764L85.6632 320.058V274.844Z" fill="#8E8E8E"/>
<path d="M91.4632 271.591L90.2527 272.284V317.511L91.4632 316.805V271.591Z" fill="#8E8E8E"/>
<path d="M96.9102 268.451L95.6871 269.157V314.372L96.9102 313.666V268.451Z" fill="#8E8E8E"/>
<path d="M102.811 264.82L101.601 265.513V310.728L102.811 310.034V264.82Z" fill="#8E8E8E"/>
<path d="M108.258 261.68L107.035 262.374V307.601L108.258 306.895V261.68Z" fill="#8E8E8E"/>
<path d="M130.525 248.731L129.314 249.425V294.639L130.525 293.946V248.731Z" fill="#8E8E8E"/>
<path d="M135.972 245.592L134.761 246.298V291.512L135.972 290.806V245.592Z" fill="#8E8E8E"/>
<path d="M139.414 290.289L141.545 289.054V286.204L139.414 287.44V290.289Z" fill="white"/>
<path d="M138.834 287.112L139.414 287.44V290.289L138.834 289.949V287.112Z" fill="#BBBBBB"/>
<path d="M138.834 287.112L140.977 285.876L141.545 286.204L139.414 287.44L138.834 287.112Z" fill="#CECECE"/>
<path d="M69.398 330.877L71.5415 329.641V326.791L69.398 328.027V330.877Z" fill="white"/>
<path d="M68.8306 327.699L69.398 328.027V330.876L68.8306 330.549V327.699Z" fill="#BBBBBB"/>
<path d="M68.8306 327.699L70.9615 326.464L71.5415 326.804L69.398 328.027L68.8306 327.699Z" fill="#CECECE"/>
<path d="M17.4503 274.554L0.996033 284.061V332.781L17.4503 323.286V274.554Z" fill="#CCCCCC"/>
<path d="M0.996084 332.78L0 332.049V283.329L0.996084 284.061V332.78Z" fill="#A5A5A5"/>
<path d="M17.4504 274.554L16.4669 273.822L0 283.329L0.996084 284.061L17.4504 274.554Z" fill="#EDEDED"/>
<path d="M2.69824 330.12L8.72518 326.754V281.413L2.69824 284.779V330.12Z" fill="#A5A5A5"/>
<path d="M10.1373 325.833L16.1643 322.467V277.126L10.1373 280.492V325.833Z" fill="#A5A5A5"/>
<path d="M167.594 239.93L151.127 250.017V289.369L158.377 285.183C159.184 279.585 162.601 273.759 166.686 271.402C170.772 269.044 174.252 270.922 174.995 275.588L180.405 272.461V247.332C180.403 245.833 180.007 244.361 179.258 243.064C178.508 241.766 177.43 240.689 176.133 239.939C174.835 239.189 173.363 238.794 171.865 238.792C170.366 238.791 168.893 239.183 167.594 239.93Z" fill="#DD1D35"/>
<path d="M163.295 242.654L162.248 243.246V276.042L163.295 274.743V242.654Z" fill="#C60A2A"/>
<path d="M166.686 272.246C162.979 274.39 159.89 279.66 159.121 284.729L158.352 285.183C159.159 279.585 162.576 273.759 166.661 271.402C170.746 269.044 174.226 270.922 174.97 275.588L174.189 276.041C173.482 271.805 170.393 270.103 166.686 272.246Z" fill="white"/>
<path d="M151.455 247.508C151.455 247.508 161.151 241.582 164.631 239.565C165.981 238.799 167.37 238.105 168.792 237.484C168.792 237.484 168.414 234.546 164.001 235.517C159.719 236.668 155.527 238.126 151.455 239.88V247.508Z" fill="#DD1D35"/>
<path d="M167.758 251.959C167.771 251.119 167.98 250.293 168.37 249.549C168.76 248.804 169.319 248.161 170.002 247.672L174.592 245.024C174.775 244.902 174.983 244.822 175.201 244.789C175.419 244.757 175.642 244.772 175.853 244.835C175.782 244.645 175.666 244.474 175.515 244.338C175.364 244.201 175.183 244.104 174.986 244.053C174.789 244.002 174.582 244 174.384 244.046C174.186 244.092 174.002 244.186 173.848 244.318L169.259 246.979C168.575 247.468 168.016 248.111 167.626 248.855C167.236 249.6 167.027 250.425 167.014 251.266V261.87C167.014 262.866 167.38 263.534 167.947 263.748C167.779 263.376 167.697 262.971 167.708 262.563L167.758 251.959Z" fill="#383838"/>
<path d="M169.309 263.572L173.899 260.911C174.582 260.422 175.141 259.779 175.531 259.035C175.921 258.29 176.13 257.465 176.143 256.624V246.02C176.153 245.612 176.071 245.207 175.903 244.835C175.692 244.772 175.47 244.756 175.252 244.789C175.034 244.822 174.826 244.902 174.642 245.024L170.053 247.672C169.37 248.161 168.81 248.804 168.421 249.549C168.031 250.293 167.821 251.119 167.809 251.959V262.563C167.798 262.971 167.88 263.376 168.048 263.748C168.259 263.81 168.48 263.827 168.698 263.796C168.915 263.766 169.124 263.689 169.309 263.572Z" fill="#494949"/>
<path d="M183.027 269.838L176.622 273.52V276.899L183.027 273.205V269.838Z" fill="#CCCCCC"/>
<path d="M174.895 272.524V275.89L176.622 276.899V273.52L174.895 272.524Z" fill="#A5A5A5"/>
<path d="M174.895 272.524L180.405 269.435V268.3L183.027 269.838L176.622 273.52L174.895 272.524Z" fill="#EDEDED"/>
<path d="M154.002 282.712L156.133 281.476V278.626L154.002 279.862V282.712Z" fill="white"/>
<path d="M153.435 279.521L154.002 279.862V282.711L153.435 282.371V279.521Z" fill="#BBBBBB"/>
<path d="M153.435 279.522L155.566 278.299L156.133 278.626L154.002 279.862L153.435 279.522Z" fill="#CECECE"/>
<path d="M49.6024 304.045L38.822 297.804V315.33L49.6024 321.584V304.045Z" fill="#DBA763"/>
<path d="M48.4802 292.218L38.822 297.804L49.6024 304.045V292.912L48.4802 292.218Z" fill="#FFE1C0"/>
<path d="M43.1342 304.524L45.719 306.025V301.788L43.1342 300.288V304.524Z" fill="#4D4D4D"/>
<path d="M49.6025 296.556L43.1342 300.288L45.719 301.801L49.6025 299.557V296.556Z" fill="#6D6D6D"/>
<path d="M41.495 303.667V306.252L39.629 305.18V302.583L41.495 303.667Z" fill="#4D4D4D"/>
<path d="M35.9977 330.473L36.0103 322.467L24.4103 315.759V323.74L35.9977 330.473Z" fill="#DBA763"/>
<path d="M35.9977 330.473L36.0103 322.467L47.6102 315.759V323.74L35.9977 330.473Z" fill="#E8B679"/>
<path d="M47.6103 315.759L36.0103 322.467L24.4103 315.759L35.9977 309.051L47.6103 315.759Z" fill="#FFE1C0"/>
<path d="M28.7225 322.479L31.3073 323.98V319.743L28.7225 318.243V322.479Z" fill="#4D4D4D"/>
<path d="M28.7225 318.243L40.3099 311.535L42.8947 313.035L31.3073 319.756L28.7225 318.243Z" fill="#6D6D6D"/>
<path d="M34.4721 328.393V327.649L30.576 325.392V326.148L34.4721 328.393Z" fill="#4D4D4D"/>
<path d="M34.4721 327.056V326.312L30.576 324.055V324.812L34.4721 327.056Z" fill="#4D4D4D"/>
<path d="M27.0834 321.622V324.207L25.2173 323.135V320.537L27.0834 321.622Z" fill="#4D4D4D"/>
<path d="M45.2776 321.786V324.484L47.1311 323.412V320.701L45.2776 321.786Z" fill="#4D4D4D"/>
<path d="M42.7307 323.261V325.959L44.5968 324.875V322.177L42.7307 323.261Z" fill="#4D4D4D"/>
<path d="M36.5147 322.807V326.678L40.3351 324.471V320.588L36.5147 322.807Z" fill="white"/>
<path d="M36.9812 323.601V322.958L39.9947 321.231V321.849L36.9812 323.601Z" fill="#4D4D4D"/>
<path d="M49.5772 330.284L39.7425 324.597V332.579L49.5772 338.278V330.284Z" fill="#DBA763"/>
<path d="M49.5772 318.924L39.7425 324.597L49.5772 330.271V318.924Z" fill="#FFE1C0"/>
<path d="M44.0673 331.318L46.652 332.818V328.582L44.0673 327.081V331.318Z" fill="#4D4D4D"/>
<path d="M49.5772 323.891L44.0673 327.081L46.652 328.582L49.5772 326.892V323.891Z" fill="#6D6D6D"/>
<path d="M49.5772 321.634L45.2651 319.138V323.816L49.5772 326.312V321.634Z" fill="#DBA763"/>
<path d="M49.5772 316.654L45.2651 319.15L49.5772 321.647V316.654Z" fill="#FFE1C0"/>
<path d="M49.5772 321.647L47.1564 320.235V322.706L49.5772 324.106V321.647Z" fill="#4D4D4D"/>
<path d="M35.8843 320.411V315.734L28.3947 311.396V316.074L35.8843 320.411Z" fill="#DBA763"/>
<path d="M35.8842 320.411V315.734L44.6346 310.677V315.355L35.8842 320.411Z" fill="#E8B679"/>
<path d="M44.6347 310.678L35.8843 315.734L28.3947 311.396L37.1325 306.353L44.6347 310.678Z" fill="#FFE1C0"/>
<path d="M35.3169 319.554V319.075L32.8077 317.612V318.104L35.3169 319.554Z" fill="#4D4D4D"/>
<path d="M35.3169 318.684V318.205L32.8077 316.755V317.234L35.3169 318.684Z" fill="#4D4D4D"/>
<path d="M42.7559 312.569V314.75L44.2563 313.88V311.711L42.7559 312.569Z" fill="#4D4D4D"/>
<path d="M36.4768 316.225V318.823L40.2972 316.603V314.006L36.4768 316.225Z" fill="white"/>
<path d="M36.9434 317.02V316.377L39.9568 314.649V315.267L36.9434 317.02Z" fill="#4D4D4D"/>
<path d="M30.286 314.952L32.8708 316.452V313.994L30.286 312.493V314.952Z" fill="#4D4D4D"/>
<path d="M30.286 312.493L39.0238 307.437L41.6212 308.938L32.8708 313.994L30.286 312.493Z" fill="#6D6D6D"/>
<path d="M48.2407 292.773L64.7076 302.28V351L48.2407 341.506V292.773Z" fill="#CCCCCC"/>
<path d="M64.7076 351L65.6911 350.269V301.549L64.7076 302.28V351Z" fill="#8E8E8E"/>
<path d="M48.2407 292.773L49.2368 292.042L65.6911 301.549L64.7076 302.28L48.2407 292.773Z" fill="#EDEDED"/>
<path d="M62.9928 348.34L56.9659 344.973V299.632L62.9928 302.999V348.34Z" fill="#A5A5A5"/>
<path d="M55.5663 344.053L49.5394 340.686V295.345L55.5663 298.712V344.053Z" fill="#A5A5A5"/>
<path d="M253.188 327.057C251.078 329.381 249.162 331.874 247.462 334.513L240.583 338.499V344.618V344.732L255.417 335.956C255.163 335.262 255.042 334.526 255.059 333.788C255.059 330.413 257.104 326.497 259.639 325.046C260.202 324.699 260.849 324.512 261.51 324.504V321.593C258.398 322.84 255.569 324.698 253.188 327.057Z" fill="#424242"/>
<path d="M253.887 327.756C251.854 330.034 250.023 332.485 248.415 335.081L241.291 339.181V345.3V345.414L256.081 336.672C255.828 335.981 255.706 335.249 255.723 334.513C255.723 331.139 257.768 327.223 260.303 325.772C260.866 325.416 261.517 325.228 262.183 325.23V322.293C259.082 323.544 256.261 325.401 253.887 327.756Z" fill="#5B5B5B"/>
<path d="M260.12 323.272L259.08 322.686V288.979L261.16 287.039L260.12 323.272Z" fill="#303030"/>
<path d="M262.209 323.202L260.12 324.399V288.979L262.209 287.039V323.202Z" fill="#5B5B5B"/>
<path d="M261.099 285.255L249.648 291.803C246.151 293.839 243.083 298.918 242.41 303.918L240.189 338.578L241.343 339.452L242.357 337.337L244.315 304.626C244.901 300.256 247.558 295.798 250.644 294.014L261.134 288.026L261.099 285.255Z" fill="#424242"/>
<path d="M262.209 286.086L261.099 285.255L259.639 286.086L261.029 287.318L262.209 286.086Z" fill="#424242"/>
<path d="M262.2 286.13L250.749 292.633C247.252 294.67 244.193 299.749 243.511 304.757L241.343 339.207V339.644L243.476 338.176L245.426 305.466C246.02 301.095 248.669 296.637 251.754 294.862L262.244 288.866L262.2 286.13Z" fill="#5B5B5B"/>
<path d="M243.092 345.029C243.092 347.748 241.439 350.895 239.411 352.066C237.383 353.237 235.723 351.996 235.723 349.286C235.723 346.576 237.375 343.421 239.411 342.293C241.448 341.166 243.092 342.319 243.092 345.029Z" fill="#303030"/>
<path d="M239.744 353.814L237.077 352.311L241.833 342.092L244.385 343.526L239.744 353.814Z" fill="#303030"/>
<path d="M245.81 346.576C245.81 349.286 244.167 352.433 242.13 353.57C240.093 354.706 238.45 353.491 238.45 350.781C238.45 348.071 240.102 344.924 242.13 343.744C244.158 342.564 245.81 343.867 245.81 346.576Z" fill="#494949"/>
<path d="M245.015 347.127C244.997 348.205 244.727 349.264 244.226 350.219C243.725 351.174 243.007 351.998 242.13 352.625C240.539 353.543 239.254 352.573 239.254 350.449C239.27 349.37 239.538 348.31 240.038 347.354C240.537 346.397 241.254 345.571 242.13 344.942C243.721 344.024 245.015 345.003 245.015 347.127Z" fill="white"/>
<path d="M244.307 347.529C244.297 348.345 244.095 349.147 243.716 349.87C243.338 350.593 242.795 351.217 242.13 351.69C240.932 352.39 239.962 351.69 239.962 350.047C239.977 349.234 240.181 348.436 240.557 347.715C240.933 346.995 241.472 346.371 242.13 345.895C243.336 345.195 244.307 345.93 244.307 347.529Z" fill="#303030"/>
<path d="M242.96 348.307C242.95 348.621 242.866 348.929 242.714 349.204C242.562 349.479 242.347 349.714 242.086 349.889C241.632 350.152 241.256 349.889 241.256 349.269C241.261 348.958 241.339 348.654 241.483 348.379C241.627 348.104 241.834 347.867 242.086 347.687C242.585 347.416 242.96 347.695 242.96 348.307Z" fill="white"/>
<path d="M281.501 334.793L262.209 323.665C259.436 324.873 256.915 326.593 254.779 328.735C252.671 331.062 250.759 333.559 249.062 336.2L243.59 339.365V345.571L252.506 340.326L268.966 350.405L281.501 334.793Z" fill="#FFBA76"/>
<path d="M260.854 308.403L262.209 307.528L263.704 308.403L261.973 309.915L260.854 308.403Z" fill="#707070"/>
<path d="M282.935 319.504L262.209 307.528V323.359L282.935 335.326V319.504Z" fill="#707070"/>
<path d="M276.676 300.99L256.361 289.399V290.369L276.676 302.144V300.99Z" fill="#303030"/>
<path d="M276.947 337.564L280.461 335.536L260.845 324.19L257.55 326.34L276.947 337.564Z" fill="#FFC999"/>
<path d="M281.58 320.37L260.854 308.403V324.233L281.58 336.192V320.37Z" fill="#494949"/>
<path d="M282.629 340.449C282.629 343.167 280.986 346.314 278.949 347.442C276.912 348.569 275.269 347.372 275.269 344.662C275.269 341.952 276.912 338.84 278.931 337.704C280.951 336.567 282.629 337.704 282.629 340.449Z" fill="#303030"/>
<path d="M279.325 349.234L276.667 347.73L281.423 337.512L283.975 338.936L279.325 349.234Z" fill="#303030"/>
<path d="M285.4 341.996C285.4 344.706 283.748 347.853 281.72 348.989C279.692 350.125 278.057 348.954 278.057 346.244C278.057 343.534 279.709 340.388 281.746 339.251C283.783 338.115 285.4 339.286 285.4 341.996Z" fill="#494949"/>
<path d="M284.596 342.547C284.58 343.624 284.312 344.683 283.812 345.638C283.313 346.593 282.596 347.417 281.72 348.045C280.129 348.919 278.835 347.993 278.835 345.868C278.853 344.79 279.123 343.731 279.624 342.776C280.125 341.821 280.843 340.997 281.72 340.37C283.302 339.452 284.596 340.423 284.596 342.547Z" fill="white"/>
<path d="M283.888 342.949C283.874 343.763 283.671 344.563 283.295 345.285C282.919 346.007 282.379 346.632 281.72 347.11C280.514 347.8 279.543 347.066 279.543 345.466C279.558 344.651 279.762 343.851 280.14 343.129C280.518 342.406 281.059 341.782 281.72 341.305C282.917 340.615 283.888 341.349 283.888 342.949Z" fill="#303030"/>
<path d="M282.542 343.727C282.538 344.036 282.462 344.341 282.319 344.616C282.177 344.891 281.971 345.128 281.72 345.309C281.257 345.571 280.846 345.309 280.846 344.688C280.854 344.374 280.938 344.066 281.09 343.791C281.242 343.516 281.458 343.281 281.72 343.106C282.174 342.835 282.542 343.115 282.542 343.727Z" fill="white"/>
<path d="M240.189 338.482V344.688L262.681 357.669V351.463L240.189 338.482Z" fill="#424242"/>
<path d="M274.561 339.312C272.484 341.672 270.612 344.204 268.966 346.882L261.973 350.764V356.883V356.996L276.79 348.194C276.54 347.498 276.419 346.764 276.431 346.026C276.431 342.651 278.486 338.735 281.012 337.284C281.574 336.928 282.226 336.74 282.891 336.742V333.849C279.777 335.095 276.945 336.953 274.561 339.312Z" fill="#424242"/>
<path d="M275.269 340.02C273.237 342.306 271.406 344.762 269.797 347.363L262.672 351.463V357.582V357.696L277.463 348.954C277.233 348.25 277.138 347.508 277.183 346.769C277.183 343.395 279.229 339.47 281.764 338.027C282.325 337.679 282.973 337.494 283.634 337.494V334.557C280.509 335.802 277.665 337.659 275.269 340.02Z" fill="#5B5B5B"/>
<path d="M263.398 336.428C262.147 336.088 260.936 335.613 259.788 335.012C258.575 334.335 257.475 333.474 256.527 332.459C256.351 332.287 256.217 332.076 256.136 331.843C256.054 331.611 256.028 331.362 256.058 331.118C256.089 330.873 256.175 330.639 256.311 330.434C256.447 330.228 256.629 330.057 256.842 329.933L261.108 327.468C261.739 327.015 262.489 326.757 263.266 326.724C264.042 326.692 264.811 326.886 265.478 327.284C266.352 327.966 268.101 329.496 269.045 330.011C269.989 330.527 271.545 330.886 272.358 331.261C273.407 331.716 273.328 333.01 272.043 333.788L267.769 336.253C266.492 336.996 264.464 336.699 263.398 336.428Z" fill="#303030"/>
<path d="M259.796 330.02C259.796 330.02 256.571 328.403 256.3 329.26C256.126 329.863 256.029 330.485 256.011 331.113L259.761 331.331L259.796 330.02Z" fill="#303030"/>
<path d="M272.751 330.108C272.227 329.382 269.097 330.982 269.097 330.982V332.546L273.092 332.232C273.209 331.505 273.089 330.761 272.751 330.108Z" fill="#303030"/>
<path d="M263.442 334.435C262.231 334.102 261.059 333.642 259.945 333.062C258.792 332.383 257.734 331.554 256.798 330.597C256.628 330.43 256.499 330.226 256.42 330.001C256.342 329.777 256.316 329.537 256.344 329.3C256.373 329.064 256.456 328.837 256.586 328.637C256.716 328.438 256.89 328.271 257.095 328.15L261.221 325.772C261.833 325.334 262.559 325.084 263.311 325.053C264.062 325.022 264.806 325.211 265.452 325.597C266.326 326.253 268.074 327.739 268.896 328.219C269.718 328.7 271.318 329.094 272.104 329.417C273.127 329.863 273.048 331.165 271.798 331.856L267.672 334.242C266.422 334.977 264.464 334.697 263.442 334.435Z" fill="#3A3A3A"/>
<path d="M274.823 327.739V320.44C274.823 317.887 273.249 314.889 271.326 313.787L269.508 312.738C267.594 311.628 266.012 312.817 266.012 315.361V322.651L274.823 327.739Z" fill="#303030"/>
<path d="M267.209 312.581L265.723 313.464L267.052 314.347L267.209 312.581Z" fill="#FFA543"/>
<path d="M273.372 328.595L274.823 327.73L273.11 326.043L273.372 328.595Z" fill="#303030"/>
<path d="M273.372 328.595V321.305C273.372 318.744 271.807 315.754 269.875 314.644L268.066 313.595C266.143 312.494 264.569 313.674 264.569 316.218V323.517L273.372 328.595Z" fill="#3A3A3A"/>
<path d="M262.681 351.48L269.797 347.363L247.471 334.513L240.329 338.596L262.681 351.48Z" fill="#303030"/>
<path d="M262.978 309.137C262.978 309.137 261.929 309.084 260.837 311.121C259.744 313.158 258.712 315.343 258.712 315.343C259.961 315.627 261.105 316.253 262.017 317.153C264.368 315.02 264.753 310.125 262.978 309.137Z" fill="#33A9C4"/>
<path d="M262.978 309.137C262.488 310.167 262.108 311.245 261.842 312.354C261.3 314.434 261.492 324.128 261.492 324.128C263.302 325.196 265.41 325.644 267.498 325.405C268.78 325.323 269.985 324.761 270.872 323.831C270.872 323.831 272.209 314.347 272.026 312.983C271.842 311.62 269.001 308.438 269.001 308.438C269.001 308.438 265.242 308.245 262.978 309.137Z" fill="#40B8CC"/>
<path d="M265.548 307.808L265.111 310.352C265.111 310.352 266.414 311.803 267.681 310.719C268.271 310.3 268.765 309.76 269.132 309.137L268.503 305.64L265.548 307.808Z" fill="#FFAD97"/>
<path d="M267.34 301.864C266.959 301.578 266.514 301.389 266.043 301.313C265.572 301.238 265.09 301.279 264.639 301.432C264.188 301.586 263.78 301.847 263.453 302.193C263.125 302.54 262.887 302.961 262.76 303.42C261.772 306.2 264.289 309.67 265.627 309.084C266.905 308.478 267.909 307.414 268.442 306.104C268.647 305.362 268.654 304.58 268.46 303.836C268.267 303.091 267.881 302.411 267.34 301.864Z" fill="#FFC5B3"/>
<path d="M262.532 304.285C262.834 304.617 263.22 304.862 263.65 304.993C264.079 305.123 264.536 305.136 264.971 305.028C265.639 304.916 266.279 304.678 266.859 304.329C266.859 304.329 267.734 304.897 268.022 305.072C268.311 305.247 268.407 306.104 268.407 306.104C268.64 305.723 268.791 305.298 268.85 304.855C268.909 304.412 268.874 303.962 268.748 303.534C268.52 302.493 267.498 300.299 265.548 300.483C264.788 300.512 264.057 300.782 263.46 301.253C262.863 301.724 262.431 302.373 262.226 303.105C262.181 303.312 262.185 303.527 262.238 303.732C262.291 303.937 262.392 304.127 262.532 304.285Z" fill="#4D4D4D"/>
<path d="M265.662 314.889C265.662 314.889 267.314 312.406 268.625 311.707C269.342 311.3 270.118 311.005 270.924 310.833C270.924 310.833 270.347 309.88 270.05 309.766C269.245 309.914 268.474 310.211 267.777 310.64C266.554 311.382 265.531 312.412 264.796 313.639C263.73 315.457 264.945 315.947 265.662 314.889Z" fill="#0E6989"/>
<path d="M262.838 309.146C262.37 310.235 262.022 311.373 261.798 312.537C261.667 313.77 261.912 314.146 262.41 314.189C262.908 314.233 262.935 313.315 263.083 312.371C263.232 311.427 264.001 308.857 264.001 308.857L262.838 309.146Z" fill="#0E6989"/>
<path d="M250.653 342.774C249.857 343.552 249.613 343.77 248.905 344.522C248.476 344.942 248.835 345.326 249.656 345.291C250.77 345.182 251.867 344.944 252.926 344.583C253.763 344.219 254.567 343.783 255.33 343.281C255.671 343.089 255.929 342.778 256.055 342.407V341.069L252.156 341.2C252.156 341.2 251.51 341.935 250.653 342.774Z" fill="#4D4D4D"/>
<path d="M258.398 346.209C257.602 346.987 257.358 347.215 256.65 347.958C256.221 348.377 256.58 348.762 257.401 348.736C258.514 348.622 259.611 348.384 260.671 348.028C261.52 347.67 262.339 347.243 263.118 346.751C263.459 346.559 263.718 346.248 263.844 345.877V343.517L259.901 344.697C259.901 344.697 259.254 345.379 258.398 346.209Z" fill="#4D4D4D"/>
<path d="M271.117 323.333C271.117 323.333 264.001 325.44 260.059 323.954C258.678 324.784 254.893 327.004 253.677 327.861C252.934 328.394 252.594 329.531 252.305 332.101C251.833 336.34 251.475 341.2 251.475 341.2C251.813 341.597 252.238 341.909 252.718 342.114C253.197 342.319 253.717 342.41 254.237 342.381C255.114 342.377 255.984 342.22 256.807 341.917L257.078 332.136L263.477 328.438C263.477 328.438 259.875 330.711 259.351 332.678C258.943 334.257 258.734 335.881 258.73 337.512C258.59 341.821 258.546 344.636 258.546 344.636C258.684 345.097 258.981 345.494 259.385 345.755C259.789 346.016 260.273 346.124 260.749 346.061C261.755 345.976 262.702 345.55 263.433 344.854L263.817 334.985C263.817 334.985 268.818 331.585 270.269 329.915C271.886 328.088 271.117 323.333 271.117 323.333Z" fill="#0E6989"/>
<path d="M271.064 322.258C271.064 322.258 269.421 323.394 268.232 323.263C267.183 323.149 265.671 322.127 265.749 318.814C265.758 317.192 265.89 315.573 266.143 313.971L262.139 312.223C261.294 314.616 260.854 317.133 260.837 319.67C260.644 324.592 260.574 326.34 260.574 326.34C262.839 326.482 265.11 326.482 267.375 326.34C268.72 326.249 270.044 325.954 271.3 325.466L271.064 322.258Z" fill="#0E6989"/>
<path d="M262.602 313.123C262.602 313.333 262.489 313.499 262.349 313.499C262.209 313.499 262.095 313.333 262.095 313.123C262.095 312.913 262.209 312.756 262.349 312.756C262.489 312.756 262.602 312.922 262.602 313.123Z" fill="white"/>
<path d="M265.006 314.242C264.948 314.304 264.916 314.385 264.916 314.469C264.916 314.554 264.948 314.635 265.006 314.697C265.12 314.775 265.303 314.697 265.426 314.539C265.548 314.382 265.548 314.181 265.426 314.093C265.303 314.006 265.12 314.102 265.006 314.242Z" fill="white"/>
<path d="M261.816 314.731C261.658 315.553 261.737 318.167 263.214 318.551C264.552 318.91 264.901 317.328 265.207 316.113C264.02 315.808 262.879 315.343 261.816 314.731Z" fill="#1A8AA8"/>
<path d="M267.122 317.905C266.739 318.867 266.274 319.794 265.732 320.676C265.321 321.27 262.856 322.931 261.894 323.691C262.401 324.074 262.806 324.575 263.074 325.151C264.505 324.565 265.875 323.842 267.165 322.992C268.219 321.974 269.16 320.846 269.971 319.627C269.971 319.627 269.132 317.485 267.122 317.905Z" fill="#FFC5B3"/>
<path d="M271.545 311.812C270.741 311.174 269.036 313.35 268.136 314.705C267.478 315.778 266.93 316.914 266.501 318.097C266.501 318.097 267.594 318.892 268.564 319.504C269.107 319.832 269.67 320.124 270.251 320.378C270.251 320.378 274.281 314.015 271.545 311.812Z" fill="#33A9C4"/>
<path d="M267.681 302.013C269.255 302.633 269.596 303.883 268.45 304.792C267.724 305.257 266.899 305.545 266.042 305.634C265.185 305.724 264.318 305.612 263.512 305.308C261.938 304.688 261.588 303.437 262.742 302.528C263.468 302.062 264.292 301.772 265.15 301.682C266.008 301.593 266.875 301.706 267.681 302.013Z" fill="#FFBA76"/>
<path d="M262.078 303.883C262.078 303.883 261.449 299.836 264.945 299.32C269.027 298.717 269.158 303.516 269.158 303.516L262.078 303.883Z" fill="#FFBA76"/>
<path d="M262.025 303.289C262.025 303.289 260.321 304.88 262.384 305.772C265.88 307.275 268.748 304.504 268.748 304.504C268.748 304.504 265.032 305.378 263.144 304.565C261.868 303.997 262.025 303.289 262.025 303.289Z" fill="#FFA543"/>
<path d="M265.443 299.556C264.916 299.882 264.529 300.393 264.359 300.99C264.201 301.337 264.186 301.732 264.316 302.091C264.447 302.449 264.714 302.741 265.059 302.904C265.552 303.217 265.982 303.621 266.326 304.093C266.348 303.844 266.314 303.593 266.226 303.358C266.139 303.124 265.999 302.912 265.819 302.738C265.172 302.196 264.56 301.908 264.945 300.99C265.378 300.257 266.081 299.724 266.903 299.504C266.903 299.504 266.352 299.023 265.443 299.556Z" fill="#FFA543"/>
<path d="M264.945 299.32C264.396 299.534 263.911 299.887 263.538 300.343C263.345 300.649 263.363 301.689 263.179 301.951C262.829 302.311 262.455 302.647 262.06 302.957C262.06 302.957 261.781 302.694 262.13 302.222C262.48 301.75 262.908 301.698 262.943 300.99C262.935 300.518 262.69 299.46 264.945 299.32Z" fill="#FFA543"/>
<path d="M270.968 304.312L250.644 292.721V293.691L270.968 305.474V304.312Z" fill="#303030"/>
<path d="M258.704 332.52C258.198 332.507 257.704 332.362 257.27 332.101C255.426 331.034 253.983 328.289 253.983 325.842C253.929 325.299 254.017 324.751 254.239 324.253C254.461 323.754 254.81 323.323 255.251 323.001C255.631 322.806 256.058 322.718 256.485 322.747C256.911 322.777 257.322 322.922 257.672 323.167C259.517 324.233 260.959 326.978 260.959 329.417C261.016 329.959 260.93 330.507 260.71 331.006C260.489 331.504 260.141 331.936 259.7 332.258C259.398 332.434 259.053 332.524 258.704 332.52ZM256.247 323.534C256.039 323.531 255.833 323.585 255.653 323.691C255.334 323.944 255.086 324.275 254.933 324.652C254.78 325.028 254.727 325.438 254.779 325.842C254.794 326.931 255.064 328.002 255.566 328.969C256.068 329.935 256.79 330.771 257.672 331.41C257.904 331.58 258.177 331.684 258.464 331.712C258.75 331.74 259.038 331.69 259.298 331.567C259.615 331.314 259.862 330.983 260.015 330.606C260.168 330.23 260.222 329.82 260.172 329.417C260.172 327.267 258.879 324.775 257.279 323.857C256.971 323.658 256.614 323.546 256.247 323.534Z" fill="#303030"/>
<path d="M260.277 328.98L254.499 325.641V326.288L260.277 329.618V328.98Z" fill="#303030"/>
<path d="M257.594 331.83L257.183 331.602V323.665L257.594 323.91V331.83Z" fill="#303030"/>
<path d="M258.066 327.966C258.064 327.723 258.004 327.483 257.892 327.267C257.779 327.052 257.617 326.866 257.419 326.725C257.346 326.681 257.263 326.657 257.178 326.657C257.094 326.657 257.01 326.681 256.938 326.725C256.894 326.725 256.877 326.795 256.842 326.829C256.842 326.829 254.753 328.962 253.433 330.536C252.113 332.109 249.936 334.373 249.936 334.373L251.029 336.83C251.029 336.83 253.651 333.464 255.399 331.358C257.148 329.251 257.865 328.499 257.865 328.499C257.937 328.432 257.993 328.349 258.028 328.256C258.063 328.164 258.076 328.064 258.066 327.966Z" fill="#303030"/>
<path d="M262.366 323.333C261.992 323.576 261.586 323.767 261.16 323.901C260.641 324.05 260.085 324.006 259.595 323.779C259.427 323.694 259.242 323.649 259.053 323.649C258.865 323.649 258.679 323.694 258.511 323.779C258.625 323.901 258.861 324.12 258.861 324.12C258.861 324.12 257.768 324.19 257.524 324.994C257.41 325.396 257.524 325.431 257.777 325.545C257.777 325.737 257.777 325.982 258.188 326.025C258.275 326.139 258.599 326.629 258.844 326.655C259.98 326.786 261.038 326.034 261.553 325.833C262.281 325.6 262.989 325.308 263.669 324.959C263.529 324.277 262.847 323.796 262.366 323.333Z" fill="#FFC5B3"/>
<path d="M258.922 315.335C257.693 316.901 256.646 318.602 255.802 320.405C255.352 321.294 255.077 322.261 254.989 323.254C255.007 323.551 255.091 323.84 255.233 324.101C255.375 324.362 255.572 324.589 255.81 324.767C255.848 324.796 255.893 324.815 255.94 324.822C255.987 324.83 256.035 324.826 256.08 324.81C256.125 324.794 256.165 324.768 256.198 324.733C256.23 324.698 256.253 324.655 256.265 324.609C256.476 324.582 256.69 324.577 256.903 324.592C257.104 324.592 257.524 324.041 257.524 324.041C257.524 324.041 256.92 323.849 256.999 323.482C257.093 323.321 257.208 323.174 257.34 323.045L258.083 323.447C258.083 323.447 257.55 322.572 257.427 322.345C257.328 322.203 257.267 322.037 257.253 321.864C257.2 321.401 259.525 318.77 259.788 318.447C260.299 317.809 260.739 317.117 261.099 316.384C260.818 316.189 260.526 316.01 260.225 315.85C259.83 315.592 259.387 315.417 258.922 315.335Z" fill="#FFC5B3"/>
<path d="M257.384 339.408L255.277 340.624L246.78 335.711L248.878 334.487L257.384 339.408Z" fill="#707070"/>
<path d="M246.78 335.711V342.555L255.277 347.459V340.615L246.78 335.711Z" fill="#424242"/>
<path d="M257.384 339.408L255.277 340.624V347.206L257.384 345.991V339.408Z" fill="#494949"/>
<path d="M245.723 311.515L242.322 313.481V353.491L245.723 351.533V311.515Z" fill="#5B5B5B"/>
<path d="M240.731 312.555V351.402L242.322 352.32V313.481L240.731 312.555Z" fill="#424242"/>
<path d="M245.723 311.515L244.167 310.597L240.731 312.555L242.322 313.481L245.723 311.515Z" fill="#707070"/>
<path d="M249.482 317.939L243.703 314.609V315.911L249.482 319.242V317.939Z" fill="#FFBA76"/>
<path d="M252.322 318.455L244.691 314.05L243.703 314.626L252.322 319.6V318.455Z" fill="#FFC999"/>
<path d="M249.482 322.485L243.703 319.155V320.457L249.482 323.788V322.485Z" fill="#FFBA76"/>
<path d="M252.322 323.001L244.691 318.595L243.703 319.163L252.322 324.137V323.001Z" fill="#FFC999"/>
<path d="M253.144 315.947L249.744 317.905V356.751L253.144 354.785V315.947Z" fill="#5B5B5B"/>
<path d="M248.144 316.987V355.825L249.744 356.752V317.905L248.144 316.987Z" fill="#424242"/>
<path d="M253.144 315.946L251.588 315.02L248.144 316.987L249.744 317.905L253.144 315.946Z" fill="#707070"/>
<path d="M258.887 354.007C258.887 356.716 257.235 359.863 255.198 361C253.162 362.136 251.518 360.921 251.518 358.211C251.518 355.501 253.17 352.355 255.198 351.174C257.226 349.994 258.887 351.297 258.887 354.007Z" fill="#303030"/>
<path d="M255.583 362.783L252.917 361.288L257.672 351.07L260.225 352.494L255.583 362.783Z" fill="#303030"/>
<path d="M261.65 355.545C261.65 358.255 260.006 361.411 257.969 362.538C255.933 363.666 254.289 362.468 254.289 359.758C254.289 357.049 255.933 353.893 257.969 352.765C260.006 351.638 261.65 352.835 261.65 355.545Z" fill="#494949"/>
<path d="M260.854 356.061C260.837 357.14 260.567 358.201 260.066 359.157C259.566 360.114 258.847 360.939 257.969 361.568C256.378 362.442 255.085 361.507 255.085 359.391C255.102 358.312 255.371 357.251 255.872 356.295C256.373 355.338 257.092 354.513 257.969 353.884C259.56 353.001 260.854 353.972 260.854 356.061Z" fill="white"/>
<path d="M260.146 356.507C260.128 357.322 259.921 358.121 259.54 358.842C259.159 359.563 258.615 360.185 257.952 360.659C256.754 361.349 255.775 360.615 255.775 359.015C255.791 358.202 255.996 357.403 256.374 356.683C256.752 355.962 257.292 355.339 257.952 354.863C259.167 354.164 260.146 354.907 260.146 356.507Z" fill="#303030"/>
<path d="M258.826 357.285C258.814 357.598 258.729 357.905 258.577 358.18C258.425 358.454 258.211 358.69 257.952 358.867C257.497 359.129 257.078 358.867 257.078 358.237C257.088 357.923 257.172 357.616 257.324 357.341C257.476 357.066 257.691 356.831 257.952 356.655C258.424 356.393 258.826 356.673 258.826 357.285Z" fill="white"/>
<path d="M281.501 335.536L280.461 334.95V301.244L282.542 299.294L281.501 335.536Z" fill="#303030"/>
<path d="M283.582 335.457L281.501 336.664V301.244L283.582 299.294V335.457Z" fill="#5B5B5B"/>
<path d="M282.48 297.493L271.064 304.058C267.568 306.095 264.508 311.182 263.835 316.183L261.571 350.86L263.695 349.601L265.653 316.891C266.239 312.52 268.896 308.071 271.982 306.287L282.472 300.291L282.48 297.493Z" fill="#424242"/>
<path d="M283.582 298.35L282.48 297.52L281.021 298.35L282.41 299.583L283.582 298.35Z" fill="#424242"/>
<path d="M262.401 351.795L261.571 350.86L262.681 349.007L263.861 350.519L262.401 351.795Z" fill="#424242"/>
<path d="M283.582 298.368L272.131 304.915C268.634 306.952 265.566 312.03 264.893 317.039L262.681 351.48V351.926L264.805 350.458L266.763 317.747C267.358 313.377 270.006 308.918 273.092 307.135L283.582 301.147V298.368Z" fill="#5B5B5B"/>
<path d="M240.032 333.246L239.044 333.823V351.69L240.032 351.297V333.246Z" fill="#FFA543"/>
<path d="M252.585 348.683L251.588 349.26L239.044 342.022L240.023 341.454L252.585 348.683Z" fill="#FFC999"/>
<path d="M252.585 356.227L251.588 356.795L239.044 349.557L240.023 348.989L252.585 356.227Z" fill="#707070"/>
<path d="M251.588 340.973L237.89 333.062V334.365L251.588 342.276V340.973Z" fill="#FFBA76"/>
<path d="M252.585 344.531L251.588 345.108L239.044 337.87L240.023 337.293L252.585 344.531Z" fill="#FFC999"/>
<path d="M252.585 340.396L251.588 340.973V359.024L252.585 358.447V340.396Z" fill="#FFA543"/>
<path d="M252.585 340.396L251.588 340.973L237.89 333.062L238.869 332.494L252.585 340.396Z" fill="#FFC999"/>
<path d="M251.588 345.108L237.89 337.197V338.499L251.588 346.41V345.108Z" fill="#FFBA76"/>
<path d="M251.588 349.26L237.89 341.349V342.652L251.588 350.563V349.26Z" fill="#FFBA76"/>
<path d="M239.044 351.69L237.89 351.069V333.281L239.044 333.945V351.69Z" fill="#FFBA76"/>
<path d="M251.588 359.024L250.434 358.36V340.458L251.588 341.122V359.024Z" fill="#FFBA76"/>
<path d="M251.588 356.743L237.89 348.902V350.86L251.588 358.71V356.743Z" fill="#424242"/>
<path d="M252.585 359.286L225.617 374.811L222.226 372.862L249.193 357.337L252.585 359.286Z" fill="#707070"/>
<path d="M225.617 374.811V374.033L252.585 358.517V359.286L225.617 374.811Z" fill="#424242"/>
<path d="M222.226 372.084V372.862L225.617 374.811V374.033L222.226 372.084Z" fill="#303030"/>
<path d="M252.585 358.508L225.617 374.033L222.226 372.084L249.193 356.559L252.585 358.508Z" fill="#707070"/>
<path d="M241.3 352.722L214.341 368.246L210.949 366.297L237.917 350.772L241.3 352.722Z" fill="#707070"/>
<path d="M214.341 368.246V367.468L241.3 351.952V352.722L214.341 368.246Z" fill="#424242"/>
<path d="M210.949 365.519V366.297L214.341 368.246V367.468L210.949 365.519Z" fill="#303030"/>
<path d="M241.3 351.944L214.341 367.468L210.949 365.519L237.917 349.994L241.3 351.944Z" fill="#707070"/>
<path d="M272.183 304.032L250.976 291.811L249.997 292.38L271.213 304.618L272.183 304.032Z" fill="#424242"/>
<path d="M277.9 300.71L256.693 288.481L255.714 289.049L276.93 301.296L277.9 300.71Z" fill="#424242"/>
<path d="M281.72 298.131L261.396 286.54V287.519L281.72 299.294V298.131Z" fill="#303030"/>
<path d="M282.935 297.852L261.099 285.255L260.12 285.841L281.965 298.437L282.935 297.852Z" fill="#424242"/>
<path d="M254.001 292.633C254.001 293.394 252.812 294.014 251.378 294.014C249.945 294.014 248.756 293.394 248.756 292.633C248.756 291.873 249.936 291.261 251.378 291.261C252.821 291.261 254.001 291.881 254.001 292.633Z" fill="#303030"/>
<path d="M254.001 292.179H248.712V292.642H254.001V292.179Z" fill="#303030"/>
<path d="M254.001 292.179C254.001 292.939 252.812 293.551 251.378 293.551C249.945 293.551 248.756 292.939 248.756 292.179C248.756 291.418 249.936 290.797 251.378 290.797C252.821 290.797 254.001 291.418 254.001 292.179Z" fill="#707070"/>
<path d="M253.52 292.065C253.52 292.686 252.55 293.193 251.352 293.193C250.155 293.193 249.211 292.686 249.211 292.065C249.211 291.444 250.163 290.937 251.352 290.937C252.541 290.937 253.52 291.444 253.52 292.065Z" fill="#DD1D35"/>
<path d="M249.56 287.318L249.193 292.065H253.52L253.153 287.318H249.56Z" fill="#DD1D35"/>
<path d="M253.153 287.318C253.153 287.843 252.349 288.262 251.352 288.262C250.356 288.262 249.551 287.878 249.551 287.318C249.551 286.759 250.364 286.383 251.352 286.383C252.34 286.383 253.153 286.803 253.153 287.318Z" fill="#FF618B"/>
<path d="M251.352 287.974C252.028 287.974 252.576 287.688 252.576 287.336C252.576 286.983 252.028 286.698 251.352 286.698C250.676 286.698 250.128 286.983 250.128 287.336C250.128 287.688 250.676 287.974 251.352 287.974Z" fill="#DD1D35"/>
<path d="M251.116 362.591L231.221 374.094L231.841 374.488L251.798 362.958L251.116 362.591Z" fill="#E06F22"/>
<path d="M251.798 362.958L231.841 374.479V377.32L251.798 365.799V362.958Z" fill="#AF4C09"/>
<path d="M231.221 376.962V374.094L231.841 374.479V377.32L231.221 376.962Z" fill="#C65C14"/>
<path d="M228.904 349.706L209 361.21L209.621 361.594L229.577 350.073L228.904 349.706Z" fill="#E06F22"/>
<path d="M229.577 350.064L209.621 361.594V364.435L229.577 352.905V350.064Z" fill="#AF4C09"/>
<path d="M209 364.077V361.21L209.621 361.594V364.435L209 364.077Z" fill="#C65C14"/>
<path d="M239.691 355.834L219.787 367.329L220.408 367.722L240.364 356.201L239.691 355.834Z" fill="#E06F22"/>
<path d="M240.364 356.192L220.408 367.722V370.563L240.364 359.033V356.192Z" fill="#AF4C09"/>
<path d="M219.787 370.205V367.329L220.408 367.722V370.563L219.787 370.205Z" fill="#C65C14"/>
<path d="M231.841 373.614L209 360.423V361.349L231.841 374.532V373.614Z" fill="#C65C14"/>
<path d="M234.228 372.276L231.841 373.614L209 360.423L211.386 359.085L234.228 372.276Z" fill="#E06F22"/>
<path d="M234.228 372.276L231.841 373.614V375.327L234.228 373.928V372.276Z" fill="#AF4C09"/>
<path d="M236.291 370.991L213.388 357.748V358.666L236.291 371.909V370.991Z" fill="#C65C14"/>
<path d="M238.686 369.654L236.291 370.991L213.388 357.748L215.775 356.411L238.686 369.654Z" fill="#E06F22"/>
<path d="M238.686 369.654L236.291 370.991V372.696L238.686 371.306V369.654Z" fill="#AF4C09"/>
<path d="M240.854 368.404L217.899 355.134V356.052L240.854 369.322V368.404Z" fill="#C65C14"/>
<path d="M243.249 367.066L240.854 368.404L217.899 355.134L220.276 353.797L243.249 367.066Z" fill="#E06F22"/>
<path d="M243.249 367.066L240.854 368.404V370.117L243.249 368.718V367.066Z" fill="#AF4C09"/>
<path d="M245.303 365.781L222.401 352.591V353.508L245.303 366.699V365.781Z" fill="#C65C14"/>
<path d="M247.698 364.444L245.303 365.781L222.401 352.59L224.787 351.253L247.698 364.444Z" fill="#E06F22"/>
<path d="M247.698 364.444L245.303 365.781V367.495L247.698 366.096V364.444Z" fill="#AF4C09"/>
<path d="M249.403 363.474L226.448 350.23V351.157L249.403 364.391V363.474Z" fill="#C65C14"/>
<path d="M251.798 362.136L249.403 363.474L226.448 350.23L228.826 348.893L251.798 362.136Z" fill="#E06F22"/>
<path d="M251.798 362.136L249.403 363.474V365.187L251.798 363.797V362.136Z" fill="#AF4C09"/>
<path d="M230.259 360.624V348.176L240.198 342.433V354.863L230.259 360.624Z" fill="#DBA763"/>
<path d="M230.259 360.624V348.176L220.311 342.433V354.863L230.259 360.624Z" fill="#E8B679"/>
<path d="M220.311 342.433L230.259 348.176L240.198 342.433L230.259 336.69L220.311 342.433Z" fill="#FFE1C0"/>
<path d="M236.501 348.185L234.289 349.479V345.842L236.501 344.557V348.185Z" fill="#4D4D4D"/>
<path d="M236.5 344.557L226.57 338.814L224.35 340.099L234.289 345.851L236.5 344.557Z" fill="#6D6D6D"/>
<path d="M231.57 358.841V358.202L234.91 356.271V356.917L231.57 358.841Z" fill="#4D4D4D"/>
<path d="M231.57 357.696V357.057L234.91 355.126V355.772L231.57 357.696Z" fill="#4D4D4D"/>
<path d="M237.908 353.036V355.257L239.508 354.339V352.11L237.908 353.036Z" fill="#4D4D4D"/>
<path d="M222.497 352.809V355.117L220.906 354.199V351.882L222.497 352.809Z" fill="#4D4D4D"/>
<path d="M224.682 354.068V356.384L223.082 355.458V353.15L224.682 354.068Z" fill="#4D4D4D"/>
<path d="M224.184 346.043V349.374L220.906 347.477V344.146L224.184 346.043Z" fill="white"/>
<path d="M223.782 346.725V346.183L221.203 344.697V345.23L223.782 346.725Z" fill="#4D4D4D"/>
<path d="M241.133 366.839L241.125 354.391L251.072 348.648V361.078L241.133 366.839Z" fill="#DBA763"/>
<path d="M241.133 366.839L241.125 354.391L231.186 348.648V361.078L241.133 366.839Z" fill="#E8B679"/>
<path d="M231.186 348.648L241.125 354.391L251.072 348.648L241.133 342.896L231.186 348.648Z" fill="#FFE1C0"/>
<path d="M247.375 354.4L245.154 355.694V352.057L247.375 350.772V354.4Z" fill="#4D4D4D"/>
<path d="M247.375 350.772L237.445 345.029L235.224 346.314L245.154 352.066L247.375 350.772Z" fill="#6D6D6D"/>
<path d="M242.445 365.056V364.418L245.784 362.486V363.133L242.445 365.056Z" fill="#4D4D4D"/>
<path d="M242.445 363.911V363.273L245.784 361.341V361.988L242.445 363.911Z" fill="#4D4D4D"/>
<path d="M248.773 359.251V361.472L250.373 360.554V358.325L248.773 359.251Z" fill="#4D4D4D"/>
<path d="M233.371 359.024V361.332L231.771 360.414V358.098L233.371 359.024Z" fill="#4D4D4D"/>
<path d="M235.548 360.283V362.599L233.957 361.673V359.365L235.548 360.283Z" fill="#4D4D4D"/>
<path d="M235.058 352.258V355.589L231.771 353.692V350.361L235.058 352.258Z" fill="white"/>
<path d="M234.656 352.94V352.398L232.069 350.912V351.445L234.656 352.94Z" fill="#4D4D4D"/>
<path d="M220.023 366.795L220.014 354.347L229.962 348.604V361.035L220.023 366.795Z" fill="#DBA763"/>
<path d="M220.023 366.795L220.014 354.347L210.075 348.604V361.035L220.023 366.795Z" fill="#E8B679"/>
<path d="M210.075 348.604L220.014 354.348L229.962 348.604L220.023 342.853L210.075 348.604Z" fill="#FFE1C0"/>
<path d="M226.264 354.356L224.044 355.65V352.014L226.264 350.729V354.356Z" fill="#4D4D4D"/>
<path d="M226.264 350.729L216.334 344.985L214.114 346.27L224.044 352.022L226.264 350.729Z" fill="#6D6D6D"/>
<path d="M221.334 365.012V364.374L224.673 362.442V363.089L221.334 365.012Z" fill="#4D4D4D"/>
<path d="M221.334 363.867V363.229L224.673 361.297V361.944L221.334 363.867Z" fill="#4D4D4D"/>
<path d="M227.672 359.208V361.428L229.263 360.501V358.29L227.672 359.208Z" fill="#4D4D4D"/>
<path d="M212.261 358.981V361.288L210.67 360.37V358.054L212.261 358.981Z" fill="#4D4D4D"/>
<path d="M214.437 360.239V362.556L212.846 361.629V359.321L214.437 360.239Z" fill="#4D4D4D"/>
<path d="M213.948 352.223V355.545L210.67 353.648V350.318L213.948 352.223Z" fill="white"/>
<path d="M213.546 352.897V352.355L210.967 350.869V351.402L213.546 352.897Z" fill="#4D4D4D"/>
<path d="M230.888 373.01V360.563L240.827 354.82V367.25L230.888 373.01Z" fill="#DBA763"/>
<path d="M230.889 373.01V360.563L220.95 354.82V367.25L230.889 373.01Z" fill="#E8B679"/>
<path d="M220.95 354.82L230.889 360.563L240.828 354.82L230.889 349.068L220.95 354.82Z" fill="#FFE1C0"/>
<path d="M237.139 360.571L234.918 361.865V358.229L237.139 356.944V360.571Z" fill="#4D4D4D"/>
<path d="M237.139 356.944L227.208 351.201L224.988 352.486L234.918 358.237L237.139 356.944Z" fill="#6D6D6D"/>
<path d="M232.208 371.227V370.589L235.539 368.657V369.304L232.208 371.227Z" fill="#4D4D4D"/>
<path d="M232.208 370.082V369.444L235.539 367.512V368.159L232.208 370.082Z" fill="#4D4D4D"/>
<path d="M238.537 365.423V367.643L240.137 366.717V364.505L238.537 365.423Z" fill="#4D4D4D"/>
<path d="M223.135 365.196V367.503L221.535 366.586V364.269L223.135 365.196Z" fill="#4D4D4D"/>
<path d="M225.311 366.454V368.771L223.712 367.844V365.536L225.311 366.454Z" fill="#4D4D4D"/>
<path d="M224.813 358.43V361.76L221.535 359.863V356.533L224.813 358.43Z" fill="white"/>
<path d="M224.42 359.112V358.57L221.832 357.084V357.617L224.42 359.112Z" fill="#4D4D4D"/>
<path d="M230.259 347.538V335.09L240.198 329.347V341.777L230.259 347.538Z" fill="#DBA763"/>
<path d="M230.259 347.538V335.09L220.311 329.347V341.777L230.259 347.538Z" fill="#E8B679"/>
<path d="M220.311 329.347L230.259 335.09L240.198 329.347L230.259 323.595L220.311 329.347Z" fill="#FFE1C0"/>
<path d="M236.501 335.099L234.289 336.384V332.756L236.501 331.471V335.099Z" fill="#4D4D4D"/>
<path d="M236.5 331.471L226.57 325.728L224.35 327.013L234.289 332.756L236.5 331.471Z" fill="#6D6D6D"/>
<path d="M231.57 345.755V345.117L234.91 343.176V343.832L231.57 345.755Z" fill="#4D4D4D"/>
<path d="M231.57 344.61V343.971L234.91 342.031V342.686L231.57 344.61Z" fill="#4D4D4D"/>
<path d="M237.908 339.95V342.171L239.508 341.244V339.024L237.908 339.95Z" fill="#4D4D4D"/>
<path d="M222.497 339.714V342.031L220.906 341.113V338.797L222.497 339.714Z" fill="#4D4D4D"/>
<path d="M224.682 340.982V343.298L223.082 342.372V340.064L224.682 340.982Z" fill="#4D4D4D"/>
<path d="M224.184 332.957V336.279L220.906 334.382V331.06L224.184 332.957Z" fill="white"/>
<path d="M223.782 333.639V333.097L221.203 331.611V332.144L223.782 333.639Z" fill="#4D4D4D"/>
<path d="M241.133 353.753L241.125 341.305L251.072 335.562V347.993L241.133 353.753Z" fill="#DBA763"/>
<path d="M241.133 353.753L241.125 341.305L231.186 335.562V347.993L241.133 353.753Z" fill="#E8B679"/>
<path d="M231.186 335.562L241.125 341.305L251.072 335.562L241.133 329.81L231.186 335.562Z" fill="#FFE1C0"/>
<path d="M247.375 341.314L245.154 342.599V338.971L247.375 337.686V341.314Z" fill="#4D4D4D"/>
<path d="M247.375 337.686L237.445 331.943L235.224 333.228L245.154 338.971L247.375 337.686Z" fill="#6D6D6D"/>
<path d="M242.445 351.97V351.332L245.784 349.391V350.038L242.445 351.97Z" fill="#4D4D4D"/>
<path d="M242.445 350.825V350.187L245.784 348.246V348.902L242.445 350.825Z" fill="#4D4D4D"/>
<path d="M248.773 346.166V348.386L250.373 347.459V345.239L248.773 346.166Z" fill="#4D4D4D"/>
<path d="M233.371 345.938V348.246L231.771 347.319V345.012L233.371 345.938Z" fill="#4D4D4D"/>
<path d="M235.548 347.197V349.514L233.957 348.587V346.279L235.548 347.197Z" fill="#4D4D4D"/>
<path d="M235.058 339.172V342.494L231.771 340.597V337.276L235.058 339.172Z" fill="white"/>
<path d="M234.656 339.854V339.312L232.069 337.826V338.36L234.656 339.854Z" fill="#4D4D4D"/>
<path d="M220.023 353.709L220.014 341.262L229.962 335.519V347.949L220.023 353.709Z" fill="#DBA763"/>
<path d="M220.023 353.709L220.014 341.262L210.075 335.519V347.949L220.023 353.709Z" fill="#E8B679"/>
<path d="M210.075 335.519L220.014 341.262L229.962 335.519L220.023 329.767L210.075 335.519Z" fill="#FFE1C0"/>
<path d="M226.264 341.27L224.044 342.555V338.928L226.264 337.634V341.27Z" fill="#4D4D4D"/>
<path d="M226.264 337.634L216.334 331.9L214.114 333.185L224.044 338.928L226.264 337.634Z" fill="#6D6D6D"/>
<path d="M221.334 351.926V351.288L224.673 349.347V350.003L221.334 351.926Z" fill="#4D4D4D"/>
<path d="M221.334 350.781V350.143L224.673 348.211V348.858L221.334 350.781Z" fill="#4D4D4D"/>
<path d="M227.672 346.122V348.342L229.263 347.416V345.195L227.672 346.122Z" fill="#4D4D4D"/>
<path d="M212.261 345.886V348.202L210.67 347.284V344.968L212.261 345.886Z" fill="#4D4D4D"/>
<path d="M214.437 347.153V349.47L212.846 348.543V346.235L214.437 347.153Z" fill="#4D4D4D"/>
<path d="M213.948 339.129V342.45L210.67 340.562V337.232L213.948 339.129Z" fill="white"/>
<path d="M213.546 339.81V339.269L210.967 337.782V338.316L213.546 339.81Z" fill="#4D4D4D"/>
<path d="M230.888 359.925V347.477L240.827 341.734V354.164L230.888 359.925Z" fill="#DBA763"/>
<path d="M230.889 359.925V347.477L220.95 341.734V354.164L230.889 359.925Z" fill="#E8B679"/>
<path d="M220.95 341.734L230.889 347.477L240.828 341.734L230.889 335.982L220.95 341.734Z" fill="#FFE1C0"/>
<path d="M237.139 347.486L234.918 348.771V345.143L237.139 343.849V347.486Z" fill="#4D4D4D"/>
<path d="M237.139 343.849L227.208 338.115L224.988 339.4L234.918 345.143L237.139 343.849Z" fill="#6D6D6D"/>
<path d="M232.208 358.141V357.503L235.539 355.563V356.218L232.208 358.141Z" fill="#4D4D4D"/>
<path d="M232.208 356.996V356.358L235.539 354.426V355.073L232.208 356.996Z" fill="#4D4D4D"/>
<path d="M238.537 352.337V354.557L240.137 353.631V351.411L238.537 352.337Z" fill="#4D4D4D"/>
<path d="M223.135 352.101V354.418L221.535 353.5V351.183L223.135 352.101Z" fill="#4D4D4D"/>
<path d="M225.311 353.368V355.685L223.712 354.758V352.442L225.311 353.368Z" fill="#4D4D4D"/>
<path d="M224.813 345.344V348.666L221.535 346.777V343.447L224.813 345.344Z" fill="white"/>
<path d="M224.42 346.026V345.484L221.832 343.998V344.531L224.42 346.026Z" fill="#4D4D4D"/>
</svg>
