<svg width="16" height="19" viewBox="0 0 16 19" fill="none" xmlns="http://www.w3.org/2000/svg">
<path fill-rule="evenodd" clip-rule="evenodd" d="M14.9242 13.7027C14.4328 13.0939 13.6349 12.2118 12.9518 12.1282C12.5362 12.0774 12.0586 12.4162 11.5879 12.7359C11.4961 12.781 10.7866 13.1967 10.7005 13.2215C10.2459 13.3491 9.27575 13.3864 8.68909 12.8601C8.12424 12.3519 7.23105 11.411 6.51007 10.5493C5.82123 9.66157 5.0991 8.59426 4.72943 7.93919C4.34368 7.26041 4.62151 6.36252 4.86031 5.96722C4.90393 5.89606 5.43204 5.36185 5.55029 5.23761L5.56751 5.25794C6.00492 4.89652 6.463 4.52946 6.51466 4.1319C6.59962 3.47006 5.91193 2.50666 5.42056 1.89677C4.92919 1.28575 4.16803 0.216182 3.13133 0.367525C2.74099 0.423997 2.40461 0.558398 2.07282 0.75153L2.06363 0.741365C2.05674 0.745883 2.0246 0.77073 2.00852 0.783154C1.99819 0.788801 1.98901 0.792189 1.97982 0.797837L1.98327 0.802354C1.79269 0.946921 1.24851 1.34674 1.18651 1.40095C0.51375 1.98938 -0.49884 3.37519 0.284138 5.86783C0.865056 7.72009 2.10381 9.89536 3.79146 12.0955L3.78228 12.1034C3.86494 12.2096 3.9499 12.3056 4.036 12.4083C4.11636 12.5134 4.19558 12.6173 4.27824 12.7212L4.28972 12.7133C6.0807 14.8355 7.95892 16.5319 9.67298 17.5325C11.9806 18.8788 13.6212 18.2723 14.3789 17.79C14.4501 17.7437 14.9919 17.3292 15.1756 17.1926L15.1802 17.1971C15.1871 17.1903 15.1917 17.1813 15.2009 17.1745C15.2147 17.1643 15.2445 17.1418 15.2503 17.1372L15.2434 17.1282C15.5212 16.8639 15.7439 16.5816 15.8978 16.2258C16.3007 15.2895 15.4156 14.3137 14.9242 13.7027Z" fill="white"/>
</svg>
