<svg width="22" height="23" viewBox="0 0 22 23" fill="none" xmlns="http://www.w3.org/2000/svg">
<path fill-rule="evenodd" clip-rule="evenodd" d="M0 11.353C0 17.4282 4.92487 22.353 11 22.353C17.0751 22.353 22 17.4282 22 11.353C22 5.27789 17.0751 0.353027 11 0.353027C4.92487 0.353027 0 5.27789 0 11.353ZM6.80958 17.9367V15.5887C5.33907 14.4696 4.4 12.7653 4.4 10.8566C4.4 7.48566 7.32876 4.75303 10.9416 4.75303C14.5547 4.75303 17.4832 7.48566 17.4832 10.8566C17.4832 14.2272 14.5547 16.9601 10.9416 16.9601C10.2676 16.9601 9.61704 16.8649 9.00505 16.6885L6.80958 17.9367Z" fill="white"/>
<path d="M10.2431 9.18506L6.71521 12.9203L9.92585 11.1588L11.6034 12.9203L15.1113 9.18506L11.9363 10.9158L10.2431 9.18506Z" fill="white"/>
</svg>
