<svg width="79" height="31" viewBox="0 0 79 31" fill="none" xmlns="http://www.w3.org/2000/svg">
<path d="M50.6836 12.2831L59.5796 11.5938L62.1035 3.03547L65.5081 11.2831L74.4275 11.0387L67.6356 16.8254L70.6242 25.2327L63.022 20.5614L55.9497 26.0017L58.0431 17.3281L50.6836 12.2831Z" fill="#052941"/>
<path d="M28.4484 24.1785L29.7576 17.1614L23.6669 13.4391L30.7451 12.5159L32.4031 5.57299L35.4684 12.0195L42.5838 11.4508L37.4001 16.3582L40.1397 22.9497L33.8707 19.5361L28.4484 24.1785Z" fill="#052941"/>
<path d="M6.51278 22.0134L7.49473 16.7506L2.92667 13.9589L8.23531 13.2665L9.47881 8.05932L11.7778 12.8942L17.1144 12.4677L13.2266 16.1482L15.2813 21.0918L10.5795 18.5316L6.51278 22.0134Z" fill="#052941"/>
</svg>
