<svg width="23" height="23" viewBox="0 0 23 23" fill="none" xmlns="http://www.w3.org/2000/svg">
<path fill-rule="evenodd" clip-rule="evenodd" d="M11.5 0.353027C17.8513 0.353027 23 5.27789 23 11.353C23 17.4282 17.8513 22.353 11.5 22.353C5.14873 22.353 0 17.4282 0 11.353C0 5.27789 5.14873 0.353027 11.5 0.353027ZM14.5638 9.95896C14.5079 9.52432 14.3682 9.18304 14.1202 8.88074C13.7981 8.49149 13.3866 8.2584 12.7772 8.12013C12.3801 8.02797 12.2197 8.03855 12.076 8.16404C11.9423 8.28161 11.9161 8.5173 12.0184 8.66993C12.0903 8.78071 12.1732 8.82039 12.4039 8.86371C12.7111 8.91777 12.9234 8.98793 13.1165 9.09355C13.5264 9.31994 13.7173 9.67421 13.7377 10.2477C13.7473 10.517 13.7716 10.5998 13.8699 10.6953C14.0522 10.8699 14.3765 10.836 14.5141 10.627C14.5646 10.5483 14.5723 10.514 14.5777 10.3312C14.5812 10.2179 14.5761 10.0494 14.5638 9.95896ZM14.5693 7.29226C15.5438 8.04605 16.0883 9.11741 16.1693 10.449C16.2034 10.9735 16.1581 11.1443 15.9647 11.2416C15.7901 11.3318 15.5923 11.3021 15.4566 11.1664C15.3668 11.0781 15.3322 10.9574 15.3335 10.7436C15.3375 10.1524 15.1951 9.49227 14.9636 9.0342C14.6957 8.50105 14.2815 8.04735 13.7605 7.71564C13.3041 7.42431 12.7002 7.22751 12.1146 7.17851C11.7347 7.14672 11.5991 7.08519 11.5262 6.91101C11.481 6.80681 11.4929 6.62669 11.5459 6.54601C11.596 6.47161 11.7083 6.38935 11.7877 6.3676C11.8719 6.34411 12.3626 6.38517 12.629 6.43583C13.3565 6.57747 14.0202 6.86871 14.5693 7.29226ZM17.9459 15.5772C17.9186 15.5011 17.8551 15.3837 17.8097 15.3163C17.5237 14.9032 15.9872 13.753 15.22 13.3768C14.782 13.1616 14.4574 13.0898 14.2168 13.1572C13.9581 13.2268 13.8219 13.342 13.3884 13.8573C13.2136 14.0639 13.0343 14.2574 12.9867 14.2878C12.8686 14.3661 12.6371 14.4292 12.4737 14.4292C12.0947 14.427 11.407 14.1922 10.8781 13.8834C10.4673 13.6443 9.94081 13.2159 9.53678 12.7919C9.06013 12.294 8.73561 11.8548 8.47911 11.3591C8.14776 10.722 8.06378 10.3328 8.20221 10.048C8.23626 9.97626 8.28166 9.90018 8.30206 9.87623C8.3225 9.85452 8.53587 9.68708 8.77188 9.50443C9.23492 9.15222 9.30981 9.07177 9.39605 8.83042C9.50499 8.52383 9.4755 8.21074 9.30755 7.89549C9.17816 7.65631 8.83999 7.13449 8.59488 6.79748C8.27031 6.35395 7.46231 5.40597 7.30114 5.27765C7.01063 5.05155 6.63844 5.01239 6.22759 5.16462C5.79412 5.32552 4.98156 5.9517 4.63429 6.38873C4.32108 6.78444 4.20082 7.06491 4.18265 7.43454C4.16677 7.73892 4.194 7.86503 4.36196 8.25424C5.67609 11.3069 7.63705 13.7443 10.3312 15.6794C11.7384 16.6904 13.1977 17.4601 14.7116 17.9863C15.5945 18.2928 15.9781 18.3081 16.4297 18.0559C16.6204 17.9471 17.0925 17.484 17.3557 17.147C17.7915 16.586 17.9527 16.3273 17.9981 16.1208C18.0298 15.9794 18.0049 15.7337 17.9459 15.5772ZM17.3655 8.69494C17.642 9.38378 17.7746 10.0016 17.8037 10.7549C17.8083 10.9037 17.8061 11.1763 17.7961 11.361C17.7751 11.715 17.755 11.7853 17.6484 11.879C17.4772 12.0327 17.1433 11.9961 17.0167 11.8108C16.9506 11.7115 16.9414 11.6387 16.9541 11.225C16.9909 10.0015 16.7322 9.04355 16.109 8.08564C15.3642 6.93638 14.2503 6.16219 12.8018 5.78344C12.4324 5.68703 12.1211 5.62827 11.6369 5.56593C11.3216 5.52644 11.2525 5.50975 11.1747 5.46392C10.9395 5.31987 10.9364 4.95509 11.1708 4.80884C11.2918 4.73164 11.381 4.72819 11.7752 4.77649C12.9314 4.91469 13.963 5.24329 14.8107 5.73984C15.4183 6.09624 15.8014 6.41641 16.2946 6.97714C16.8164 7.57518 17.0926 8.01735 17.3655 8.69494Z" fill="white"/>
</svg>
