<svg width="22" height="23" viewBox="0 0 22 23" fill="none" xmlns="http://www.w3.org/2000/svg">
<path fill-rule="evenodd" clip-rule="evenodd" d="M0 11.353C0 17.4282 4.92487 22.353 11 22.353C17.0751 22.353 22 17.4282 22 11.353C22 5.27789 17.0751 0.353027 11 0.353027C4.92487 0.353027 0 5.27789 0 11.353ZM17.9035 10.9321C17.902 14.5377 14.9689 17.4715 11.3626 17.4729H11.3599C10.2652 17.4726 9.18949 17.1979 8.23412 16.6768L4.76667 17.5864L5.69461 14.1969C5.12221 13.2049 4.82101 12.0797 4.82151 10.9269C4.82294 7.32047 7.75721 4.38636 11.3625 4.38636C13.1123 4.38712 14.7546 5.0683 15.9895 6.30467C17.2244 7.54099 17.9042 9.18435 17.9035 10.9321Z" fill="white"/>
<path fill-rule="evenodd" clip-rule="evenodd" d="M6.33714 16.0325L8.39477 15.4927L8.59329 15.6105C9.428 16.1059 10.3848 16.368 11.3604 16.3683H11.3626C14.3591 16.3683 16.7979 13.9294 16.7991 10.9317C16.7996 9.47906 16.2347 8.11317 15.2083 7.08555C14.1818 6.05792 12.8168 5.49171 11.3647 5.49121C8.36592 5.49121 5.92706 7.92985 5.92587 10.9273C5.92545 11.9546 6.21288 12.955 6.75709 13.8206L6.88635 14.0263L6.33714 16.0325ZM14.434 12.3404C14.548 12.3955 14.625 12.4327 14.6579 12.4875C14.6987 12.5557 14.6987 12.8829 14.5626 13.2647C14.4263 13.6465 13.7734 13.9949 13.4594 14.0418C13.1778 14.0839 12.8215 14.1015 12.43 13.9771C12.1926 13.9018 11.8882 13.8012 11.4983 13.6328C9.96608 12.9712 8.93064 11.4862 8.73494 11.2055C8.72123 11.1859 8.71165 11.1721 8.7063 11.165L8.70498 11.1632C8.61849 11.0478 8.03895 10.2746 8.03895 9.47428C8.03895 8.72145 8.40875 8.32686 8.57897 8.14523C8.59063 8.13278 8.60135 8.12134 8.61096 8.11085C8.76076 7.94722 8.93784 7.90631 9.04679 7.90631C9.15573 7.90631 9.2648 7.90732 9.36003 7.9121C9.37178 7.91269 9.384 7.91262 9.39663 7.91255C9.49188 7.91199 9.61061 7.91129 9.72775 8.19266C9.77282 8.30094 9.83876 8.46148 9.90831 8.6308C10.0489 8.97318 10.2043 9.35145 10.2317 9.40619C10.2725 9.488 10.2998 9.58341 10.2453 9.69253C10.2371 9.70889 10.2295 9.72434 10.2223 9.73909C10.1814 9.82262 10.1513 9.88407 10.0818 9.96516C10.0545 9.99704 10.0263 10.0314 9.99809 10.0658C9.94186 10.1343 9.88564 10.2027 9.83669 10.2515C9.75487 10.333 9.66969 10.4214 9.76503 10.585C9.86037 10.7487 10.1884 11.2838 10.6742 11.7172C11.1965 12.1831 11.6505 12.38 11.8805 12.4798C11.9255 12.4993 11.9619 12.5151 11.9886 12.5284C12.1519 12.6103 12.2473 12.5966 12.3426 12.4875C12.438 12.3785 12.7512 12.0103 12.8601 11.8467C12.9691 11.6831 13.0781 11.7104 13.2278 11.7649C13.3777 11.8195 14.1812 12.2148 14.3446 12.2966C14.3765 12.3126 14.4064 12.327 14.434 12.3404Z" fill="white"/>
</svg>
